<?xml version="1.0" encoding="UTF-8"?>
<svg id="b" data-name="Layer 2" xmlns="http://www.w3.org/2000/svg" viewBox="0 0 325.38227 131.67294">
  <defs>
    <style>
      .e {
        fill: #0090bd;
        stroke-width: 0px;
      }
    </style>
  </defs>
  <g id="c" data-name="Fringe Logo V2">
    <g id="d" data-name="Type">
      <path class="e" d="M1.04293,38.36132c.0193-.01621.25178.22143.3495.3089.02452.50884-.36796.91843-.81506.91479-.05524-.00049-.156-.03891-.1577-.0647-.01105-.17402-.06446-.38956.01542-.51582.15612-.24668.38216-.45372.60784-.64316ZM8.25722,18.9011c-.00753-.20504-.13694-.40559-.29257-.80432-.19569.36777-.34975.52498-.33506.66417.017.15891.18404.30179.28589.45166.12103-.1041.34538-.21196.34173-.31151ZM.30216,35.52189c-.08971-.01463-.20091.1024-.30216.15861.06434.10689.10537.27503.19727.30987.35521.13505.72656.22762.89604.27794.34963-.02968.48535-.02264.61014-.05645.15709-.04279.30507-.11891.45694-.1807-.10707-.06865-.20625-.17251-.32292-.19982-.50841-.11873-1.02023-.22562-1.53532-.30944ZM12.04968,11.64844c.34101.1878.73057.34082,1.112.37997.20006.02046.47199-.19903.62714-.38167.09117-.10701.08668-.41026-.00316-.52347-.08983-.11326-.34562-.15211-.51764-.13135-.37949.04577-.75194.1495-1.12742.22962-.00886-.05724-.01772-.11436-.02659-.17153-.3807.04109-.76141.08219-1.14223.12328.14434.63036.72911.28298,1.07789.47515ZM7.83318,32.06133c-.12031-.09099-.24073-.18204-.3614-.27302-.09008.14671-.19885.28674-.25566.44541-.01238.03436.16219.13572.29063.23776.10914-.13712.21779-.27363.32644-.41014ZM7.19621,16.35564c-.10319-.01153-.21973.09572-.3302.15114.11569.11788.23151.23575.3472.35363.07867-.08728.15757-.17457.24862-.27557-.08777-.08134-.16971-.21858-.26562-.2292ZM2.05113,7.79425c-.14276.0054-.27849.18841-.41761.29475.14883.17372.2973.34732.44577.52098.10586-.13493.21184-.26987.35618-.45384-.15114-.1515-.27193-.3662-.38434-.36189ZM9.56431,41.01835c.15964-.12188-.06058-.58028-.29075-.61882-.19375-.03247-.39151-.04103-.30519-.0326-.41554,0-.54993-.01602-.67861.00455-.12601.02009-.24619.07727-.36905.11818.08194.08929.14835.20595.24874.26246.28613.16109.57482.33573.88511.42689.14543.04261.37293-.05615.50975-.16067ZM7.86559,37.73297c-.02185-.05524-.40377-.07205-.45597.00467-.31952.47005-.13329.95947.37038,1.07303.10902-.04777.31673-.11071.31211-.14076-.04929-.318-.10974-.6397-.22653-.93695ZM14.04655,39.17183c.02683-.03314-.156-.33852-.28358-.37603-.34853-.10252-.62884.04813-.66684.43139-.01432.14513.12565.30544.25882.59873.28626-.25827.51424-.43576.6916-.65409ZM5.18076,38.37522c-.08619.39897-.07551.7991.27654,1.0822.08425.06774.24498.05487.36953.04953.04055-.00176.07721-.09712.16996-.22368-.15005-.30975-.31248-.66192-.50064-.99959-.0136-.02416-.30362.03745-.31539.09153ZM13.78616,40.75856c-.16947.02392-.33651.10422-.48571.19363-.02137.01287.07867.29481.0936.29208.21876-.03915.43278-.10568.71115-.18325-.16741-.16492-.25421-.31157-.31903-.30246ZM5.70472,32.30407c-.11727-.13615-.21852-.36838-.35472-.3912-.51218-.08589-1.03916-.158-1.55389-.1254-.2882.01821-.78277.22622-.80232.39351-.06033.51539.44796.27363.70981.34604.31223.08644.64681.0925.67266.09578.49979,0,.7092.04121.89069-.01232.16194-.04771.29305-.20012.43776-.30641ZM9.54319,48.96401c-.46605-.07733-1.17161.42271-1.36827.96875-.01687.04704.01651.15551.05317.17069.11217.04631.28553.12522.3495.07727.36504-.27412.70811-.57846,1.05045-.88159.03885-.03436.02719-.12595.03885-.19102-.04091-.04989-.07587-.13615-.1237-.1441ZM11.77945,47.25631c-.05196.05032-.01093.20043.00073.30313.00097.00698.11581.00091.2763.00091.19375-.13068.48316-.28237.71066-.49925.09748-.09311.06592-.32164.09311-.4885-.11496.01997-.25481.00522-.34028.06659-.26076.18732-.51048.39363-.74053.61712ZM12.26383,36.75305c-.10902-.04637-.21609-.1234-.32777-.13081-.11715-.00765-.25384.02695-.354.08862-.08983.05524-.20091.1776-.19351.2607.00728.08249.15065.15296.23466.22859.122-.01475.27703.01153.35849-.05372.12115-.09718.19072-.259.28213-.39339ZM12.27694,40.70005c-.16061-.10932-.32134-.24959-.34465-.22956-.12176.10446-.20868.24965-.30786.38064.09821.0695.23879.2187.28589.19345.13864-.07411.24-.21761.36662-.34453ZM42.99272,17.53514c-.03521.49488-.03193.99431-.01517,1.49058.02586.76766.09384.84802.87467.86016,1.39134.02161,2.78316.01511,4.17462.01093,1.39243-.00413,1.72203.29378,1.72336,1.66721.00352,3.61213-.00376,7.22431-.01578,10.8365-.00401,1.23601-.29318,1.53592-1.51577,1.55286-1.22575.01693-2.45223.00516-3.6781-.00631-1.39838-.01299-1.49295.05663-1.50302,1.42005l-.00012.1166c.00656,1.38624-.00607,2.77303-.04225,4.15872-.02452.94217-.1509,1.02229-1.11564,1.04869-.19715.0054-.49093.10343-.55916.24559-.07964.16595-.02501.46987.08644.6377.19836.29925.45743.57281.73737.80019.51096.41512.68213.92438.65943,1.57216-.03351.95953.01287,1.9216.01068,2.88253-.00219.95716-.0119.94484-.95564,1.09628-.19666.03156-.37269.19108-.55831.2916.14276.15697.26113.4085.43278.45281.48608.12546.87042.43661.79321.8777-.20856,1.19109.00947,2.28628.45051,3.37558.06968.17214.02137.39375.02064.59248-.00716,2.01241-.00801,4.02494-.038,6.03698-.00255.1719-.24923.50283-.30204.48723-1.06684-.31491-1.35188.76499-2.01824,1.14077-.3211.18106-.29026.65458.0125.96614.316.32498.64523.2678.96195-.02021.19569-.17785.37269-.42501.60383-.49967.19448-.06288.55673-.00055.66817.14319.43315.55928.06046,1.47832-.62459,1.66254-.15794.04249-.32814.0786-.45949.16686-.09566.0641-.19496.21463-.1855.31673.00886.09584.14398.20923.24984.259.11363.05341.25931.06337.38847.05487.64875-.04279.92675.31484.90878.90089-.03606,1.18114.22968,2.38146-.24729,3.54062-.0885.2153-.00522.51369.03751.76729.04346.25833.18926.50732.19545.76268.017.71594.01372,1.43237.01602,2.14862l-.06106.34519c-.06131.21779-.08024.72717-.05791.95388.30179,2.99804-.07818,8.50882.01797,13.04211.06191,2.91324.06568,5.828.06883,8.74209.00231,2.11863-.0539,4.23726-.05718,6.35589-.0034,2.28276.02901,4.56552.03642,6.84828.00279.89482-.21415,1.10727-1.1154,1.10781-8.11883.0051-16.23778.00698-24.35673.00947-.13257.00006-.26513-.002-.3977-.00552-1.07206-.02841-1.36645-.26574-1.39352-1.34405-.03824-1.52312-.00886-3.04823.00595-4.57232.00971-.99243.06131-1.98455.06628-2.97691.02829-5.66362.00534-11.32791.08704-16.99075.04856-3.37-.11011-6.73769-.01323-10.10678.03411-1.18496-.00959-.08844.0187-1.27376v-.08322c0-1.2598.09809-.95546.37148-1.42448.12213-.20953.12662-.59867.0119-.81464-.36225-.68213-.27569-1.39383-.24122-2.12755.05111-1.08803.13839-2.17623.13706-3.26426-.00097-.8893-.15757-1.77829-.16134-2.66777-.01845-4.24103-.00449-2.15341-.00449-6.39444.00194-1.26132.00995-2.52264.01263-3.7839.0017-.79576.10634-1.59595-.31855-2.3454-.11193-.19733-.13669-.52905-.05099-.73743.27193-.66332-.04055-.85033-.61743-.89925-.12674-.0108-.24984-.06349-.37463-.09688.11023-.11017.20201-.27727.33409-.32043.51448-.16814.75946-.50052.77427-1.03777.00728-.26556.1532-.55266.08935-.79048-.29742-1.10624-.18768-2.20871-.09178-3.32326.09639-1.12329.12674-2.25247.17675-3.37947.01165-.26616.03181-.54799-.04273-.79528-.03739-.12468-.2814-.26938-.42586-.26343-.3489.01451-.58149-.11952-.35909-.41658.54095-.72226.9503-1.44973.7381-2.3919-.10464-.46477-.51157-.93956-.9588-.8791-.74101.10009-1.43953.04267-2.15942-.12656-.2139-.05032-.48438.18398-.73931.2471-.16996.04212-.47564.08018-.51958.00395-.34768-.60134-1.22587-.81895-1.11589-1.77404.12868-1.11825-.2105-2.23742-.06604-3.38469.23357-1.85071-.1702-3.71446.00388-5.58053.05341-.57105-.08425-1.21841-.32705-1.74139-.22337-.48092-.00704-.68329.18768-1.04372.5174-.95758,1.24918-1.29288,2.30486-1.1174.5225.08674,1.06781.07126,1.60123.0539,1.5687-.05105,1.60293-.15132,1.66849-1.89963.10659-2.83664.18477-5.68226,1.03431-8.43003.01967-.06392.05002-.12729.05536-.19248.04735-.57621-.0573-1.2232.17506-1.70989.24037-.50362.86629-.80711,1.2181-1.27698.83667-1.11643,1.55-2.33982,2.86183-2.99536,1.01561-.50744,2.03778-1.00165,3.05655-1.50223.29888-.14671.62447-.25718.88839-.4513.45378-.33366.92602-.47248,1.49416-.45287.37658.01299.75582-.03017,1.1341-.08006l.38823-.06756c1.76998-.33111,3.58475-.47266,5.42052-.51849,4.60121-.11478,9.20473-.13918,13.80728-.20164.39758-.0054.79552-.01074,1.19297.00055.98672.02792,1.15813.17651,1.16493,1.17294.01894,2.78365.01408,5.56754.01724,8.35131.00109,1.02733.01408,2.05502-.00838,3.08186-.01882.85871-.2122,1.05167-1.05749,1.09355-.59533.0295-1.19273.0261-1.78916.02398-2.38231-.0085-3.76697,1.76712-3.91216,3.80484ZM18.43908,14.787c.0034.06325.11132.12079.17311.18082.06968-.08844.13949-.17682.20917-.26525-.06835-.04862-.13669-.0973-.22713-.16164-.06798.10009-.15903.17566-.15515.24607ZM17.90518,60.88167c.01554-.08243-.11254-.19199-.17603-.28935-.11484.13572-.22981.27151-.39114.46216.15636.10258.25105.16462.34562.22665.07867-.1322.19484-.25742.22155-.39946ZM17.90712,20.66343c.16109-.00219.31928-.21451.60237-.42738-.30289-.17821-.51375-.39479-.63576-.35284-.19108.06574-.32207.3061-.47855.47254.17081.11102.34271.30999.51193.30768ZM18.95842,37.92204c.47515-.05493.42902-.33075.42902-.51521s-.31005-.3597-.45111-.40583c-.23915-.07818-.55454.19539-.51351.46168.02525.1631.06046.5143.53561.45937ZM19.91601,70.58529c-.03059-.26592-.30167-.50416-.46908-.75436-.19193.17791-.38398.35582-.70241.65099.3251.32589.55394.55527.78277.78465.14058-.22835.41275-.47187.38872-.68128ZM20.70922,31.32293c.07575-.37724-.52286-.92778-1.05179-.89713-.07308.15539-.29026.39764-.26707.61415.04698.43922.28468.86872.79479.84347.19181-.00947.4794-.33767.52407-.56049ZM23.05608,25.49912c.03217.06974.06434.13949.09639.20923.04334-.03751.08668-.07502.13014-.1129-.02161-.05378-.03083-.137-.06859-.15302-.03775-.01609-.10404.03502-.15794.05669ZM22.88831,41.61502c.01833.07351.08255.1356.15879.24789.0749-.12401.11897-.19709.16316-.27017-.07065-.03867-.13851-.09512-.21366-.10744-.03071-.0051-.11691.09487-.10829.12971ZM21.42984,36.91196c.04856-.03029.09688-.06058.14531-.09087-.05074-.05754-.10161-.11515-.15235-.17275-.04759.06009-.09505.12018-.14264.18028.04989.0278.09979.0556.14968.08334ZM21.45824,44.84833c.19569.23836.41093.46064.69197.75819.14592-.22416.30568-.4241.28504-.4448-.21208-.21323-.4465-.40753-.69658-.57451-.02586-.0173-.28662.2536-.28043.26113ZM23.24667,79.77066c-.31952-.23879-.49166-.43709-.70289-.497-.11436-.03247-.2956.17117-.44674.26835.16668.1637.31029.375.50938.47133.1021.04941.30349-.10671.64025-.24267ZM23.38919,61.73048c-.08753-.06901-.20249-.2136-.25797-.19357-.21184.07636-.40462.20583-.78289.41318.34186.13542.51837.26592.59206.2224.17542-.10349.3024-.28941.44881-.44201ZM23.88328,48.39113c.19424-.05481.36104-.2065.53864-.31988-.10404-.13524-.2082-.27053-.39418-.51236-.19715.22993-.35691.36644-.43582.53979-.02234.04911.22167.31211.29135.29245ZM24.56651,50.73119c-.06908-.04358-.13815-.08722-.20723-.13087-.02804.05002-.09056.11678-.07624.14622.02222.04577.09675.06622.14895.09736.04516-.03757.08983-.07515.13451-.11272ZM26.2299,61.22626c.01214.02707.01748.06537.03824.07788.0193.01159.05524-.00437.08389-.00813-.01942-.04212-.03885-.08419-.05827-.12631-.02124.01888-.04249.03769-.06386.05657ZM26.76235,78.80524c-.40158-.32061-.65288-.5367-.92918-.71358-.02282-.01451-.30167.23029-.31369.36741-.03205.36844.01967.7872.48583.82824.18222.01602.38811-.23618.75704-.48207ZM27.3453,69.34181c-.02744-.00182-.05499-.00364-.08255-.00546-.00947.02689-.03096.05669-.02525.07976.00522.02094.04006.03442.06191.05117l.04589-.12546ZM39.22066,38.27234c0,.70131.73713-.0465,1.04305.1909.17129-.23897.44966-.46143.4896-.72062.06519-.42307-.43594-.85792-.81603-.73361-.22398.07326-.71661.56201-.71661,1.26332ZM35.30825,16.27946c.01651.12838.21415.28031.36176.3248.07126.02143.20965-.18009.36929-.32874-.18865-.16565-.32243-.28316-.45633-.40067-.09991.13597-.29026.28352-.27472.40462ZM34.98752,41.33241c-.02161.06307.17554.20049.27266.30392.12043-.13117.28553-.24522.34477-.39982.03678-.09584-.08716-.2533-.20006-.53621-.2048.29378-.35472.44808-.41736.63212ZM33.78471,20.9455c-.01955.01912.06143.14119.2326.51096.15563-.31005.25493-.47636.3183-.65549.01651-.04692-.07891-.13336-.12285-.20164-.14519.11278-.29742.21852-.42805.34617ZM34.14089,54.60894c-.0471-.01366-.12504.07885-.21754.14355.10683.08874.16911.17542.24547.19047.04322.0085.1095-.10088.16534-.15715-.06337-.06258-.118-.15502-.19327-.17688ZM31.61534,19.7802c-.0085.0448.0976.11163.15199.16856.06288-.06264.15478-.11636.17773-.1912.01445-.04674-.07527-.1254-.13803-.21937-.08971.10586-.17712.16692-.19169.24201ZM29.6232,12.26296c.05997.06076.13135.1804.17748.17129.13766-.02713.26525-.10471.43922-.18125-.09688-.12455-.18003-.25493-.19521-.24747-.14701.0726-.28261.16832-.42149.25742ZM30.15735,19.97565c-.03302-.00395-.08352.1393-.12577.21481.13196.06774.26003.14804.39952.19193.02634.00826.09821-.12868.19946-.26805-.19375-.06173-.33093-.12176-.47321-.1387ZM29.27795,34.83873c.01918.0814.04516.18337.10549.22489.02598.01791.08631-.00795.20577-.0539.11933.04595.17967.07181.20565.0539.06033-.04152.08631-.14349.10537-.22489.00352-.01475-.101-.0834-.14616-.07502-.04759.0088-.09857.03114-.16486.06319-.06653-.03205-.11751-.05439-.1651-.06319-.04492-.00838-.14956.06027-.14616.07502ZM28.94835,29.54015c-.11181-.10046-.22361-.20097-.38859-.34926-.12977.1597-.22143.27248-.31321.38532.12346.0817.24911.22987.36953.22574.11363-.00382.22167-.16807.33227-.26179ZM30.60045,66.86512c-.05876-.26003-.29135-.48073-.44553-.71922-.20638.13354-.4187.259-.61621.40462-.07551.05572-.12905.15163-.17214.23927-.10707.21791-.20225.44164-.30228.66307.21366.06313.4272.12625.48231.14258.0465-.00024.07381-.00801.11715-.00947l-.03205.00947.03205-.00947c.77015-.02592,1.04572-.23867.9367-.72086ZM31.57188,43.66112c-.06871-.13421-.1163-.36638-.20953-.38647-.54677-.11751-.93306-.42095-1.22466-.88286-.03108-.04929-.18962-.06568-.25615-.03205-.07187.03624-.10489.1492-.15648.2312.02634.10331.01906.23418.07867.28261.42331.3441.84845.68942,1.30417.98642.0783.05099.30568-.12674.46398-.19885ZM31.94068,69.41611c.00583-.02307-.01554-.05287-.02525-.07976-.02744.00182-.05487.00364-.08243.00546l.04589.12546c.02173-.01675.05669-.03023.06179-.05117ZM31.95768,22.65047c-.2428-.17263-.49482-.49397-.72596-.4797-.28116.0173-.54459.31752-.81579.49536.23867.16741.47734.33475.80644.56553.28978-.22908.51254-.40516.73531-.58119ZM33.24644,44.43472c.13864-.14064.38629-.2794.38872-.42246.00316-.18003-.19399-.36365-.30471-.54568-.16304.11678-.32607.23351-.57895.41463.219.24492.35703.39922.49494.55351ZM34.32736,65.24234c-.0386-.02203-.07721-.04401-.11581-.06598-.00704.02738-.02671.06064-.01736.08043.00935.02003.04722.02677.07272.03933.02015-.01797.0403-.03587.06046-.05378ZM34.97417,62.9878c.10064-.43612-.29063-.52583-.62544-.52875-.36565-.00316-.90733-.13603-.92117.39891-.00558.21536.51266.44425.85173.71418.30884-.24717.64826-.38198.69488-.58435ZM36.13788,46.44161c.03132-.17226-.33227-.55952-.56668-.60541-.41579-.08146-.67546.26538-.64729.66502.01602.22774.24122.44079.48498.84954.34914-.40747.67873-.63291.72899-.90915ZM37.55508,95.19465c-.1583-.24474-.27084-.41864-.38337-.59254-.10647.16261-.29415.32328-.29815.48838-.00461.19163.15199.38708.23867.58089.13305-.14319.2661-.28644.44286-.47673ZM37.97633,59.23582c-.00753-.25554-.2746-.50356-.56086-.96499-.25639.48268-.50453.74751-.49797,1.00584.00473.1841.36116.50853.54447.49767.19375-.01147.51982-.35054.51436-.53852ZM37.74847,36.91196c.04989-.02774.09979-.05554.14968-.08334l-.14276-.18028c-.05074.0576-.10149.11521-.15223.17275.04832.03029.09663.06058.14531.09087ZM38.90842,19.62724c-.00704-.19035-.22507-.48268-.40328-.53403-.38702-.11169-.775.38562-.80098,1.13762.08838.1112.23236.41384.47163.55521.1963.11587.75084-.67971.73263-1.1588ZM39.93496,44.75102c.55904-.00407.66696-.20012.42562-.61579-.2831-.48735-.68784-.79176-1.27346-.75789-.3455.02003-.48219.24383-.3007.53737.28128.45482.64863.82538,1.14854.83631ZM39.73125,69.83092c-.16729.2502-.43825.48844-.46884.75436-.02428.20941.24802.45293.38859.68128.22883-.22938.45767-.45876.78289-.78465-.31855-.29518-.5106-.47309-.70265-.65099ZM40.96854,56.16289c-.29985-.34786-.70581-.29688-1.08602-.09433-.50404.26841-.49591.73518-.43521,1.20463.05839.45215.39078.56031.78581.58095.39357.02052.78666.05542,1.17986.08401.48195.02058.61876-.15448.38787-.56413-.23988-.4258-.51412-.84177-.8323-1.21112ZM41.03349,53.98016c-.07296-.02725-.2241.15515-.59667.43721.27679.1248.45378.26877.62071.25791.11763-.00771.31296-.23047.30677-.34853-.00656-.12753-.18914-.29366-.33081-.34659ZM40.96028,45.40815c.2377.1376.35327.24522.48049.26119.06495.00819.15065-.14768.22701-.22944-.09348-.07618-.1787-.19515-.2831-.21554-.08813-.01724-.19885.07976-.42441.1838ZM41.85923,12.30697c-.03193-.02871-.06373-.05742-.09554-.08613-.01226.02507-.03569.05123-.03326.0749.0017.01882.03484.0346.05414.05172.02477-.01348.04977-.02701.07466-.04049ZM42.72929,16.71746c.01068-.08425-.19909-.19624-.30835-.29554-.11776.1966-.27072.38252-.33591.59527-.02513.08182.1492.22477.34829.49931.14446-.36486.2678-.57597.29597-.79904ZM52.55546,88.81618c0,4.07684-.00222,8.15368.00085,12.23052.0018,2.38538-.01992,4.77144.03054,7.15588.02982,1.40875.20995,1.53464,1.58746,1.53217,2.28692-.00408,4.57387-.02722,6.86074-.01999.67702.00214,1.31373-.05099,1.89381-.45738.15555-.10898.51204-.17854.60695-.08823.90576.86186,1.91311.47646,2.91664.31429.38143-.06166.78085-.054,1.1686-.0274,1.93787.13293,3.89532.48838,5.67944-.68805.45329-.29888.81666-.19958,1.19061.26037.23591.29018.69855.52098,1.07572.54749,1.05549.07422,2.12018.05351,3.17977.02169.78242-.02348.97322-.23919,1.0079-1.04168.03578-.82759.0513-1.65675.04971-2.48518-.0132-6.85943-.02772-13.71887-.05593-20.57824-.00339-.82295-.14422-1.6466-.12805-2.4681.02995-1.52024.18429-3.03892.18957-4.55859.02314-6.65757-.08569-13.31609.58402-19.95737.15698-1.55681.77671-2.87805,1.62925-4.09727,1.52026-2.17412,3.72848-3.39051,6.27157-3.87688,2.10673-.40292,4.26125-.56862,6.40001-.78631,1.14522-.11657,1.23753-.14366,1.24107-1.29274.01039-3.3793.01087-6.75862.0142-10.13793.00021-.19881-.0123-.39763-.0126-.59644-.00307-2.08115-.00641-4.16229-.00649-6.24344-.00006-1.49112.01955-2.98243.00134-4.4733-.00988-.80868-.03754-.8194-.89167-.79942-.46526.01088-.77418-.2053-.89984-.61972-.0317-.10455.17323-.34951.32121-.41783.11488-.05304.31158.06426.46974.11297.7063.21753.91922.14196.92294-.59685.0063-1.25159-.10281-2.50475-.19218-3.75519-.02487-.34789-.19714-.65772-.63166-.60732-.40271.0467-.37025.3468-.39999.66598-.0577.61949-.33591.81409-.84323.538-.72124-.3925-1.30414-.35151-1.88062.24133-.07833.08055-.44058.0399-.52271-.06313-.55799-.69998-.73668-.77878-1.54149-.46306-.55423.21742-1.07742.53444-1.64647.68982-1.95181.53297-3.45663,1.79987-4.93041,3.05844-1.57475,1.34481-2.66386,3.11265-3.71321,4.88774-.18721.31668-.46296.58103-.69783.86954-.01453-.35909-.06301-.72056-.03818-1.07691.1841-2.6432.40808-5.28386.56712-7.92847.0913-1.51829.04641-1.51454-1.46942-1.70819-1.2491-.15958-2.49612.108-3.76744-.12807-1.12108-.20817-2.3313-.17006-3.46669-.00163-1.13436.16828-2.2058.10502-3.33886.01651-2.27336-.17758-4.56976-.06855-6.85655-.05717-.35593.00177-.74589.03995-1.0592.18919-.53028.25257-.99677.27187-1.50604-.02798-.18979-.11175-.44206-.16079-.66656-.16297-1.25918-.01219-2.51928-.02499-3.77768.01078-.72168.02051-.88375.19085-.88486.90596-.00324,2.09358-.05637,4.19107.29679,6.26887.02112.12424-.01601.25959-.03289.38887-.0932.71405-.27033,1.42774-.27102,2.14169-.01332,13.6812-.00024,27.36242-.03088,41.04364-.01359,6.06553-.0023,12.13112-.0023,18.19669h.00535ZM59.24709,66.33535c.07516.34975-.54928.95848-.79304.80621-.18586-.11611-.32967-.47238-.30791-.70455.02763-.29497.24147-.57249.37502-.85753l.26781.00127c.15944.25009.39971.4828.45812.7546ZM92.98034,34.20065c-.36128-.00078-.68228-.18834-.59807-.59566.03682-.17806.41208-.46265.50084-.42032.26414.12596.46243.39006.80914.71526-.34422.15231-.52823.30111-.71191.30072ZM72.24271,22.50989c-.16903-.01335-.3201-.25419-.47896-.39628.16126-.17632.29728-.40444.49703-.50178.07317-.03566.29742.23864.54379.44944-.25025.21228-.4163.46012-.56186.44862ZM74.77958,25.62499c-.19887-.09333-.34241-.30457-.50839-.46798.12716-.12029.29026-.36208.37449-.33718.21796.06446.40113.24652.71386.46093-.29353.1822-.49376.38468-.57996.34422ZM77.53853,103.84951c.09596-.20315.28365-.36297.43655-.53922.12863.11458.37508.24585.36169.34028-.02912.20539-.19081.39198-.35442.68763-.23067-.2471-.47102-.4311-.44382-.48869ZM71.33104,103.76955c-.03901.01477-.26609-.27132-.23952-.31339.10247-.1623.26041-.30269.42743-.40039.03472-.02032.19643.17643.38291.3512-.23539.15929-.39049.29422-.57082.36258ZM57.73122,61.86011c.04881-.14321.26337-.31418.40704-.31396.1134.00017.30344.23196.31955.37648.01884.16898-.1141.35489-.1812.53345l-.28757-.17966c-.09408-.14154-.29127-.31823-.25783-.41631ZM88.96911,34.3114c-.09403.02383-.24681-.18425-.3733-.28851.11602-.12627.21213-.30027.35582-.36022.08119-.03386.24062.11986.43369.22747-.1727.18763-.27399.38521-.41621.42125ZM66.86039,57.54865c.15194.0319.27723.19085.41369.29656-.09231.11566-.19269.332-.27521.32538-.15782-.01264-.30548-.15215-.54519-.28925.18933-.16272.31969-.35095.40671-.33269ZM64.69507,61.38193c-.10498.00759-.31316-.15234-.31174-.23569.002-.11775.1384-.30285.24829-.32898.10373-.02465.24749.11908.4592.236-.1787.1579-.28165.32042-.39575.32867ZM59.0559,36.43395c-.10048-.04696-.21192-.16418-.2278-.26704-.01144-.07408.12404-.17083.19399-.25747.08931.08072.17862.16143.32603.29466-.13093.10709-.24958.24979-.29222.22986ZM55.57387,38.0789c-.06242-.00747-.17166-.16986-.15395-.19959.05535-.09289.15978-.21174.24764-.21375.0801-.00183.16338.13568.33026.29077-.21449.06793-.32391.13454-.42394.12258ZM66.47775,26.2171c.07695-.0912.17692-.16996.28373-.22283.02025-.01002.15994.12178.15448.17968-.0119.12652-.08166.24758-.1687.48018-.19292-.30826-.28533-.41829-.26951-.43703ZM66.97367,75.1903c-.06464-.10801-.14678-.21059-.1829-.32741-.01043-.03374.11141-.10837.17262-.16425.07701.0969.15401.1938.25904.32596-.10976.07312-.17926.11941-.24876.1657ZM94.83798,42.0799c-.04758.00574-.10122-.03886-.15227-.0618.04288-.05459.08576-.10918.12863-.16377.04061.03787.08122.07573.12182.1136-.03236.03995-.06146.10753-.09819.11196ZM86.5957,43.48226c.02089.00507.03443.04049.05122.06251-.04215.01575-.0843.03151-.12645.04727-.00169-.02782-.00337-.05566-.00506-.08349.02705-.00995.05702-.03194.08029-.02629ZM87.80501,37.82856c-.01848.01124-.05335-.0045-.08101-.00835.01854-.04094.03707-.08188.05561-.12283.02061.01845.04124.03689.06185.05533-.01151.02635-.01635.06363-.03646.07584ZM92.08493,28.86164c-.00558-.00034-.00819-.04915-.01219-.07551.04662-.00359.09335-.00978.13962-.00723.00534.0003.00801.04921.01192.07558-.04651.00381-.09321.00997-.13935.00716ZM69.05213,38.66464c-.01474.01968-.02948.03936-.04422.05904-.03229-.02511-.06457-.05022-.09685-.07533.02464-.00957.04929-.01913.07394-.02869.02238.015.04475.02999.06713.04498ZM55.41312,28.60391c.01837.00294.03159.03823.04709.05915-.04058.01667-.08116.03334-.12174.05v-.07867c.02421-.01137.05155-.03417.07465-.03048ZM90.04562,23.6139c-.00793-.03775-.01584-.07549-.02376-.11323.0291.00141.06401-.00628.08529.00734.01481.00948.0109.04822.01536.07388-.02563.01067-.05127.02134-.07689.03201ZM112.63602,19.89283c-3.11539,0-6.23077-.00228-9.34615.00121-1.12697.00126-2.2539.01632-3.38086.02512-.52359.00409-.91249.19384-.98534.76536-.07948.62354-.16917,1.24837-.19702,1.87517-.02855.64258.00396,1.2782.81613,1.49995.32298.08819.34319.35772.04049.47661-.85478.33574-.703.97122-.61306,1.65585.06194.47147-.0034.96478-.0519,1.44428-.05287.52258-.21923,1.04028-.22073,1.56044-.01799,6.26339-.01338,12.52684-.01709,18.79028-.00352,5.96529-.02192,11.93062-.00427,17.89584.00329,1.11306-.21689,2.25621.28486,3.3369.0577.12431-.02368.31572-.04767.47494-.08298.55072-.24259,1.10089-.24312,1.6514-.00964,9.87221-.013,19.74447.01436,29.61663.0067,2.41699.12695,4.83366.19581,7.25047.03045,1.06851.1431,1.1913,1.23159,1.18769,1.78202-.00591,3.56398-.03267,5.34594-.05308.13203-.00152.26389-.03331.39574-.03268.75443.00361,1.50949-.00461,2.26306.02445.94928.03661,1.90572.25446,2.72382-.51817.35193-.33237.7939-.16494,1.19765.07433.42186.24999.8643.57366,1.32546.62736,1.1087.12912,2.23325.14632,3.35201.15987,2.71761.03296,5.43554.03816,8.15334.05453,1.85994.0112,1.91175-.02906,1.91578-1.85466.01191-5.40302.02161-10.80605.01969-16.20908-.00169-4.77244-.0185-9.54489-.03166-14.31733-.01307-4.73904-.03873-9.47807-.04007-14.21711-.00044-1.54978-.239-3.08598-.03359-4.65397.16182-1.23535.0174-2.51101.00611-3.76875-.00409-.45685-.0257-.91366-.02336-1.37042.00625-1.22468.1786-2.47551-.01922-3.66538-.14764-.88819-.65466-1.69477.05746-2.54137.05204-.06188.02854-.19319.02833-.2922-.00229-1.12693-.00075-2.25395-.01391-3.38077-.00522-.44842-.02419-.87486-.69494-.82661-.17692.01273-.37569-.27814-.56443-.4296.17461-.15503.33951-.42722.52566-.44261.51101-.04225.73282-.30102.71771-.76173-.04046-1.23471.31185-2.52734-.54888-3.64819-.22281-.29014-.22229-.63193.12992-.86628.46005-.30608.45258-.77066.45323-1.2407.00606-4.40835.02467-8.81671.01633-13.22504-.00392-2.07112-.08776-2.13895-2.20047-2.14243-3.97757-.00656-7.95515-.00189-11.93273-.00189-.00001.00378-.00002.00755-.00002.01132ZM103.90004,30.95853c.19628-.15969.878.65085.87377,1.03217-.00373.3384-.73143,1.09041-.97657.94634-.25822-.15176-.39935-.50276-.66123-.8622.28253-.43512.45244-.86279.76403-1.11631ZM121.34039,50.15281c-.10144-.17561-.28769-.35134-.28743-.52679.00061-.42061.47248-.7723.89368-.68611.14971.03063.27223.19407.57013.42107-.47184.3176-.82411.55472-1.17638.79183ZM104.08857,29.51947c-.02054.01476-.35539-.25772-.36578-.40893-.02467-.35904.05649-.7723.51486-.79405.19286-.00915.39752.22991.72964.44028-.36401.33012-.60651.56708-.87871.7627ZM112.78589,28.23236c.00243-.11977.35281-.36242.47202-.3245.3049.09699.56965.32019.85045.49292-.16409.16377-.32819.32752-.42013.41928-.5393-.03524-.91178-.12108-.90234-.5877ZM124.2734,46.29153c.00856-.18384.27072-.35586.42135-.53308.14153.19275.35816.37087.39948.58312.03.15413-.17194.35341-.36855.71093-.22876-.36124-.46134-.56673-.45228-.76098ZM117.17674,60.34843c-.01757.01234-.19566-.16105-.19148-.16656.22162-.29268.45047-.5806.69813-.85108.01428-.01559.19158.11808.45885.28727-.38323.29572-.66837.52156-.9655.73036ZM107.48436,71.97708c-.18285-.0239-.34308-.22073-.51318-.34209.18769-.13948.36377-.36255.56693-.3908.15038-.0209.33599.21169.65964.43963-.34893.15359-.54319.3155-.71338.29326ZM121.88403,38.63834c.01287-.19727.21158-.38243.33031-.5728.15674.13776.42431.2625.4424.41653.02308.19646-.15549.4166-.31989.79315-.23863-.31835-.46272-.48525-.45281-.63689ZM101.93529,81.2487c-.19416-.13569-.35282-.3222-.524-.49077.1252-.11733.3264-.35495.36291-.33189.19522.12333.34931.31175.58451.54358-.21061.14274-.38393.30666-.42341.27908ZM105.20837,91.00564c-.04992.01219-.21994-.23244-.20952-.24374.13871-.15068.2855-.30958.46415-.39789.05112-.02524.21065.16888.42405.35061-.29876.13558-.4815.24288-.67869.29103ZM116.70226,23.55784c-.12247-.00021-.31021-.12156-.34654-.23123-.02984-.09004.12232-.34313.1905-.34189.15027.00274.29844.12041.54691.23841-.18567.16806-.2884.33489-.39086.33472ZM121.1322,66.51972c-.02121-.0068-.03345-.04163-.04962-.06414.04096-.0127.08193-.0254.12289-.03809l.00688.08154c-.02708.00802-.05792.02781-.08016.02069ZM115.70572,17.11832c1.32372,0,2.64744.00064,3.97116-.00015,2.02063-.0012,4.04138.00964,6.0618-.01162.80453-.00846.99131-.20898,1.02101-1.01107.01332-.35966-.05972-.72213-.0873-1.0838-.02485-.32564-.06491-.65249-.05726-.97784.04033-1.71874.10542-3.43698.1345-5.15585.00776-.45809-.12622-.91879-.11638-1.37659.0227-1.05668.13212-2.11222.13478-3.16841.00295-1.16876-.19211-1.3326-1.32902-1.33495-1.18864-.00246-2.37732.0056-3.56597.00518-3.94208-.00139-7.88416-.00574-11.82624-.00639-1.52394-.00025-3.04837-.01397-4.57158.02108-.51837.01192-1.08055.32844-1.5416.20438-1.32424-.35633-2.63137-.1698-3.9456-.09002-1.07932.06552-1.2981.35739-1.15692,1.46688.18721,1.47103.1834,2.95338.38108,4.43317.20574,1.54011-.14721,3.15309-.23699,4.73528-.03937.69349-.05401,1.39011-.03899,2.08443.01282.59286.29581,1.0636.92231,1.10877,1.40737.10148,2.82945.3736,4.20703-.23514.20349-.08993.57483-.11692.70545.00364.41745.38527.89696.38383,1.39394.38401,3.18029.00114,6.36058.00058,9.54088.00058-.00002.00147-.00004.00295-.00006.00442ZM119.66207,9.75344c.12452-.17729.25971-.35623.4268-.4889.05003-.03972.31573.06676.31788.11376.00966.21222-.02691.43003-.07408.63969-.01963.08726-.09136.18324-.16714.23308-.14795.0973-.31543.16492-.47482.24483-.04007-.15053-.08015-.30106-.10537-.39582.03264-.15997.02555-.27377.07674-.34664ZM101.06207,8.23095c-.08043.0183-.19012-.09198-.28692-.14563.06995-.12019.13991-.24037.20987-.36055.09411.05815.18821.1163.33717.20835-.1133.13825-.17305.27802-.26012.29783ZM100.95946,11.43531c-.04072.0596-.14117.08548-.22133.10452-.01443.00343-.08231-.10021-.07415-.14508.01556-.08566.0681-.16458.16412-.37545.09244.2774.15744.3778.13136.41601ZM118.71312,11.27666c-.01884-.03618-.03767-.07236-.0565-.10854.02899-.00075.06171-.01005.08577.00046.01959.00855.02883.04082.04266.06258-.02398.01517-.04795.03033-.07193.0455ZM129.5326,86.00328c0,7.25863.00455,14.51727-.00297,21.7759-.00207,1.98307-.01873,1.99451,1.92104,1.99744,4.96096.00748,9.92196.00942,14.88292.00239,2.94877-.00418,5.89758-.02192,8.84624-.04836,1.63232-.01464,1.63903-.02837,1.63991-1.6345.00611-11.07038.00972-22.14075.01034-33.21113.00002-.33017-.00681-.66727-.07073-.98917-.1791-.90197-.43741-1.3269-1.31126-1.33871-.19039-.00256-.39794-.06957-.56514-.16423-.31943-.18082-.38018-.44502-.12289-.73558.44106-.49811,1.07118-.51155,1.52725-.0421.10834.11151.22743.21258.34155.31846.05074-.1772.14711-.35481.14552-.53153-.03194-3.53968.30854-7.08728-.21452-10.617-.01425-.0962-.01339-.19652-.00567-.29381.08577-1.08061.23798-2.16022.25122-3.24158.06209-5.06874.04947-10.13862.14482-15.20657.03099-1.64733.18928-3.31324.50353-4.929.40126-2.06303,1.80391-3.06227,3.91171-3.06924,2.35311-.00777,3.48706.93412,3.80952,3.28072.17533,1.27601.23473,2.56868.32643,3.85526.09354,1.31218-.1043,2.65457.49717,3.9116.11449.23926.04262.5814.01573.87227-.13973,1.51122-.3915,3.0193-.42096,4.53205-.06519,3.34572-.0191,6.69357-.02165,10.04055-.00511,6.69501-.01469,13.39003-.0182,20.08504-.00358,6.81957-.00178,13.63914-.00297,20.45872-.00044,2.45218-.00912,4.90438-.00149,7.35653.0039,1.25184.06912,1.31885,1.2779,1.31815,8.08722-.00473,16.17445-.01287,24.26167-.02633,1.44002-.00239,1.69699-.24754,1.67148-1.68412-.03525-1.984-.1509-3.96687-.16831-5.95079-.01564-1.78463.06655-3.56988.08486-5.35507.0353-3.44194.06223-6.88399.08066-10.32606.0135-2.51882.00575-5.03776.01112-7.55664.00901-4.20926.02843-8.41852.02367-12.62776-.00075-.6557-.15464-1.31156-.15097-1.96687.00439-.79009.14704-1.57947.15046-2.36951.01537-3.54636.0117-7.09288-.0026-10.63927-.01469-3.64189-.01195-7.28452-.09187-10.92518-.03992-1.81861-.18392-3.64117-.40214-5.44729-.13257-1.09714-.11249-2.26179-.79399-3.24254-.0723-.10406-.05839-.30895-.01561-.44549.28388-.90595-.03967-1.68036-.47673-2.44505-.15893-.27807-.26894-.58597-.38391-.88689-.17557-.45948-.27839-.95638-.51213-1.38251-1.835-3.34517-4.6758-5.5761-8.15119-6.95473-3.71836-1.475-7.60838-1.65448-11.53912-1.01914-1.10716.17896-1.0872.20458-1.1216,1.33133-.00564.18448-.22131.36254-.3399.54357-.15148-.13353-.39199-.24107-.4398-.40486-.27778-.95188-.29858-.98165-1.23102-.6921-.28357.08807-.5541.21773-.83189.325-1.27418.49199-2.46338,1.13243-3.51558,2.01185-.95869.80126-1.98015,1.54036-2.85735,2.42277-1.02072,1.0268-2.07632,2.05744-2.61528,3.46632-.04375.11436-.27375.24169-.39057.21994-.11449-.02132-.23546-.2127-.27932-.35271-.04667-.14894-.01403-.32576-.00246-.48946.12837-1.81504.28673-3.62848.38072-5.44526.07077-1.368-.16332-1.57558-1.50544-1.57604-5.69155-.00195-11.38309-.0062-17.07464-.00492-2.35294.00053-4.70587.01131-7.05881.02032-1.80736.00692-1.88952.08707-1.97396,1.87795-.00312.06619-.0043.13254-.0043.19881-.00027,1.62394-.02962,3.24873.01742,4.8713.01436.49473.34182.98382.33972,1.47469-.00231.53728-.31653,1.07177-.32695,1.61072-.04087,2.11724-.03489,4.23601-.00749,6.35371.01539,1.19011.16334,2.37975.15282,3.56871-.02696,3.04513-.10985,6.08977-.16878,9.13464-.01156.5974-.07824,1.19778.65723,1.4994.36078.14797.25884.43869-.03449.58919-.5733.29412-.62769.79494-.62495,1.34879.00671,1.35891-.06121,2.72136.01633,4.07577.06175,1.07841.35011,2.14277.43262,3.22142.06437.84148.12644,1.7443-.11381,2.52672-.16381.53348-.36204,1.03527-.36204,1.59939-.00002,7.39058-.00001,14.78117-.00001,22.17176h-.00611ZM174.46925,79.26129c-.18187.23267-.39926.49661-.65966.59423-.34211.12822-.62182-.07858-.7678-.43521-.15919-.38893-.34586-.7666-.50577-1.15527-.09901-.24065-.30846-.63156-.22722-.71226.20604-.20463.55376-.38727.83437-.3731.78169.03947,1.39912.81248,1.37187,1.67887-.00696.08518.03862.29477-.04578.40275ZM176.08655,80.30566c.75934.45005,1.52057.89883,2.25573,1.38636.17853.11839.41031.44323.35945.56729-.15617.38086-.50578.35872-.82272.15433-.86737-.55936-1.73248-1.12255-2.58782-1.69998-.11615-.0784-.17145-.24696-.25491-.37378.15761-.08912.31522-.17824.46155-.26097.22853.086.42459.12945.58873.22675ZM177.4636,66.17692c-.16766-.14379.69618-.67816,1.26704-.68617.45636-.00641.92147.3384.79835.66908-.10394.27914-.43438.47394-.7287.77075-.52816-.2845-.98784-.45445-1.33668-.75365ZM143.14874,39.16124c.439.01278.52668.31214.44232.69169-.00709.03193-.01023.06645-.02491.09473-.16536.31846-.02039.93761-.54617.87262-.22926-.02833-.39211-.59388-.50215-.77719-.00469-.61285.1853-.8948.6309-.88184ZM143.61669,56.81486c-.10145-.03297-.22655-.32626-.2103-.33949.39837-.3242.80507-.64145,1.23838-.91554.05774-.03653.2663.16538.36068.22763-.07042.54012-.96766,1.16428-1.38876,1.02741ZM187.46492,30.64054c-.07332-.34363.23838-.57208.56469-.46173.31049.105.5696.36191.85131.55203-.2251.1872-.45019.3744-.7842.65218-.2765-.3092-.57987-.49902-.6318-.74248ZM166.41092,23.61737c.0076-.18947.34903-.36554.54172-.54758.18359.19646.51888.39716.51352.58831-.00717.25561-.27847.50383-.56979.96774-.25031-.48446-.49575-.75159-.48546-1.00847ZM177.71516,31.50901c-.00792-.20522.27955-.42183.43604-.63339.17155.24783.41213.47634.48893.75069.04674.16694-.15916.4046-.2516.61049-.08585.0046-.17169.0092-.25753.0138-.14974-.24676-.40609-.48941-.41584-.74159ZM176.34951,71.10965c-.2421-.18754-.52133-.38632-.63816-.64984-.05321-.12.21127-.543.36667-.56353.50817-.06713.5156.38417.62254.87123-.09047.08938-.33078.35781-.35105.34213ZM166.24151,35.34044c.02237.05349-.32683.34423-.35403.32391-.26122-.19505-.50873-.41899-.70718-.67563-.02805-.03627.22826-.29246.49026-.61687.25892.41915.44992.67923.57095.96858ZM188.73619,34.61645c.26656-.40748.53602-.81384.82953-1.20176.02962-.03916.21949.04291.33498.0687-.06643.23655-.06733.53153-.21427.69626-.23291.26117-.56348.43523-.86387.65424-.04586-.11043-.10484-.18926-.08639-.21745ZM134.36834,75.10673c.11885-.2607.38731-.4532.59531-.67326.12255.15515.36207.32698.3428.46189-.03768.26388-.21978.50715-.45338.98803-.26864-.41321-.53473-.66699-.48473-.77667ZM176.39258,65.88837c-.23135-.04145-.42749-.27928-.63858-.43371.20553-.17595.38857-.42943.62522-.49808.13654-.03961.35966.2193.70991.45618-.3421.24624-.54476.5028-.69656.47561ZM132.39152,36.27796c-.27151-.06585-.50954-.2696-.7613-.41686.1387-.14423.28786-.41674.41395-.40645.27858.02273.54557.1878,1.01372.37216-.34782.24626-.53941.48195-.66638.45116ZM169.24546,46.8679c-.25888-.20526-.47611-.46574-.68463-.72548-.01305-.01627.22974-.29532.25897-.27934.3147.17221.61039.37917,1.06933.68032-.35996.18719-.58998.36705-.64366.3245ZM184.70438,30.25624c-.23308-.08718-.41059-.32293-.61119-.49695.18142-.14435.38211-.42337.53961-.40079.224.0321.41625.28583.75398.54682-.33926.18441-.55921.397-.6824.35092ZM186.49259,85.66092c.02751.04278-.15551.22096-.24117.33651-.20961-.25438-.43045-.50087-.61922-.76987-.03727-.0531.04897-.19288.1356-.48804.32282.39719.54675.64455.72479.9214ZM182.17565,29.93829c-.17328-.04869-.30226-.25507-.4499-.395.14534-.10105.2881-.27656.43676-.2817.14218-.00492.2905.16729.52568.31965-.23396.17194-.40753.38655-.51254.35704ZM183.17276,85.22635c-.18045-.04987-.32166-.24158-.47933-.37381.124-.11408.25477-.32723.37046-.31934.17981.01224.34938.17486.6379.33888-.25807.18181-.42528.38291-.52903.35426ZM170.07647,49.4671c-.09031.00788-.19771-.17992-.29744-.27991.12342-.11677.23089-.28142.37701-.33015.07336-.02446.21707.162.41132.32009-.21298.13499-.34626.27733-.4909.28997ZM137.13448,57.17812c-.05935-.00033-.18013-.14796-.16519-.1824.04246-.09781.13508-.2303.21815-.23793.08109-.00744.17479.12237.35043.26093-.20022.0851-.30203.15998-.40339.15941ZM191.27734,59.31852c.12892.05319.24401.13995.36385.21517-.06286.06101-.13062.17657-.18756.17146-.11273-.01011-.21946-.0869-.37483-.15692.09498-.11247.17496-.23944.19853-.22971ZM136.38137,22.17865c.00908.04415-.13145.1733-.16143.16079-.08034-.03351-.16764-.11341-.19234-.19337-.01456-.04716.08471-.12948.15368-.2249.09297.11161.18353.17693.2001.25747ZM131.44149,76.62624c-.07654-.02683-.1301-.11924-.1933-.18414.05644-.05457.12713-.16277.1663-.15235.07788.02069.13837.10667.2455.20008-.09303.06154-.17433.1519-.2185.13641ZM135.79082,53.31095c-.06515-.00279-.12567-.11384-.18824-.17726.06491-.0629.1254-.16872.19606-.17603.06395-.00661.13901.0943.24284.17347-.10804.08293-.18156.18278-.25066.17982ZM191.88583,96.97469c-.03052-.00256-.05409-.08772-.08078-.13571.05485-.02619.11186-.0751.16372-.07014.03156.003.05521.08903.08243.13777-.05553.02572-.11261.07251-.16537.06808ZM149.21381,57.72561c-.02168-.0053-.03574-.04185-.05316-.06461.04352-.01627.08705-.03253.13058-.04881.00187.02879.00374.05757.00561.08635-.02797.01025-.05899.03294-.08302.02707ZM130.96331,73.0318c-.01873.01147-.05476-.00535-.08318-.00971.01827-.042.03653-.08402.05479-.12602.02146.01908.04294.03817.0644.05725-.01131.02729-.01562.06602-.03601.07848ZM195.73892,59.26227c0,3.9442-.01503,7.88847.00469,11.83257.01622,3.248-.00872,6.49946.1364,9.7426.13905,3.10672.50652,6.20252.71188,9.3072.16236,2.45538,1.16357,4.66967,1.86374,6.97184.03761.12369.1272.23163.19288.34672,1.41749,2.48387,3.44335,4.34769,5.91544,5.73743.67771.38101,1.33778.89259,2.21441.71027.11035-.02294.28125.04355.36521.1275.59834.59824,1.41151.63757,2.14429.91224,1.96963.7383,4.02686.85676,6.06411.95036,4.34282.1995,8.42304-.8456,12.14225-3.11783,1.29594-.79177,2.48224-1.76246,3.72586-2.64111.18195-.12855.40457-.19953.60837-.29716.0623.20589.17923.41194.1787.61768-.00789,3.08188.0279,6.1658-.08066,9.24451-.04256,1.20792-.33751,2.42601-.66176,3.59961-.32838,1.18845-1.17498,1.95008-2.38539,2.32289-1.04419.32163-2.0827.33804-3.1442.16982-1.34596-.21327-2.36939-.90879-2.88999-2.16059-.33853-.81401-.51669-1.70281-.69651-2.57259-.20084-.97136-.29325-1.09541-1.29866-1.09788-1.6168-.00397-3.23362.0063-4.85044.0069-3.97718.00146-7.95434-.00123-11.93152.00393-.4298.00056-.8593.05118-1.28936.06205-1.04533.02642-2.09112.06562-3.13636.057-.92495-.00762-1.8494-.10258-2.77415-.10387-.84376-.00118-1.07539.2317-1.05303,1.07385.02282.85969.08588,1.72268.20135,2.57473.3892,2.87175.98975,5.69125,2.51405,8.20864.45495.75133,1.08962,1.3923,1.62428,2.0972.92483,1.21929,1.9554,2.31692,3.30102,3.08942,4.42982,2.54309,9.28592,3.66128,14.29566,4.18365,2.2638.23605,4.56144.14187,6.8276.36288,3.02768.2953,6.00758-.23875,9.01113-.32437.67847-.01933.75762-.20667.57392-.88123-.03115-.11432-.02773-.23806-.04028-.35744.11237.03884.27094.04308.32996.12188.53111.70888,1.29072.81208,2.05844.68452,1.36983-.22757,2.74232-.47842,4.08309-.83473,5.54906-1.47471,10.40472-4.06193,13.98425-8.72687,1.99811-2.60404,3.49382-5.41079,3.75568-8.72761.21351-2.7045.39355-5.4187.41508-8.12997.06191-7.78873.04074-15.57814.04336-23.36729.00393-11.72956.00104-23.45912-.00032-35.18868-.00044-3.74081-.00384-7.48162-.00833-11.22243-.00541-4.50042-.01345-9.00085-.02037-13.50127-.0001-.06629.00141-.13267-.00126-.19886-.03902-.96449-.29589-1.17569-1.22697-1.03375-.28863.044-.58652.0929-.87377.06744-.68478-.0607-1.36463-.22649-2.04849-.23875-1.84961-.03316-3.7003-.00694-5.55054-.00704-2.51106-.00013-5.02212-.00363-7.53318-.00258-.16488.00007-.3295.033-.4947.03953-.95411.0377-1.90903.11334-2.86246.09865-1.78083-.02744-3.56047-.12903-5.34128-.15843-1.04591-.01727-1.2105.17106-1.22007,1.22244-.0136,1.4915-.02071,2.98335-.00112,4.47467.0066.50336-.12589.92052-.5215,1.2223-.16211.12366-.38206.17145-.57574.25375-.01112-.18725-.09683-.4153-.02052-.55473.33911-.61978.07706-1.06702-.33986-1.50422-3.86588-4.054-8.52141-6.40116-14.17198-6.7724-1.2849-.08442-2.48069.28855-3.73317.29512-.34118.00179-.74111.37711-1.00699.67618-.50057.56303-.68689.67493-1.20509.21363-.40408-.35974-.8401-.46018-1.28055-.32081-1.47607.46704-3.0246.82133-4.37711,1.53683-2.28116,1.20677-4.18161,2.89896-5.22813,5.36588-.05053.1191-.15624.2135-.2223.32748-.37881.65343-.8536,1.27292-1.10763,1.97229-.46131,1.27007-.87482,2.57013-1.15677,3.89005-.55433,2.59488-.87248,5.22683-.87295,7.88753-.00039,2.18664.01729,4.37329.01896,6.55994.00328,4.2736.00095,8.54721.00095,12.82081-.02384.00002-.04771.00005-.07155.00007ZM231.50838,75.56246c-.0548,3.60732-.29526,7.21365-.52546,10.81576-.14352,2.24605-1.27752,3.3856-3.44815,3.69057-2.26239.31787-3.90378-.95807-4.12502-3.23321-.09294-.95559-.12271-1.91712-.19914-2.87454-.11836-1.48265-.27885-2.9625-.36597-4.44679-.0345-.58767.12516-1.18463.11751-1.77636-.02348-1.82069-.11739-3.64079-.122-5.46128-.00393-1.55474.08745-3.1095.11814-4.66462.0209-1.06038.13796-2.14089-.01976-3.17712-.19193-1.26096-.0069-2.48635.00134-3.72887.03911-5.8962-.01027-11.79306.04261-17.68905.01568-1.74868.24738-3.49665.41248-5.24189.03996-.42261.17996-.84314.3227-1.24743.83364-2.36123,3.71741-3.4131,5.91185-2.16797.80717.458,1.30357,1.17156,1.4018,2.06348.2207,2.00442.48059,4.01634.50684,6.02805.06954,5.33549.0236,10.6725.0236,16.0089-.01012,0-.02022.00002-.03035.00002,0,5.7009.06354,11.40276-.02302,17.10234ZM256.29598,35.88228c-.07233.23597-.29789.47585-.52218.58803-.08372.04187-.51203-.30259-.4902-.41296.05169-.26125.27887-.48777.55833-.918.24352.37875.49603.60598.45405.74293ZM227.15642,121.26713c-.38289.06184-.62704-.14883-.66574-.52608-.00915-.08897.19982-.29704.26185-.28006.28553.07813.55454.21652.99813.40492-.315.21968-.44388.37692-.59424.40122ZM239.47272,51.01122c-.19038-.05451-.32828-.29209-.48831-.45254.15493-.13303.30466-.36284.46624-.3715.15743-.00843.327.2094.59538.40305-.26198.20261-.45835.45391-.57331.42099ZM210.85139,127.99698c.01828.12113-.18435.27557-.2882.41511-.14296-.14976-.34268-.27887-.40743-.45705-.03831-.10547.1366-.28842.28655-.56944.19785.27816.38218.4329.40909.61138ZM202.88773,100.22815c.02287.04363-.12735.17803-.19773.27056-.2073-.20894-.43154-.40485-.60934-.63643-.04193-.05462.07252-.22942.11504-.34895l.26484.07827c.14687.20984.30922.41155.4272.63655ZM245.53537,72.83758c-.08367.02515-.22903-.15479-.34657-.2423.12773-.15289.24105-.32473.39554-.44245.03052-.02325.21968.16175.40246.30192-.1871.16934-.3008.33752-.45143.38283ZM247.91852,77.81857c-.12815.07466-.25625.20619-.38442.20627-.10535.00005-.21079-.15601-.31619-.24288.11732-.08249.23464-.16498.39925-.28074.11895.12526.21014.22131.30136.31736ZM249.03082,23.67761c-.10455-.09769-.28713-.19059-.29347-.29428-.0076-.12391.13558-.25704.21347-.38617.11598.07535.23197.1507.39843.25883-.1372.18167-.22781.30164-.31843.42162ZM221.30545,115.43791c.13762.06906.22825.23166.33931.35364-.12069.01445-.25625.07047-.35871.03387-.16483-.05887-.30784-.17888-.66494-.39984.39381,0,.56586-.04714.68434.01232ZM200.46558,87.76078c-.13101-.06875-.24877-.18223-.33268-.30529-.01736-.02544.1617-.24931.19946-.23615.13402.04674.2461.15643.43669.29233-.14422.12198-.26717.26816-.30347.24912ZM220.13942,115.01994c-.14065-.11835-.26285-.25867-.39078-.39215.06228-.05718.16508-.17306.18054-.16241.15005.10353.28545.22828.47321.38791-.13126.08506-.24449.18217-.26297.16664ZM257.71451,31.73739c-.0833-.00957-.17343-.14539-.21359-.24487-.01401-.03472.11241-.17975.17379-.17917.10117.00095.20162.07939.4018.17036-.18219.13541-.27997.26311-.36201.25367ZM206.22726,63.82052c.07782-.08347.15563-.16695.23342-.25044.05939.06371.16857.12999.16546.19051-.00381.07417-.10156.14352-.17904.24039-.0876-.0719-.15371-.12617-.21985-.18046ZM247.95667,38.21068c-.03399-.10333-.09979-.20956-.09073-.30896.00597-.06521.15481-.18285.17952-.16908.08697.04847.14796.14361.26996.27696-.16763.09394-.26319.14751-.35875.20108ZM224.18007,118.13141c-.06577-.06038-.11751-.13601-.17396-.20655.04387-.02603.11205-.08421.12747-.07257.07073.05335.12669.12625.19149.19595-.06203.03656-.1341.09316-.145.08317ZM209.66184,104.60519c-.02787-.06713-.05575-.13428-.08362-.20144l.15107-.05823.05769.15245c-.04179.03592-.08347.07158-.12514.10722ZM204.37327,30.94326c-.0244-.06708-.0488-.13416-.0732-.20123.05451-.00237.12227-.02536.15981-.00127.0372.02387.04397.09519.0641.14569-.05038.01922-.10054.03802-.1507.05682ZM324.81316,115.98059c-.04662-.316-.12407-.6343-.23782-.93227-.434-1.13446-.86933-1.24912-1.79462-.4808-.14956.12413-.30289.2828-.37196.45797-.35497.89883-.87212,1.62139-1.82873,1.96992-.1231.04486-.19193.32923-.21827.51242-.01481.10052.11217.22137.17578.33281.06216.00498.13961.03672.18392.01105.61634-.35746,1.33428-.61955,1.81368-1.11261.5787-.59491,1.05774-.65294,1.75092-.29621.54605.28116.62398.19351.52711-.46228ZM324.61856,119.24831c-.47381-.00067-.39345.43042-.36698.7262.01141.12431.2831.35029.33409.32486.25384-.12625.47333-.32098.79661-.55922-.3506-.23654-.55673-.4916-.76371-.49184ZM321.19842,114.55544c.0193-.37299-.58914-.93082-.87406-.79576-.04662.02209-.10707.1288-.09481.14434.22289.28389.45221.56316.69743.82763.0125.01366.1776-.11387.27145-.17621ZM315.51944,108.58292c-.02841-.11861-.01687-.28425-.09202-.34799-.38386-.32559-.84104-.32085-1.2981-.20103-.05463.01432-.10586.26665-.09554.27145.39964.18428.80244.36431,1.21738.50902.0556.01948.17724-.14932.26829-.23144ZM318.95378,117.01751c-.69937.35193-1.38442.73482-2.05211,1.14284-.11703.07138-.21876.39072-.15806.47812.09178.13269.37026.26726.50307.21888.72304-.26374,1.42934-.57476,2.13004-.89415.08971-.04097.11387-.22586.16801-.3441.07952-.29912-.32389-.73597-.59096-.60159ZM318.03638,114.17225c-.09967-.02434-.22289.04965-.33651.08261.03363.10398.04819.28097.10501.29572.0976.02555.22179-.05002.33542-.08395-.03338-.10355-.04856-.28097-.10392-.29439ZM306.70476,113.62141c-.03351.05172-.10707.11794-.09433.15296.13026.36055.2712.71752.4221,1.07.01299.03059.12662.04528.17688.02519.0505-.02009.1237-.11059.11193-.14009-.1424-.35418-.29512-.70429-.45633-1.05033-.017-.03624-.10513-.03927-.16024-.05772ZM313.33307,113.20854c-.00801-.09779-.13779-.18543-.21196-.27776-.08874.08613-.22119.15672-.25846.26119-.10999.30853-.21487.62599-.2587.94842-.03399.25081-.01323.52614.05827.76826.04977.16729.22774.29657.34817.4428.10756-.1251.28019-.23715.30835-.37809.05062-.25239.01432-.52213.01432-.78465h.0102c0-.32698.01663-.65543-.0102-.98016ZM315.28478,116.79165c.02392.11618-.03921.25099-.0647.37658-.05487.26835-.74295.38963-.29087.71965.42562.31066.64389-.1509.84651-.49979.15624-.26896.41724-.4757.58696-.7387.08886-.13785.08219-.33749.11873-.50914-.12358-.02039-.24717-.04067-.36007-.05924-.43606.06033-.99109-.03672-.83655.71066ZM319.59816,99.54475c-.35254.49039-.6621,1.04038-.14325,1.6467.03059.03575-.12043.31843-.24037.37664-.65798.3197-2.20701,1.49161-2.55251,2.00707-.1044.15563-.23624.40875-.17845.53901.48802,1.10332-.54095,1.68039-.8493,2.49885-.10877.28868-.43388.25487-.66914.06458-.15442-.12486-.25542-.33427-.42416-.41767-.14519-.07193-.50623-.04304-.50987-.01833-.17918,1.16026-1.34023.58841-1.88191,1.08129-.14009.12735-.34525.28261-.34987.43029-.00413.13639.19788.31685.35011.4116.23041.14349.75898.02118.38726.59333-.17263.26507-.22677.61045-.31539.92481-.03181.11247-.00704.24079-.00826.36189.16534-.06294.34428-.10386.49117-.1963.10659-.06713.16947-.20304.25299-.30738.24085-.29985.53803-.38793.87455-.18622.45451.27236.90417.55527,1.33634.86095.07842.05548.10853.25281.08037.36425-.02598.10337-.1872.27029-.24231.25384-.68395-.20413-1.13288.07551-1.44827.65798-.36201.66805-1.14745.55036-1.68888.891-.05803.03636-.37415-.18343-.43363-.33724-.11557-.29876-.1855-.63606-.18015-.95576.00801-.46501.20419-.94733.12553-1.38745-.07745-.43333-.33943-.87109-.62544-1.22102-.42271-.51703-.83546-.05821-1.23121.13524-.71625.35017-1.42982.70575-2.14243,1.06271-.11557.05791-.24571.21542-.32874.19084-1.3582-.40274-2.41945.57154-3.64436.77124-.19351.0315-.37585.1461-.56863.16292-1.25938.10993-2.51949.21518-3.78105.29809-.7937.05226-1.59007.06792-2.38595.08983-.33336.0091-.67084-.03879-1.00202-.0085-.15539.0142-.30981.01639-.46495.0278l-.62714-.00953c-1.57331.0031-3.14833-.04565-4.72297-.08929-.13232-.00364-.26598-.01074-.39612-.03284-2.52519-.42811-5.09506-.68505-7.56526-1.32578-4.83442-1.25404-9.33014-3.2577-12.84678-6.97284-3.61401-3.81802-5.78581-8.35562-6.60767-13.54658-.80147-5.06283-.79503-10.16699-.80244-15.27085-.00267-1.85629-.00049-3.71264-.00049-5.56899h.01311c0-5.07175-.00631-10.1435.0102-15.21519.00158-.48474.14811-.96875.22325-1.45374.02986-.19284.09894-.39655.06531-.57973-.39199-2.14018-.19375-4.27538.0539-6.40676.23272-2.00306.42926-4.0151.78277-5.99801.37208-2.08682.94314-4.12758,1.92136-6.03947,1.35783-2.65339,2.79227-5.25093,5.04334-7.27281,1.22976-1.1046,2.47433-2.18856,4.09741-2.74747.67181-.23132,1.23886-.75297,1.87632-1.10083,1.96446-1.07194,4.10154-1.61374,6.24906-2.20397,1.61774-.44462,3.28211-.34762,4.87387-.81476.45451-.13342,1.03322-.14847,1.46503.017.65093.24947,1.18545.0641,1.8081-.0349,1.0944-.17402,2.22473-.13263,3.3405-.1549.36019-.00716.72826.13141,1.08238.09724,1.4155-.13663,2.81557-.06294,4.20558.10634.38046.04637.76019.09985,1.13932.15812l.31745.09766c.27339.03205.54653.07156.81992.09603,2.08343.18616,3.91386,1.14326,5.86035,1.74715.56304.17463,1.16056.37482,1.73162.34604.51813-.0261.73324.09396.84808.55958.02695.10956.18355.28328.25469.27151.98575-.16298,1.38588.67285,1.99262,1.14715.94569.73889,2.20191.94575,3.07549,1.80549.44796-.09445,1.35771,1.13349,1.41161,1.14964.92286.27624.69342,1.36281,1.30915,1.82952.99643.75534,1.49076,1.8762,2.11232,2.8963.62423,1.0249,1.13798,2.11651,1.74764,3.151.61306,1.04013.7767,2.21824,1.112,3.34274l.04904.16176c.05596.18738.1112.37494.16583.5628.39381,1.35419.75012,2.71973,1.011,4.09972.63479,3.35859.81895,6.7698.77209,10.19097-.01044.75443-.16583,1.36548-.95819,1.67158-.17469.06756-.41166.3733-.37524.49779.05973.20449.2922.4034.50016.51127.67776.35151.81713.5764.72596,1.31589-.04844.3929-.10744.78745-.11314,1.18193-.00874.61263.03909,1.19649-.78799,1.38527-.18003.04109-.42137.57093-.35521.792.20298.67825-.02901,1.21628-.29099,1.803-.4346.97318-.45391,1.30885.43412,1.8223.68905.39837.74441,1.14666.75242,1.8433.00595.51121-.36516.74526-.8561.78308-1.61617.12449-3.23075.2811-4.84911.35648-.5798.02707-1.16736-.15436-1.75407-.21591-.28747-.03017-.58332-.02731-.87127.00182-.71697.0726-1.43006.18507-2.14752.24965-.43655.03927-.77646-.0848-.83254-.62241-.01627-.15648-.21123-.29439-.32413-.44079-.13062.12267-.34708.22756-.37682.37111-.12237.59036-.5282.71619-1.03188.70902-3.14663-.04467-6.29277-.10944-9.43939-.13396-1.48566-.01159-2.97194.05687-4.45796.07939-2.2535.03411-4.50701.05924-6.76063.08923-1.28499.01712-1.29993.02501-1.30187,1.26011-.00546,3.51045-.0085,7.02097-.00376,10.53143.00449,3.40733-.02901,6.81587.05341,10.22144.03508,1.44761.25833,2.90061.51266,4.33037.28698,1.61356,1.4172,2.45108,2.97667,2.61703.80547.08571,1.66023.00303,2.45539-.17287,1.38952-.30738,2.33096-1.1744,2.77236-2.57096.55515-1.75668.78168-3.56527.80523-5.3889.05694-4.37456.05014-8.74998.06932-13.12502.00097-.23205-.00765-.46489.0085-.69591.05888-.84086.24802-1.05203,1.09998-1.06004,1.8887-.01772,3.77765.00437,5.66648.00036,3.61206-.00759,7.22413-.03751,10.83607-.01912.64316.00328,1.28414.20522,1.92901.29439.21779.03011.46204.04819.66453-.01845,1.75262-.57706,3.47003-.1492,5.18174.18835.52262.10307.53014.5991.49858,1.05555-.04989.72007-.11278,1.44196-.10768,2.16264.0153,2.11693.10112,4.23405.08134,6.35037-.00971,1.03103-.12771,2.7139-.17506,3.09157-.04759.37767-.12771.63266-.20371,1.00912s-.37099,3.5436-.56887,5.31406c-.03545.31903-.17578.63084-.29597.93488-.17093.43381-.50768.85227-.52419,1.28651-.03011.80996-.45597,1.33689-.93136,1.90151-.29621.35157-.48778.79613-.69901,1.2127-.19108.37615-.26295.75194.09275,1.10818.0539.05396-.0942.4085-.09833.40753-.90126-.21081-1.13944.55218-1.50533,1.06077ZM322.66709,75.41922c.13876.09766.27387.26641.41736.27387.15794.00813.32352-.13202.64875-.2834-.29742-.12158-.44092-.23551-.56596-.21803-.17384.02428-.33409.14701-.50016.22756ZM322.20214,83.25671c.00631.04413.12091.11891.13973.10677.06786-.0437.11581-.11842.17129-.18143-.06628-.0576-.13257-.11521-.24692-.21469-.03351.13463-.07466.21572-.0641.28935ZM320.23987,60.28743c.01602.17281.39903.31169.6876.51806.25821-.19873.46155-.35539.66502-.51199-.21852-.14489-.42125-.36607-.65943-.41548-.30179-.06252-.73518-.04558-.69318.40941ZM315.92746,55.33052c-.04212.34216.17348.5523.53476.53943.3756-.01341.69269-.21275.60007-.59163-.07114-.29099-.37427-.52529-.74089-1.00098-.20128.51849-.36007.77816-.39394,1.05319ZM315.40824,59.31886c-.01068.01238.24947.30774.27327.29299.29997-.18537.57967-.40353.9537-.6791-.25603-.22313-.44395-.40753-.45743-.39563-.27314.24304-.53063.50489-.76954.78174ZM313.5341,54.78296c-.02598.08437.19375.24474.30155.37051.16996-.16741.33991-.33481.56814-.55958-.22604-.18635-.36007-.29676-.49409-.40717-.13257.19648-.30859.37949-.3756.59624ZM312.76469,60.23481c-.18889-.11314-.31175-.18665-.43448-.26022-.05864.09955-.18938.23782-.16097.29057.06264.11654.19581.21287.32183.26592.03448.01445.14592-.15424.27363-.29627ZM312.05779,36.59505c-.00425.00413.02646.04334.04103.06622.038-.02816.07599-.05633.11375-.08486-.01469-.02307-.02938-.04613-.04395-.0692-.03788.02847-.07769.05487-.11084.08783ZM312.25154,47.90906c.15915.24073.39345.43861.62034.62459.0868.07126.28516.11964.35679.06968.10574-.07369.14373-.24468.17481-.30495-.04941-.35448-.01493-.65834-.14119-.86308-.13269-.21493-.40061-.40784-.64523-.47072-.16279-.04188-.52237.12868-.55479.26228-.04953.20358.06118.48838.18926.68219ZM312.85549,52.07828c-.09081.10974-.21597.20814-.25761.33415-.01942.05864.1231.17081.25081.33318.10246-.18276.20832-.2868.20079-.38173-.00801-.09973-.1248-.19072-.19399-.28559ZM311.81511,56.13764c-.07502.47297.37658.5648.72741.52832.22531-.02343.42975-.24656.85852-.5146-.43679-.23964-.67133-.47727-.86945-.4502-.26562.0363-.68662.24838-.71649.43649ZM311.29541,34.01341c.10185.04807.20067.12243.30641.13378.05791.00619.1271-.09396.2706-.21069-.19436-.05099-.30374-.10598-.40741-.09688-.06118.00534-.11339.11247-.16959.17378ZM310.92199,40.91959c.07175.21317.23005.39721.35351.59291.14046-.09548.28104-.19102.54447-.37014-.28771-.24055-.49032-.41008-.69306-.57961-.07393.12085-.23393.27066-.20492.35685ZM310.04878,39.54094c-.01724.08383.18525.28146.30835.30277.0925.01609.28504-.14744.31794-.26361.07976-.28189.09214-.58277.14895-1.00323-.01275-.02282-.08304-.14841-.15333-.27406-.09821.07557-.24401.13105-.28613.23041-.13839.32607-.26513.66277-.33579,1.00772ZM310.0143,57.05024c-.03156.04819.08498.19345.13414.29451.14968-.08231.29949-.16462.53111-.29196-.15818-.13336-.2661-.27873-.32243-.26094-.13184.04158-.26707.14301-.34283.25839ZM307.8527,58.65627c-.12917.17894-.28006.32377-.25566.3651.11897.20152.29755.54022.43169.52978.51448-.04012.89312.11666,1.22393.49251.05269.05979.22289.01627.33858.02052-.00473-.09378.02707-.24085-.01991-.27314-.55115-.37852-1.11419-.7398-1.71863-1.13476ZM307.02039,53.06354c.12832.16128.25663.32261.4913.61761.21767-.29651.39248-.46853.46568-.67643.021-.05942-.27982-.33858-.38495-.31369-.20844.04929-.38337.24012-.57203.37251ZM306.77153,57.27641c.00134.04474.059.08783.09178.13166.0261-.05348.07332-.10738.07199-.16018-.00109-.04443-.05839-.08753-.09178-.13099-.0261.05323-.07357.10713-.07199.15952ZM305.29145,50.57447c.3166.2658.62641.54083.96001.78308.03302.02398.21147-.15241.28237-.20553-.02027-.4936-.47479-.90356-.88669-.84274-.12868.01906-.2377.17299-.3557.26519ZM305.02607,55.19219c.18841.14835.36444.40055.56778.42526.58332.07071.57579-.39048.60153-.97258-.04977-.07223-.18003-.26161-.31029-.45099-.28638.33281-.57263.66556-.85901.99831ZM304.06788,52.96266c-.00619.13372.16984.37257.29038.38884.1248.01681.27824-.17839.49105-.33312-.18367-.17129-.30811-.37755-.43169-.37712-.12528.00042-.34416.20067-.34975.3214ZM303.19127,49.47485c.01093.23915.01748.48353.08037.71048.01105.03994.33627.06671.43679-.00783.19132-.14185.3251-.36122.46641-.52899-.13305-.30896-.26683-.51175-.30447-.731-.06337-.3696-.08085-.74939-.08765-1.12542-.00364-.19672.05657-.3946.08789-.59193-.18744.11345-.45354.1844-.54325.3506-.12516.23193-.14774.53348-.16134.8079-.01845.37075.00826.74429.02525,1.11619ZM301.89584,57.8054c.02683.46641,1.12997,1.43607,1.69799,1.45143.04455-.03181.19132-.08322.22968-.17839.04091-.10137.02392-.28255-.04492-.36237-.38374-.44486-.77488-.88651-1.20147-1.28888-.10343-.09754-.37257-.09864-.52335-.0383-.09603.03848-.16607.2743-.15794.41652ZM301.05249,53.242c.04492.18349.19873.34034.30714.50829.0925-.10986.18489-.21979.33518-.39843-.1594-.17888-.29135-.32717-.42331-.47545-.07915.12334-.24292.26744-.219.36559ZM263.72394,71.51592c-.11144-.09269-.17445-.18149-.25141-.19581-.04759-.00886-.1163.09548-.17542.14902.06458.06216.12043.15363.19691.17615.05026.01487.1299-.06938.22993-.12935ZM266.7074,36.36542c-.29172-.2292-.48365-.41233-.7092-.53221-.0505-.02677-.21888.1685-.33312.26155.18307.20128.35497.41585.56146.58926.03011.02525.22519-.1458.48086-.31861ZM268.0134,83.29993c-.07162-.05196-.15757-.15824-.21196-.14404-.10064.02622-.18282.12298-.27278.19035.06592.05791.13196.11575.24692.21657.09008-.09955.16389-.18125.23782-.26289ZM271.12725,57.54925c-.00777-.17275-.09238-.34204-.18161-.62471-.15915.17973-.31114.28104-.29767.35005.03326.17075.14228.32668.22094.48856.09129-.07156.26149-.14665.25833-.2139ZM272.24289,46.48203c-.16777-.1912-.26829-.40195-.40729-.43157-.10112-.02161-.25311.19618-.38252.3072.12091.13493.22204.30799.37245.38647.06191.03229.22993-.13894.41736-.2621ZM275.67468,54.42672c-.0346-.09718-.13075-.17245-.20188-.25663-.06216.06137-.17967.12838-.17408.1827.0102.09851.09372.18938.177.3373.10464-.13299.21427-.2204.19897-.26337ZM277.52854,48.36983c-.45111-.01044-.55904.40523-.55746.77828.00085.18374.14738.3668.32413.76954.32668-.43509.6116-.67728.68808-.97331.03958-.15302-.28686-.57063-.45476-.57451ZM276.97048,42.74505c.02986.10143.10598.24577.18537.26082.08498.01609.19424-.09566.38944-.20638-.19072-.11144-.28334-.19891-.38592-.21263-.05876-.00789-.19921.12322-.18889.15818ZM277.18341,98.83676c-.01615-.02124-.02901-.05518-.04929-.06027-.02222-.00558-.05123.0153-.07733.0247.0017.02677.00352.05354.00522.08037.04043-.01493.08097-.02986.1214-.0448ZM277.34232,89.95191c.0556.02932.24559-.19636.45476-.37378-.23381-.1855-.38107-.34865-.56401-.41797-.05147-.01955-.32049.27612-.29184.35752.06191.17597.23187.34513.4011.43424ZM277.7229,94.23415c.18525-.03199.35157-.17445.64486-.33791-.26768-.18234-.45051-.38635-.54083-.35139-.17117.06628-.28929.26962-.4295.41603.10962.0976.23539.28874.32547.27327ZM278.57123,102.43395c-.18938-.12225-.30337-.22871-.43545-.26155-.0414-.01026-.20978.21706-.18452.26792.05948.11885.1895.22556.31539.27545.04467.01766.16024-.14361.30459-.28182ZM279.35169,105.84613c.02914-.05396-.16328-.22695-.33591-.45184-.16753.25785-.31648.419-.37111.60747-.01967.06774.18792.20128.29172.30483.14458-.15017.32013-.28371.4153-.46046ZM283.87242,66.10869c-.19302-.16304-.34441-.38744-.459-.36996-.37038.05657-.86119.08983-1.06514.33342-.71163.85045-1.33489,1.7769-1.95984,2.69618-.11533.16965-.10865.4411-.10392.66435.00182.08735.1407.19958.24195.24486.04904.02191.18732-.06586.2292-.137.0817-.13918.09263-.32583.18817-.45032.69949-.91139.86168-2.3176,2.33957-2.5258.18829-.02653.34708-.26155.58902-.45573ZM284.09761,83.19759l-.05305.02592.05208.0278.00097-.05372ZM285.82534,84.03056c-.00267-.12334-.13584-.24395-.27849-.47333-.12273.24292-.26586.39594-.23648.49985.0403.14173.2122.24613.32777.3665.06762-.13111.18987-.26343.1872-.39302ZM291.90955,60.48986c-.12747-.11211-.19569-.22052-.25324-.21506-.44832.04279-.89931.08619-1.33659.18622-.07357.01681-.08425.30768-.12407.47193.24498.03411.51473.14889.7296.08352.32972-.1004.6218-.32468.98429-.52662ZM294.49252,52.52509c-.04929-.15903-.18707-.29063-.49057-.70629-.10234.27618-.2326.44954-.19509.57105.04771.15442.21293.30635.36565.37791.06118.02865.33518-.19399.32-.24267ZM297.04212,54.9843c-.15891-.08735-.24498-.17372-.30653-.15879-.07818.01888-.1736.11175-.19059.18847-.01153.05208.11618.19557.15126.1861.10234-.0278.1895-.11175.34586-.21578ZM299.62752,37.07433c-.04285.07053.24887.4757.31539.45791.24607-.06598.46204-.24449.80693-.45123-.25603-.25755-.47102-.55212-.53342-.52268-.23175.10926-.45682.29864-.5889.516ZM298.61725,61.73303c.01797.12024.14131.22471.21985.33591.06628-.09912.13244-.19818.22677-.33931-.09469-.10361-.16935-.18543-.24413-.2672-.07284.09099-.21427.19229-.20249.2706ZM292.76904,20.82981c.08971.07399.17348.19636.27096.20844.09785.01214.20929-.08559.43388-.19108-.21147-.11885-.316-.22635-.40668-.21584-.10574.01226-.19933.12777-.29815.19849ZM288.99649,50.82783c-.00765.71679.41979.81943.95989.82107,2.15177.00637,4.30391.02392,6.45544-.00486.8442-.01129.86909-.14313.9679-1.03091.23697-2.12768-.04856-4.27411.25712-6.3979.02246-.15581-.05329-.32377-.06993-.48741-.11326-1.11249-.2377-2.22413-.32535-3.33868-.02901-.3696-.0017-.75273.58659-.66338.13694.02076.31381-.2227.47236-.34459-.11776-.13754-.23782-.39539-.3529-.39321-.81191.01548-.82186-.57512-.96511-1.12979-.24644-.9551-.52759-1.90388-.85124-2.83542-.18428-.53014-.58259-.85555-1.19868-.88414-.45998-.02137-.91437-.16194-1.37446-.18416-2.94098-.14216-4.15143.94648-4.32564,3.87975-.12164,2.04731-.22993,4.09541-.34404,6.14314.03909.00121.07806.00237.11703.00358,0,2.28234.01542,4.56485-.00898,6.84689ZM291.27852,108.64532c.00134-.06829-.08911-.13821-.16704-.24486-.07345.09882-.16753.17075-.15964.22871.00959.07059.10525.12941.16377.19333.05827-.059.16194-.11715.16292-.17718ZM300.27627,105.57402c-.04637-.00668-.09275-.01602-.13912-.01639-.00546-.00006-.01129.04917-.017.07551.04613.0068.09226.01366.13839.01997.00583-.02634.01178-.05275.01772-.07909ZM307.63455,108.36975c-.04637-.00649-.09275-.01554-.13924-.0159-.00522,0-.01093.04898-.01627.07521.04613.00662.09226.01323.13851.01936.00571-.02622.01129-.05244.017-.07867ZM308.05798,83.54309c-.13269-.1892-.33518-.32953-.51084-.48863-.06033.13894-.19873.30319-.16364.41123.05912.18264.22811.32978.43472.60262.13111-.27521.28067-.46702.23976-.52523ZM315.63999,84.99209c-.11824-.08395-.22762-.20625-.35824-.23648-.0709-.01639-.17797.12389-.35108.25657.21997.11059.34793.21518.48341.22622.06823.00552.15017-.15879.22592-.24632ZM318.05677,79.94966c-.02246-.20723-.18744-.39903-.38216-.76353-.2377.3214-.48158.52814-.44371.62562.07721.19927.29196.36207.48535.48389.0346.02185.35217-.23776.34052-.34598Z"/>
    </g>
  </g>
</svg>