<?xml version="1.0" encoding="UTF-8"?>
<svg id="b" data-name="Sex, Camp, Rock &amp;apos;N Roll" xmlns="http://www.w3.org/2000/svg" viewBox="0 0 697.73745 103.43776">
  <defs>
    <style>
      .d {
        stroke: #e93576;
        stroke-width: 8px;
      }

      .d, .e {
        fill: none;
        stroke-linecap: round;
        stroke-linejoin: round;
      }

      .e {
        stroke: #aa223e;
        stroke-width: 15px;
      }

      .f {
        fill: #f1a3b3;
      }

      .f, .g {
        stroke-width: 0px;
      }

      .g {
        fill: #f6e3ef;
      }
    </style>
  </defs>
  <g>
    <g>
      <path class="e" d="M10.18266,35.93221c0-3.91895,2.99902-6.87891,10.59766-6.87891.83984,0,1.63965.04004,2.59961.16016v-2.43945c-1.87988,1.08008-4.0791,1.59961-5.83887,1.59961-3.59961,0-5.43945-1.7998-5.43945-5.11914,0-1.28027.16016-2.75977.95996-4.71875,1.40039.35938,2.59961.51953,4.7998.51953,4.03906,0,7.07812-1,10.59766-1,5.31934,0,7.95898,2.47949,7.95898,7.19922,0,1.63965-.40039,3.59863-.40039,4.79883,0,.83984.44043,1.31934,1.24023,1.31934.35938,0,1-.11914,1.43945-.39941.36035,1,.52051,1.95996.52051,2.87988,0,4.3584-3.63965,7.87793-8.59863,7.87793-4.08008,0-6.2793-2.15918-6.03906-4.95898h-.7998c-.87988,3.39941-3.7998,4.95898-7.0791,4.95898-3.99902,0-6.51855-2.55957-6.51855-5.79883ZM23.37992,34.45272v-3.35938h-.59961c-.91992.67969-1.28027,1.7998-1.28027,2.51953,0,.83984.48047,1.19922,1,1.19922.32031,0,.71973-.15918.87988-.35938Z"/>
      <path class="e" d="M88.77543,32.77303c0-1.43945.15918-3.08008.51953-4.75977-.2002-.11914-.43945-.19922-.63965-.19922-1.04004,0-1.71973.91992-1.71973,4.0791v9.27832h-13.3584l.16016-13.11816c-.23926-.15918-.63965-.23926-.83984-.23926-1.03906,0-1.71973.91992-1.71973,4.0791v9.27832h-13.55762l.40039-10.03809c.19922-5.19922-.52051-8.43848-1.2002-10.79883,1.95996-1.39941,4.43945-2.15918,7.03906-2.15918,4.31934,0,6.91895,2.08008,6.75879,6.2793h.7998c1.16016-3.7998,4.23926-6.2793,8.75879-6.2793,4.43945,0,6.31836,2.75977,6.51855,6.2793h.7998c.83984-3.7998,3.91992-6.2793,8.27832-6.2793,4.63965,0,7.15918,3.11914,6.67969,8.19824l-.32031,3.43945c-.12012,1.16016.47949,1.55957,1.35938,1.55957.36035,0,1-.11914,1.44043-.39941.35938,1,.51953,1.95996.51953,2.87988,0,4.3584-3.63965,7.87793-8.87793,7.87793-5.19922,0-7.79883-2.95898-7.79883-8.95801Z"/>
      <path class="e" d="M106.74028,33.5328l.32031-3.59961c.31934-3.59961-.36035-7.23828-1.24023-9.63867,1.91992-1.35938,4.23926-2.11914,6.99902-2.11914,5.11914,0,7.71875,2.95898,7.71875,8.95801,0,2.2002-.16016,3.08008-.52051,4.75977.2002.12012.44043.2002.64062.2002,1.03906,0,1.87988-1.32031,1.7998-4.87988l-.16016-7.67871c2.03906-.91992,4.35938-1.35938,6.95898-1.35938,4.59863,0,6.71875,1.7998,7.59863,4.83887-.40039,1.08008-1.12012,1.83984-1.40039,2.08008l-.19922,4.71875c-.04004,1.16016.47949,1.55957,1.35938,1.55957.36035,0,1-.11914,1.43945-.39941.36035,1,.52051,1.95996.52051,2.87988,0,4.3584-3.63965,7.87793-8.99902,7.87793-4.19922,0-6.79883-2.0791-6.23828-6.27832h-.7998c-1.56055,3.79883-4.63965,6.27832-8.59863,6.27832-5.15918,0-7.63867-3.11914-7.19922-8.19824Z"/>
      <path class="e" d="M139.46,35.41268c0-1.63965.52051-2.91992,1.44043-3.7998,2.55957,2.39941,6.87891,3.39941,8.75781,3.39941.64062,0,1.2002-.12012,1.2002-.55957,0-.32031-.47949-.40039-1.43945-.63965l-3.67969-1c-4.2793-1.16016-5.75879-3.67969-5.75879-6.71875,0-4.59961,3.79883-7.91895,12.39746-7.91895,3.7998,0,7.43848.59961,9.75879.36035.63965,1.19922.83984,2.91895.83984,3.79883,0,2.39941-1.12012,4.43945-4.03906,4.43945-2.04004,0-3.95996-.95996-6.31934-2.43945-.32031.2793-.40039.59961-.40039,1,0,.55957.56055.99902,1.7998,1.31934l3.67969.95996c3.63965.95996,5.71875,2.87988,5.71875,6.31836,0,4.75977-3.91895,7.79883-12.35742,7.79883-7.67871,0-11.59863-2.43945-11.59863-6.31836Z"/>
      <path class="e" d="M163.10063,15.0162c0-3.75977,2.12012-5.35938,5.95898-5.35938,1.83984,0,4.47949.59961,6.91895.59961.7998,0,1.83984-.2002,2.75977-.47949.39941.95996.55957,1.91992.55957,3.03906,0,2.95996-1.12012,3.95996-3.83887,3.95996-.68066,0-2.2002-.12012-4.47949-.12012-3.08008,0-6.0791.67969-7.47852,1.55957-.24023-1.04004-.40039-2.12012-.40039-3.19922ZM164.78031,32.97323l.32031-3.47949c.31934-3.55957-.60059-6.79883-1.2002-9.15918,1.75977-1.39941,4.47949-2.15918,7.47852-2.15918,4.91992,0,7.83887,2.43945,7.43945,7.3584l-.36035,4.31934c-.08008,1.16016.36035,1.51953,1.24023,1.51953.35938,0,.99902-.11914,1.43945-.39941.28027.71973.51953,1.95996.51953,2.87988,0,4.3584-3.63867,7.87793-9.1582,7.87793-5.19922,0-8.23828-2.95898-7.71875-8.75781Z"/>
      <path class="e" d="M182.5391,30.5328c0-6.71875,5.11914-12.35742,13.91797-12.35742,2.51953,0,6.51855.67969,8.83887.39941.63965,1.32031.83984,3.2002.83984,4.16016,0,2.83887-1.40039,4.67871-4.23926,4.67871-1.91992,0-3.71973-1.04004-5.83984-2.87891-.47949.7998-.47949,1.59961-.47949,2.15918,0,2.2793,1.63965,4.0791,5.11914,4.0791,1.7998,0,3.55957-.63965,4.87891-1.47949.56055,1.23926.83984,2.55957.83984,3.79883,0,4.71973-3.43945,8.63867-10.91797,8.63867-7.0791,0-12.95801-4.11914-12.95801-11.19824Z"/>
      <path class="e" d="M207.17973,35.93221c0-3.91895,2.99902-6.87891,10.59766-6.87891.83984,0,1.63965.04004,2.59961.16016v-2.43945c-1.87988,1.08008-4.0791,1.59961-5.83887,1.59961-3.59961,0-5.43945-1.7998-5.43945-5.11914,0-1.28027.16016-2.75977.95996-4.71875,1.40039.35938,2.59961.51953,4.7998.51953,4.03906,0,7.07812-1,10.59766-1,5.31934,0,7.95898,2.47949,7.95898,7.19922,0,1.63965-.40039,3.59863-.40039,4.79883,0,.83984.44043,1.31934,1.24023,1.31934.35938,0,1-.11914,1.43945-.39941.36035,1,.52051,1.95996.52051,2.87988,0,4.3584-3.63965,7.87793-8.59863,7.87793-4.08008,0-6.2793-2.15918-6.03906-4.95898h-.7998c-.87988,3.39941-3.7998,4.95898-7.0791,4.95898-3.99902,0-6.51855-2.55957-6.51855-5.79883ZM220.37699,34.45272v-3.35938h-.59961c-.91992.67969-1.28027,1.7998-1.28027,2.51953,0,.83984.48047,1.19922,1,1.19922.32031,0,.71973-.15918.87988-.35938Z"/>
      <path class="e" d="M237.49906,32.97323l.40039-5.39941c.43945-5.51953-.48047-10.39844-1.16016-12.75781,1.95996-1.39941,4.35938-2.16016,7.43848-2.16016,5.99902,0,8.15918,3,7.63867,8.99902l-.71973,8.19824c-.12012,1.16016.36035,1.51953,1.24023,1.51953.35938,0,1-.11914,1.43945-.39941.28027.71973.51953,1.95996.51953,2.87988,0,4.3584-3.63867,7.87793-9.1582,7.87793-5.19922,0-8.07812-2.95898-7.63867-8.75781Z"/>
      <path class="e" d="M272.57817,30.5328c0-6.71875,5.11914-12.35742,13.91797-12.35742,2.51953,0,6.51855.67969,8.83887.39941.63965,1.32031.83984,3.2002.83984,4.16016,0,2.83887-1.40039,4.67871-4.23926,4.67871-1.91992,0-3.71973-1.04004-5.83984-2.87891-.47949.7998-.47949,1.59961-.47949,2.15918,0,2.2793,1.63965,4.0791,5.11914,4.0791,1.7998,0,3.55957-.63965,4.87891-1.47949.56055,1.23926.83984,2.55957.83984,3.79883,0,4.71973-3.43945,8.63867-10.91797,8.63867-7.0791,0-12.95801-4.11914-12.95801-11.19824Z"/>
      <path class="e" d="M297.21977,35.93221c0-3.91895,2.99902-6.87891,10.59766-6.87891.83984,0,1.63965.04004,2.59961.16016v-2.43945c-1.87988,1.08008-4.0791,1.59961-5.83887,1.59961-3.59961,0-5.43945-1.7998-5.43945-5.11914,0-1.28027.16016-2.75977.95996-4.71875,1.40039.35938,2.59961.51953,4.7998.51953,4.03906,0,7.07812-1,10.59766-1,5.31934,0,7.95898,2.47949,7.95898,7.19922,0,1.63965-.40039,3.59863-.40039,4.79883,0,.83984.44043,1.31934,1.24023,1.31934.35938,0,1-.11914,1.43945-.39941.36035,1,.52051,1.95996.52051,2.87988,0,4.3584-3.63965,7.87793-8.59863,7.87793-4.08008,0-6.2793-2.15918-6.03906-4.95898h-.7998c-.87988,3.39941-3.7998,4.95898-7.0791,4.95898-3.99902,0-6.51855-2.55957-6.51855-5.79883ZM310.41703,34.45272v-3.35938h-.59961c-.91992.67969-1.28027,1.7998-1.28027,2.51953,0,.83984.48047,1.19922,1,1.19922.32031,0,.71973-.15918.87988-.35938Z"/>
      <path class="e" d="M326.65824,36.89217c.32031-1.08008.95996-1.83984,1.67969-2.59961l.16016-7.11914c.16016-6.75879-.51953-9.99805-1.2002-12.35742,1.95996-1.39941,4.35938-2.16016,7.43945-2.16016,4.71875,0,7.11816,2.04004,7.11816,6.71973,0,1.71973-.23926,2.95898-.67969,4.83887h.7998c1.24023-4.55957,3.71973-6.03906,6.87891-6.03906,4.47949,0,7.83887,4.0791,7.83887,11.59766,0,7.47949-3.99902,11.95801-9.47852,11.95801-3.0791,0-5.31934-1.19922-6.59863-3.03906h-.7998l-.67969,2.47949c-1.28027.40039-2.83984.55957-4.83984.55957-4.71875,0-6.83887-1.7998-7.63867-4.83887ZM341.01567,35.3326c1.71973-.2002,2.59961-2.24023,2.59961-4.2793,0-1.95996-.75977-3.23926-2.11914-3.23926h-.28027l-.2002,7.51855Z"/>
      <path class="e" d="M357.25785,35.93221c0-3.91895,2.99902-6.87891,10.59766-6.87891.83984,0,1.63965.04004,2.59961.16016v-2.43945c-1.87988,1.08008-4.0791,1.59961-5.83887,1.59961-3.59961,0-5.43945-1.7998-5.43945-5.11914,0-1.28027.16016-2.75977.95996-4.71875,1.40039.35938,2.59961.51953,4.7998.51953,4.03906,0,7.07812-1,10.59766-1,5.31934,0,7.95898,2.47949,7.95898,7.19922,0,1.63965-.40039,3.59863-.40039,4.79883,0,.83984.44043,1.31934,1.24023,1.31934.35938,0,1-.11914,1.43945-.39941.36035,1,.52051,1.95996.52051,2.87988,0,4.3584-3.63965,7.87793-8.59863,7.87793-4.08008,0-6.2793-2.15918-6.03906-4.95898h-.7998c-.87988,3.39941-3.7998,4.95898-7.0791,4.95898-3.99902,0-6.51855-2.55957-6.51855-5.79883ZM370.45512,34.45272v-3.35938h-.59961c-.91992.67969-1.28027,1.7998-1.28027,2.51953,0,.83984.48047,1.19922,1,1.19922.32031,0,.71973-.15918.87988-.35938Z"/>
      <path class="e" d="M387.65629,41.17147l.47949-9.63867c.2002-4.35938-.19922-7.71875-1.43945-11.59766,2.08008-1.16016,4.23926-1.75977,6.91895-1.75977,5.23926,0,6.35938,2.63965,5.87891,7.63867h1c0-5.39941,2.08008-7.75879,4.95898-7.75879,1.59961,0,2.91992.55957,4.39941.44043.87988,1.47949,1.59961,3.71875,1.59961,6.11816,0,3.59961-1.75977,7.19922-5.2793,7.19922-2.03906,0-3.55957-.63965-4.55859-2.15918h-.40039l.28027,11.51758h-13.83789Z"/>
      <path class="e" d="M411.73637,30.5328c0-9.03809,7.71875-12.39746,14.11816-12.39746,7.19824,0,11.35742,3.31934,11.35742,9.3584,0,.83984-.11914,1.75977-.2793,2.75977l-11.87793.39941c.59961,1.52051,1.99902,2.28027,4.55859,2.28027,1.7998,0,3.59961-.28027,5.99902-1.67969.64062.23926,1.28027,1.59961,1.28027,3.23926,0,3.19922-2.32031,7.55859-11.27832,7.55859-9.51855,0-13.87793-4.91895-13.87793-11.51855ZM424.65434,28.2535l3.0791-.43945c.36035-1.52051.04004-3.59961-1.19922-3.59961-.95996,0-1.87988,1.51953-1.87988,3.87891v.16016Z"/>
      <path class="e" d="M439.65629,31.13339c0-1.24023.16016-2.59961.47949-4.35938l-2.47949-.32031c1.12012-7.39844,7.11914-12.03809,15.55762-12.2373l-.24023,4.39844h.75977c1.40039,0,2.91992-.0791,4.39941-.35938.56055.47949,1.08008,1.91992,1.08008,3.63965,0,2.35938-1.28027,5.15918-4.31934,5.15918h-1.91992c-.08008.55957-.12012,1.03906-.12012,1.47949,0,1.87988.76074,2.47949,2.40039,2.47949.95898,0,2.0791-.36035,2.75879-1,.83984,1.28027,1.24023,2.63965,1.24023,3.95898,0,3.91992-3.47949,7.39941-9.59863,7.39941-5.91895,0-9.99805-3.19922-9.99805-10.23828Z"/>
      <path class="e" d="M480.45512,45.1705c1.32031-3.03906,1.48047-6.43848,1.67969-10.95801l.04004-.91992c-1.19922.04004-2.15918.2002-3.55859.60059-.56055-.7207-1.08008-2.24023-1.08008-4,0-2.39941,1.23926-5.0791,4.99902-5.11914l.16016-4.11914c.23926-5.39941,3.15918-7.99902,9.07812-7.99902,2.23926,0,6.83887.68066,8.91895.40039.7998,1.31934.95996,3.19922.95996,4.15918,0,2.83984-.83984,5.0791-3.75977,5.0791-1.87988,0-4.19922-.91992-7.03906-4.59863.91992,1.99902,1.87988,4.39844,2.71973,6.91797h1.59961c1.87988,0,3-.0791,4.87891-.47949.56055.59961,1.08008,2.04004,1.08008,3.75977,0,2.35938-1.2793,5.19824-4.2793,5.11914l-1.04004-.04004c.24023,1.55957.40039,2.99902.40039,4.31934,0,7.63867-3.67969,10.67773-8.95898,10.67773-2.83887,0-5.27832-.87988-6.79883-2.7998Z"/>
      <path class="e" d="M500.45512,35.93221c0-3.91895,2.99902-6.87891,10.59766-6.87891.83984,0,1.63965.04004,2.59961.16016v-2.43945c-1.87988,1.08008-4.0791,1.59961-5.83887,1.59961-3.59961,0-5.43945-1.7998-5.43945-5.11914,0-1.28027.16016-2.75977.95996-4.71875,1.40039.35938,2.59961.51953,4.7998.51953,4.03906,0,7.07812-1,10.59766-1,5.31934,0,7.95898,2.47949,7.95898,7.19922,0,1.63965-.40039,3.59863-.40039,4.79883,0,.83984.44043,1.31934,1.24023,1.31934.35938,0,1-.11914,1.43945-.39941.36035,1,.52051,1.95996.52051,2.87988,0,4.3584-3.63965,7.87793-8.59863,7.87793-4.08008,0-6.2793-2.15918-6.03906-4.95898h-.7998c-.87988,3.39941-3.7998,4.95898-7.0791,4.95898-3.99902,0-6.51855-2.55957-6.51855-5.79883ZM513.65238,34.45272v-3.35938h-.59961c-.91992.67969-1.28027,1.7998-1.28027,2.51953,0,.83984.48047,1.19922,1,1.19922.32031,0,.71973-.15918.87988-.35938Z"/>
      <path class="e" d="M546.21195,32.77303c0-1.43945.16016-3.08008.51953-4.75977-.19922-.11914-.43945-.19922-.63965-.19922-1.04004,0-1.71973.91992-1.71973,4.0791v9.27832h-13.67773l.40039-10.03809c.19922-5.19922-.52051-8.43848-1.2002-10.79883,1.95996-1.39941,4.43945-2.15918,7.03906-2.15918,4.43945,0,7.03906,2.08008,6.87891,6.2793h.7998c1.16016-3.7998,4.23926-6.2793,8.59863-6.2793,4.75879,0,7.27832,3.11914,6.79883,8.19824l-.32031,3.43945c-.12012,1.16016.48047,1.55957,1.36035,1.55957.35938,0,.99902-.11914,1.43945-.39941.36035,1,.51953,1.95996.51953,2.87988,0,4.3584-3.63867,7.87793-8.99805,7.87793-5.19922,0-7.79883-2.95898-7.79883-8.95801Z"/>
      <path class="e" d="M564.65336,31.13339c0-1.24023.16016-2.59961.47949-4.35938l-2.47949-.32031c1.12012-7.39844,7.11914-12.03809,15.55762-12.2373l-.24023,4.39844h.75977c1.40039,0,2.91992-.0791,4.39941-.35938.56055.47949,1.08008,1.91992,1.08008,3.63965,0,2.35938-1.28027,5.15918-4.31934,5.15918h-1.91992c-.08008.55957-.12012,1.03906-.12012,1.47949,0,1.87988.76074,2.47949,2.40039,2.47949.95898,0,2.0791-.36035,2.75879-1,.83984,1.28027,1.24023,2.63965,1.24023,3.95898,0,3.91992-3.47949,7.39941-9.59863,7.39941-5.91895,0-9.99805-3.19922-9.99805-10.23828Z"/>
      <path class="e" d="M585.13481,35.93221c0-3.91895,2.99902-6.87891,10.59766-6.87891.83984,0,1.63965.04004,2.59961.16016v-2.43945c-1.87988,1.08008-4.0791,1.59961-5.83887,1.59961-3.59961,0-5.43945-1.7998-5.43945-5.11914,0-1.28027.16016-2.75977.95996-4.71875,1.40039.35938,2.59961.51953,4.7998.51953,4.03906,0,7.07812-1,10.59766-1,5.31934,0,7.95898,2.47949,7.95898,7.19922,0,1.63965-.40039,3.59863-.40039,4.79883,0,.83984.44043,1.31934,1.24023,1.31934.35938,0,1-.11914,1.43945-.39941.36035,1,.52051,1.95996.52051,2.87988,0,4.3584-3.63965,7.87793-8.59863,7.87793-4.08008,0-6.2793-2.15918-6.03906-4.95898h-.7998c-.87988,3.39941-3.7998,4.95898-7.0791,4.95898-3.99902,0-6.51855-2.55957-6.51855-5.79883ZM598.33207,34.45272v-3.35938h-.59961c-.91992.67969-1.28027,1.7998-1.28027,2.51953,0,.83984.48047,1.19922,1,1.19922.32031,0,.71973-.15918.87988-.35938Z"/>
      <path class="e" d="M615.05375,35.41268c0-1.63965.52051-2.91992,1.44043-3.7998,2.55957,2.39941,6.87891,3.39941,8.75781,3.39941.64062,0,1.2002-.12012,1.2002-.55957,0-.32031-.47949-.40039-1.43945-.63965l-3.67969-1c-4.2793-1.16016-5.75879-3.67969-5.75879-6.71875,0-4.59961,3.79883-7.91895,12.39746-7.91895,3.7998,0,7.43848.59961,9.75879.36035.63965,1.19922.83984,2.91895.83984,3.79883,0,2.39941-1.12012,4.43945-4.03906,4.43945-2.04004,0-3.95996-.95996-6.31934-2.43945-.32031.2793-.40039.59961-.40039,1,0,.55957.56055.99902,1.7998,1.31934l3.67969.95996c3.63965.95996,5.71875,2.87988,5.71875,6.31836,0,4.75977-3.91895,7.79883-12.35742,7.79883-7.67871,0-11.59863-2.43945-11.59863-6.31836Z"/>
      <path class="e" d="M642.85356,41.61092c0-1.19922.28027-2.35938.87988-3.31934,1.7998.7998,4.23926,1.24023,6.11914,1.24023,5.31934,0,7.43848-2.2002,6.99902-6.63867h-.7998c-.71973,2.95898-3.24023,5.0791-6.99902,5.0791-5.95898,0-8.63867-3.12012-8.39844-8.19922l.12012-2.39941c.15918-2.7998-.16016-4.67871-1.04004-7.0791,1.91992-1.35938,4.23926-2.11914,6.99902-2.11914,4.71875,0,7.71875,2.39941,7.71875,7.19922,0,1.79883-.16016,2.67871-.52051,4.3584.2002.12012.44043.2002.63965.2002,1.04004,0,1.91992-.91992,1.7998-5.2793l-.15918-5.11914c2.03906-.91992,4.3584-1.35938,6.95801-1.35938,4.59961,0,6.71875,1.7998,7.59863,4.83887-.39941,1.08008-1.11914,1.83984-1.63965,2.36035l.32031,7.67871c.36035,9.03809-4.79883,14.91699-16.03711,14.91699-7.67871,0-10.55859-3.0791-10.55859-6.35938Z"/>
    </g>
    <g>
      <path class="e" d="M12.51176,78.34628c0-3.91895,2.99902-6.87891,10.59766-6.87891.83984,0,1.63965.04004,2.59961.16016v-2.43945c-1.87988,1.08008-4.0791,1.59961-5.83887,1.59961-3.59961,0-5.43945-1.7998-5.43945-5.11914,0-1.2793.16016-2.75977.95996-4.71875,1.40039.35938,2.59961.51953,4.7998.51953,4.03906,0,7.07812-1,10.59766-1,5.31934,0,7.95898,2.47949,7.95898,7.19922,0,1.63965-.40039,3.59863-.40039,4.79883,0,.83984.44043,1.31934,1.24023,1.31934.35938,0,1-.11914,1.43945-.39941.36035,1,.52051,1.95996.52051,2.87988,0,4.3584-3.63965,7.87793-8.59863,7.87793-4.08008,0-6.2793-2.15918-6.03906-4.95898h-.7998c-.87988,3.39941-3.7998,4.95898-7.0791,4.95898-3.99902,0-6.51855-2.55957-6.51855-5.79883ZM25.70903,76.86678v-3.35938h-.59961c-.91992.67969-1.28027,1.7998-1.28027,2.51953,0,.83984.48047,1.19922,1,1.19922.32031,0,.71973-.15918.87988-.35938Z"/>
      <path class="e" d="M41.95121,79.30624c.32031-1.08008.95996-1.83984,1.67969-2.59961l.16016-7.11914c.16016-6.75879-.51953-9.99805-1.2002-12.35742,1.95996-1.39941,4.35938-2.16016,7.43945-2.16016,4.71875,0,7.11816,2.04004,7.11816,6.71973,0,1.71973-.23926,2.95898-.67969,4.83887h.7998c1.24023-4.55957,3.71973-6.03906,6.87891-6.03906,4.47949,0,7.83887,4.0791,7.83887,11.59766,0,7.47949-3.99902,11.95801-9.47852,11.95801-3.0791,0-5.31934-1.19922-6.59863-3.03906h-.7998l-.67969,2.47949c-1.28027.40039-2.83984.55957-4.83984.55957-4.71875,0-6.83887-1.7998-7.63867-4.83887ZM56.30863,77.74667c1.71973-.2002,2.59961-2.24023,2.59961-4.2793,0-1.95996-.75977-3.23926-2.11914-3.23926h-.28027l-.2002,7.51855Z"/>
      <path class="e" d="M73.4307,72.82772c0-7.43945,5.67969-12.43848,14.59766-12.43848,8.31836,0,13.79785,4.55957,13.79785,11.87793,0,7.15918-5.75879,12.07812-14.59766,12.07812-8.19824,0-13.79785-4.47949-13.79785-11.51758ZM89.22856,72.10702c0-2.79883-.60059-4.2793-1.59961-4.2793-.95996,0-1.60059,1.56055-1.60059,4.63965,0,2.7998.60059,4.2793,1.60059,4.2793.95898,0,1.59961-1.55957,1.59961-4.63965Z"/>
      <path class="e" d="M103.31059,75.94686l.32031-3.59961c.31934-3.59961-.36035-7.23828-1.24023-9.63867,1.91992-1.35938,4.23926-2.11914,6.99902-2.11914,5.11914,0,7.71875,2.95898,7.71875,8.95801,0,2.2002-.16016,3.08008-.52051,4.75977.2002.12012.44043.2002.64062.2002,1.03906,0,1.87988-1.32031,1.7998-4.87988l-.16016-7.67871c2.03906-.91992,4.35938-1.35938,6.95898-1.35938,4.59863,0,6.71875,1.7998,7.59863,4.83887-.40039,1.08008-1.12012,1.83984-1.40039,2.08008l-.19922,4.71875c-.04004,1.16016.47949,1.55957,1.35938,1.55957.36035,0,1-.11914,1.43945-.39941.36035,1,.52051,1.95996.52051,2.87988,0,4.3584-3.63965,7.87793-8.99902,7.87793-4.19922,0-6.79883-2.0791-6.23828-6.27832h-.7998c-1.56055,3.79883-4.63965,6.27832-8.59863,6.27832-5.15918,0-7.63867-3.11914-7.19922-8.19824Z"/>
      <path class="e" d="M136.87016,73.54745c0-1.24023.16016-2.59961.47949-4.35938l-2.47949-.32031c1.12012-7.39844,7.11914-12.03809,15.55762-12.2373l-.24023,4.39844h.75977c1.40039,0,2.91992-.0791,4.39941-.35938.56055.47949,1.08008,1.91992,1.08008,3.63965,0,2.35938-1.28027,5.15918-4.31934,5.15918h-1.91992c-.08008.55957-.12012,1.03906-.12012,1.47949,0,1.87988.76074,2.47949,2.40039,2.47949.95898,0,2.0791-.36035,2.75879-1,.83984,1.28027,1.24023,2.63965,1.24023,3.95898,0,3.91992-3.47949,7.39941-9.59863,7.39941-5.91895,0-9.99805-3.19922-9.99805-10.23828Z"/>
      <path class="e" d="M175.14945,77.82675c0-1.63965.52051-2.91992,1.44043-3.7998,2.55957,2.39941,6.87891,3.39941,8.75781,3.39941.64062,0,1.2002-.12012,1.2002-.55957,0-.32031-.47949-.40039-1.43945-.63965l-3.67969-1c-4.2793-1.16016-5.75879-3.67969-5.75879-6.71875,0-4.59961,3.79883-7.91895,12.39746-7.91895,3.7998,0,7.43848.59961,9.75879.36035.63965,1.19922.83984,2.91895.83984,3.79883,0,2.39941-1.12012,4.43945-4.03906,4.43945-2.04004,0-3.95996-.95996-6.31934-2.43945-.32031.2793-.40039.59961-.40039,1,0,.55957.56055.99902,1.7998,1.31934l3.67969.95996c3.63965.95996,5.71875,2.87988,5.71875,6.31836,0,4.75977-3.91895,7.79883-12.35742,7.79883-7.67871,0-11.59863-2.43945-11.59863-6.31836Z"/>
      <path class="e" d="M200.10942,72.94686c0-9.03809,7.71875-12.39746,14.11816-12.39746,7.19824,0,11.35742,3.31934,11.35742,9.3584,0,.83984-.11914,1.75977-.2793,2.75977l-11.87793.39941c.59961,1.52051,1.99902,2.28027,4.55859,2.28027,1.7998,0,3.59961-.28027,5.99902-1.67969.64062.23926,1.28027,1.59961,1.28027,3.23926,0,3.19922-2.32031,7.55859-11.27832,7.55859-9.51855,0-13.87793-4.91895-13.87793-11.51855ZM213.02738,70.66757l3.0791-.43945c.36035-1.52051.04004-3.59961-1.19922-3.59961-.95996,0-1.87988,1.51953-1.87988,3.87891v.16016Z"/>
      <path class="e" d="M226.54985,79.42635c0-2.91992,2.08008-5.03906,5.83984-6.03906l1.19922-.32031c-.04004-1.2793-1.16016-1.7998-2.55957-1.7998-1,0-2.59961.56055-3.39941,1.32031-.71973-1.36035-1.04004-2.95996-1.04004-4.47949,0-4.03906,2.55957-7.51855,7.91895-7.51855,4.31934,0,7.47852,2.47949,7.47852,7.03906,0,.83984-.12012,1.63965-.35938,2.43945,1.39941-1.16016,1.99902-3,1.99902-4.99902,0-1-.15918-2-.43945-3,1.71973-1,3.55957-1.47949,6.11914-1.47949,3.23926,0,6.19824,1.59961,6.19824,4.71875,0,2.91992-2.03906,5.15918-5.43848,6.03906l-.95996.24023v.04004c0,1.31934,1.16016,1.83984,2.55957,1.83984s2.99902-.55957,3.7998-1.32031c.71973,1.36035,1.03906,2.95996,1.03906,4.47949,0,4.03906-2.55957,7.51855-8.31836,7.51855-4.31934,0-7.47852-2.47949-7.47852-7.03809,0-.91992.12012-1.7998.43945-2.67969-1.63965,1-2.31934,3.0791-2.31934,5.23926,0,.99902.16016,1.99902.43945,2.99902-1.71973,1-3.55859,1.47949-6.11816,1.47949-3.63965,0-6.59961-1.59961-6.59961-4.71875Z"/>
      <path class="e" d="M257.67094,75.94686l.32031-3.59961c.31934-3.59961-.36035-7.23828-1.24023-9.63867,1.91992-1.35938,4.23926-2.11914,6.99902-2.11914,5.11914,0,7.71875,2.95898,7.71875,8.95801,0,2.2002-.16016,3.08008-.52051,4.75977.2002.12012.44043.2002.64062.2002,1.03906,0,1.87891-1.32031,1.7998-4.87988l-.16016-7.67871c2.03906-.91992,4.35938-1.35938,6.95898-1.35938,4.59863,0,6.71875,1.7998,7.59863,4.83887-.40039,1.08008-1.12012,1.83984-1.40039,2.08008l-.19922,4.71875c-.04004,1.16016.47949,1.55957,1.35938,1.55957.36035,0,1-.11914,1.43945-.39941.36035,1,.52051,1.95996.52051,2.87988,0,4.3584-3.63965,7.87793-8.99902,7.87793-4.19922,0-6.79883-2.0791-6.23828-6.27832h-.80078c-1.55957,3.79883-4.63867,6.27832-8.59766,6.27832-5.15918,0-7.63867-3.11914-7.19922-8.19824Z"/>
      <path class="e" d="M290.39067,78.34628c0-3.91895,2.99902-6.87891,10.59766-6.87891.83984,0,1.63965.04004,2.59961.16016v-2.43945c-1.87988,1.08008-4.0791,1.59961-5.83887,1.59961-3.59961,0-5.43945-1.7998-5.43945-5.11914,0-1.2793.16016-2.75977.95996-4.71875,1.40039.35938,2.59961.51953,4.7998.51953,4.03906,0,7.07812-1,10.59766-1,5.31934,0,7.95898,2.47949,7.95898,7.19922,0,1.63965-.40039,3.59863-.40039,4.79883,0,.83984.44043,1.31934,1.24023,1.31934.35938,0,1-.11914,1.43945-.39941.36035,1,.52051,1.95996.52051,2.87988,0,4.3584-3.63965,7.87793-8.59863,7.87793-4.08008,0-6.2793-2.15918-6.03906-4.95898h-.7998c-.87988,3.39941-3.7998,4.95898-7.0791,4.95898-3.99902,0-6.51855-2.55957-6.51855-5.79883ZM303.58793,76.86678v-3.35938h-.59961c-.91992.67969-1.28027,1.7998-1.28027,2.51953,0,.83984.48047,1.19922,1,1.19922.32031,0,.71973-.15918.87988-.35938Z"/>
      <path class="e" d="M320.70805,75.38729l.40039-5.39941c.43945-5.51953-.48047-10.39844-1.16016-12.75781,1.95996-1.39941,4.35938-2.16016,7.43848-2.16016,5.99902,0,8.15918,3,7.63867,8.99902l-.71973,8.19824c-.12012,1.16016.36035,1.51953,1.24023,1.51953.35938,0,1-.11914,1.43945-.39941.28027.71973.51953,1.95996.51953,2.87988,0,4.3584-3.63867,7.87793-9.1582,7.87793-5.19922,0-8.07812-2.95898-7.63867-8.75781Z"/>
      <path class="e" d="M337.0684,57.43026c0-3.75977,2.12012-5.35938,5.95898-5.35938,1.83984,0,4.47949.59961,6.91895.59961.7998,0,1.83984-.2002,2.75977-.47949.39941.95996.55957,1.91992.55957,3.03906,0,2.95996-1.12012,3.95996-3.83887,3.95996-.68066,0-2.2002-.12012-4.47949-.12012-3.08008,0-6.0791.67969-7.47852,1.55957-.24023-1.04004-.40039-2.12012-.40039-3.19922ZM338.74809,75.38729l.32031-3.47949c.31934-3.55957-.60059-6.79883-1.2002-9.15918,1.75977-1.39941,4.47949-2.15918,7.47852-2.15918,4.91992,0,7.83887,2.43945,7.43945,7.3584l-.36035,4.31934c-.08008,1.16016.36035,1.51953,1.24023,1.51953.35938,0,.99902-.11914,1.43945-.39941.28027.71973.51953,1.95996.51953,2.87988,0,4.3584-3.63867,7.87793-9.1582,7.87793-5.19922,0-8.23828-2.95898-7.71875-8.75781Z"/>
      <path class="e" d="M357.26762,73.54745c0-1.24023.16016-2.59961.47949-4.35938l-2.47949-.32031c1.12012-7.39844,7.11914-12.03809,15.55762-12.2373l-.24023,4.39844h.75977c1.40039,0,2.91992-.0791,4.39941-.35938.56055.47949,1.08008,1.91992,1.08008,3.63965,0,2.35938-1.28027,5.15918-4.31934,5.15918h-1.91992c-.08008.55957-.12012,1.03906-.12012,1.47949,0,1.87988.76074,2.47949,2.40039,2.47949.95898,0,2.0791-.36035,2.75879-1,.83984,1.28027,1.24023,2.63965,1.24023,3.95898,0,3.91992-3.47949,7.39941-9.59863,7.39941-5.91895,0-9.99805-3.19922-9.99805-10.23828Z"/>
      <path class="e" d="M381.06742,84.02499c0-1.19922.28027-2.35938.87988-3.31934,1.7998.7998,4.23926,1.24023,6.11914,1.24023,5.31934,0,7.43848-2.19922,6.99902-6.63867h-.7998c-.71973,2.95898-3.24023,5.0791-6.99902,5.0791-5.95898,0-8.63867-3.12012-8.39844-8.19922l.12012-2.39941c.15918-2.7998-.16016-4.67871-1.04004-7.0791,1.91992-1.35938,4.23926-2.11914,6.99902-2.11914,4.71875,0,7.71875,2.39941,7.71875,7.19922,0,1.79883-.16016,2.67871-.52051,4.3584.2002.12012.44043.2002.63965.2002,1.04004,0,1.91992-.91992,1.7998-5.2793l-.16016-5.11914c2.04004-.91992,4.35938-1.35938,6.95898-1.35938,4.59961,0,6.71875,1.7998,7.59863,4.83887-.39941,1.08008-1.11914,1.83984-1.63965,2.36035l.32031,7.67871c.36035,9.03809-4.79883,14.91699-16.03711,14.91699-7.67871,0-10.55859-3.0791-10.55859-6.35938Z"/>
      <path class="e" d="M437.74418,84.30526c2.12012-1.7998,1.47949-5.0791-.08008-6.63867-1.63965,4.19922-5.19922,6.47852-9.67773,6.47852-5.99902,0-8.87891-3.59863-8.99902-7.59863-.12012-4.11914,2.59961-7.75879,8.55859-8.51855-2-1.63965-2.87988-3.63867-2.87988-5.47852,0-2.71973,2-5.03906,5.19922-5.03906.40039,0,.7998.04004,1.2002.11914,0-3.59863,2.51953-4.47852,5.2793-4.47852,3.03906,0,5.75879.7998,7.83887.7998.55957,0,1.0791-.04004,1.51953-.2002.83984,2.39941.16016,8.47852-5.03906,8.47852-1.59961,0-3.63965-.55957-6.23926-1.91992-.28027,1.51953,3.7998,5.11914,7.15918,7.71875,1.2793-4.71875,4.3584-7.51855,7.75781-7.51855,2.91992,0,4.67969,1.75977,4.67969,4.51953,0,1.23926-.36035,2.71973-1.16016,4.43945-.67969-.95996-2.31934-1.44043-3.91895-1.44043-1.7998,0-3.67969.56055-4.87891,1.71973,3.83887,3.12012,5.3584,5.95898,5.3584,9.0791,0,3.95898-2.79883,6.83887-7.23828,6.83887-1.83984,0-3.2793-.36035-4.43945-1.36035ZM428.7061,69.42831c-2.08008,4.51855,2.83887,6.95801,6.51855,5.87891-3.39941-2.7998-4.11914-3.51953-6.51855-5.87891Z"/>
      <path class="e" d="M464.14653,77.82675c0-1.63965.52051-2.91992,1.44043-3.7998,2.55957,2.39941,6.87891,3.39941,8.75781,3.39941.64062,0,1.2002-.12012,1.2002-.55957,0-.32031-.47949-.40039-1.43945-.63965l-3.67969-1c-4.2793-1.16016-5.75879-3.67969-5.75879-6.71875,0-4.59961,3.79883-7.91895,12.39746-7.91895,3.7998,0,7.43848.59961,9.75879.36035.63965,1.19922.83984,2.91895.83984,3.79883,0,2.39941-1.12012,4.43945-4.03906,4.43945-2.04004,0-3.95996-.95996-6.31934-2.43945-.32031.2793-.40039.59961-.40039,1,0,.55957.56055.99902,1.7998,1.31934l3.67969.95996c3.63965.95996,5.71875,2.87988,5.71875,6.31836,0,4.75977-3.91895,7.79883-12.35742,7.79883-7.67871,0-11.59863-2.43945-11.59863-6.31836Z"/>
      <path class="e" d="M489.10746,72.94686c0-9.03809,7.71875-12.39746,14.11816-12.39746,7.19824,0,11.35742,3.31934,11.35742,9.3584,0,.83984-.11914,1.75977-.2793,2.75977l-11.87793.39941c.59961,1.52051,1.99902,2.28027,4.55859,2.28027,1.7998,0,3.59961-.28027,5.99902-1.67969.64062.23926,1.28027,1.59961,1.28027,3.23926,0,3.19922-2.32031,7.55859-11.27832,7.55859-9.51855,0-13.87793-4.91895-13.87793-11.51855ZM502.02543,70.66757l3.0791-.43945c.36035-1.52051.04004-3.59961-1.19922-3.59961-.95996,0-1.87988,1.51953-1.87988,3.87891v.16016Z"/>
      <path class="e" d="M515.54692,79.42635c0-2.91992,2.08008-5.03906,5.83984-6.03906l1.19922-.32031c-.04004-1.2793-1.15918-1.7998-2.55957-1.7998-1,0-2.59961.56055-3.39941,1.32031-.71973-1.36035-1.04004-2.95996-1.04004-4.47949,0-4.03906,2.55957-7.51855,7.91895-7.51855,4.31934,0,7.47852,2.47949,7.47852,7.03906,0,.83984-.12012,1.63965-.35938,2.43945,1.39941-1.16016,1.99902-3,1.99902-4.99902,0-1-.15918-2-.43945-3,1.71973-1,3.55957-1.47949,6.11914-1.47949,3.23926,0,6.19824,1.59961,6.19824,4.71875,0,2.91992-2.03906,5.15918-5.43848,6.03906l-.95996.24023v.04004c0,1.31934,1.16016,1.83984,2.55957,1.83984s2.99902-.55957,3.79883-1.32031c.7207,1.36035,1.04004,2.95996,1.04004,4.47949,0,4.03906-2.55957,7.51855-8.31836,7.51855-4.31934,0-7.47852-2.47949-7.47852-7.03809,0-.91992.12012-1.7998.43945-2.67969-1.63965,1-2.31934,3.0791-2.31934,5.23926,0,.99902.16016,1.99902.43945,2.99902-1.71875,1-3.55859,1.47949-6.11816,1.47949-3.63965,0-6.59961-1.59961-6.59961-4.71875Z"/>
      <path class="e" d="M555.50688,73.90682c0-1.7998.32031-4.51855.32031-5.87891,0-1.83984-.32031-3.75879-1.32031-5.31934,1.87988-1.35938,4.19922-2.11914,6.95898-2.11914,4.51953,0,7.39844,2.08008,7.39844,8.27832,0,3.75977-.63965,5.67969-.63965,6.95898,0,.48047.2002.71973.47949.71973.80078,0,2.12012-2.03906,2.12012-6.95898,0-2.43945-.2002-4.51855-1.35938-6.87891,1.87891-1.35938,4.11914-2.11914,6.95801-2.11914,4.55957,0,7.0791,2.11914,7.11914,8.27832,0,3.75977-.63965,5.67969-.63965,6.95898,0,.48047.16016.71973.47949.71973.75977,0,2.12012-2.03906,2.12012-6.95898,0-2.43945-.24023-4.51855-1.36035-6.87891,1.83984-1.35938,4.08008-2.11914,6.91895-2.11914,4.55957,0,7.0791,2.11914,7.0791,7.19922,0,9.39746-6.55859,16.35645-15.19727,16.35645-3.12012,0-5.55957-1.11914-7.19922-3.43945-2.0791,2.2002-5.63867,3.43945-9.43848,3.43945-6.19824,0-10.79785-3.39941-10.79785-10.23828Z"/>
      <path class="e" d="M599.06742,72.82772c0-7.43945,5.67969-12.43848,14.59766-12.43848,8.31836,0,13.79785,4.55957,13.79785,11.87793,0,7.15918-5.75879,12.07812-14.59766,12.07812-8.19824,0-13.79785-4.47949-13.79785-11.51758ZM614.86528,72.10702c0-2.79883-.60059-4.2793-1.59961-4.2793-.95996,0-1.60059,1.56055-1.60059,4.63965,0,2.7998.60059,4.2793,1.60059,4.2793.95898,0,1.59961-1.55957,1.59961-4.63965Z"/>
      <path class="e" d="M628.94731,83.58553l.47949-9.63867c.2002-4.35938-.19922-7.71875-1.43945-11.59766,2.08008-1.16016,4.23926-1.75977,6.91895-1.75977,5.23926,0,6.35938,2.63965,5.87891,7.63867h1c0-5.39941,2.08008-7.75879,4.95898-7.75879,1.59961,0,2.91992.55957,4.39941.44043.87988,1.47949,1.59961,3.71875,1.59961,6.11816,0,3.59961-1.75977,7.19922-5.2793,7.19922-2.03906,0-3.55957-.63965-4.55859-2.16016h-.40039l.28027,11.51855h-13.83789Z"/>
      <path class="e" d="M669.06449,76.74667c0-1.12012.11914-2.23926.51953-3.31934l-2.12012.55957.16016,9.59863h-13.55762l.40039-12.79785c.23926-7.95898-.44043-11.19824-1.12012-13.55762,1.95996-1.39941,4.35938-2.16016,7.43848-2.16016,6.79883,0,8.15918,3.71973,6.63965,15.27832h1.11914c2.43945-2.04004,2.71973-5.19922,1.67969-8.2793,1.67969-1,3.51953-1.47949,6.0791-1.47949,3.71973,0,6.75879,1.67969,6.75879,4.91895,0,2.51953-1.63965,4.47949-4.63867,5.51953-.32031,1.71973.7998,2.43945,2.11914,2.43945,1.16016,0,2.47949-.55957,3.12012-1.32031.7998,1.44043,1.19922,3.16016,1.19922,4.71973,0,3.95898-2.43945,7.27832-8.07812,7.27832-4.43945,0-7.71875-2.59961-7.71875-7.39844Z"/>
    </g>
  </g>
  <g>
    <g>
      <path class="d" d="M10.18266,35.93221c0-3.91895,2.99902-6.87891,10.59766-6.87891.83984,0,1.63965.04004,2.59961.16016v-2.43945c-1.87988,1.08008-4.0791,1.59961-5.83887,1.59961-3.59961,0-5.43945-1.7998-5.43945-5.11914,0-1.28027.16016-2.75977.95996-4.71875,1.40039.35938,2.59961.51953,4.7998.51953,4.03906,0,7.07812-1,10.59766-1,5.31934,0,7.95898,2.47949,7.95898,7.19922,0,1.63965-.40039,3.59863-.40039,4.79883,0,.83984.44043,1.31934,1.24023,1.31934.35938,0,1-.11914,1.43945-.39941.36035,1,.52051,1.95996.52051,2.87988,0,4.3584-3.63965,7.87793-8.59863,7.87793-4.08008,0-6.2793-2.15918-6.03906-4.95898h-.7998c-.87988,3.39941-3.7998,4.95898-7.0791,4.95898-3.99902,0-6.51855-2.55957-6.51855-5.79883ZM23.37992,34.45272v-3.35938h-.59961c-.91992.67969-1.28027,1.7998-1.28027,2.51953,0,.83984.48047,1.19922,1,1.19922.32031,0,.71973-.15918.87988-.35938Z"/>
      <path class="d" d="M88.77543,32.77303c0-1.43945.15918-3.08008.51953-4.75977-.2002-.11914-.43945-.19922-.63965-.19922-1.04004,0-1.71973.91992-1.71973,4.0791v9.27832h-13.3584l.16016-13.11816c-.23926-.15918-.63965-.23926-.83984-.23926-1.03906,0-1.71973.91992-1.71973,4.0791v9.27832h-13.55762l.40039-10.03809c.19922-5.19922-.52051-8.43848-1.2002-10.79883,1.95996-1.39941,4.43945-2.15918,7.03906-2.15918,4.31934,0,6.91895,2.08008,6.75879,6.2793h.7998c1.16016-3.7998,4.23926-6.2793,8.75879-6.2793,4.43945,0,6.31836,2.75977,6.51855,6.2793h.7998c.83984-3.7998,3.91992-6.2793,8.27832-6.2793,4.63965,0,7.15918,3.11914,6.67969,8.19824l-.32031,3.43945c-.12012,1.16016.47949,1.55957,1.35938,1.55957.36035,0,1-.11914,1.44043-.39941.35938,1,.51953,1.95996.51953,2.87988,0,4.3584-3.63965,7.87793-8.87793,7.87793-5.19922,0-7.79883-2.95898-7.79883-8.95801Z"/>
      <path class="d" d="M106.74028,33.5328l.32031-3.59961c.31934-3.59961-.36035-7.23828-1.24023-9.63867,1.91992-1.35938,4.23926-2.11914,6.99902-2.11914,5.11914,0,7.71875,2.95898,7.71875,8.95801,0,2.2002-.16016,3.08008-.52051,4.75977.2002.12012.44043.2002.64062.2002,1.03906,0,1.87988-1.32031,1.7998-4.87988l-.16016-7.67871c2.03906-.91992,4.35938-1.35938,6.95898-1.35938,4.59863,0,6.71875,1.7998,7.59863,4.83887-.40039,1.08008-1.12012,1.83984-1.40039,2.08008l-.19922,4.71875c-.04004,1.16016.47949,1.55957,1.35938,1.55957.36035,0,1-.11914,1.43945-.39941.36035,1,.52051,1.95996.52051,2.87988,0,4.3584-3.63965,7.87793-8.99902,7.87793-4.19922,0-6.79883-2.0791-6.23828-6.27832h-.7998c-1.56055,3.79883-4.63965,6.27832-8.59863,6.27832-5.15918,0-7.63867-3.11914-7.19922-8.19824Z"/>
      <path class="d" d="M139.46,35.41268c0-1.63965.52051-2.91992,1.44043-3.7998,2.55957,2.39941,6.87891,3.39941,8.75781,3.39941.64062,0,1.2002-.12012,1.2002-.55957,0-.32031-.47949-.40039-1.43945-.63965l-3.67969-1c-4.2793-1.16016-5.75879-3.67969-5.75879-6.71875,0-4.59961,3.79883-7.91895,12.39746-7.91895,3.7998,0,7.43848.59961,9.75879.36035.63965,1.19922.83984,2.91895.83984,3.79883,0,2.39941-1.12012,4.43945-4.03906,4.43945-2.04004,0-3.95996-.95996-6.31934-2.43945-.32031.2793-.40039.59961-.40039,1,0,.55957.56055.99902,1.7998,1.31934l3.67969.95996c3.63965.95996,5.71875,2.87988,5.71875,6.31836,0,4.75977-3.91895,7.79883-12.35742,7.79883-7.67871,0-11.59863-2.43945-11.59863-6.31836Z"/>
      <path class="d" d="M163.10063,15.0162c0-3.75977,2.12012-5.35938,5.95898-5.35938,1.83984,0,4.47949.59961,6.91895.59961.7998,0,1.83984-.2002,2.75977-.47949.39941.95996.55957,1.91992.55957,3.03906,0,2.95996-1.12012,3.95996-3.83887,3.95996-.68066,0-2.2002-.12012-4.47949-.12012-3.08008,0-6.0791.67969-7.47852,1.55957-.24023-1.04004-.40039-2.12012-.40039-3.19922ZM164.78031,32.97323l.32031-3.47949c.31934-3.55957-.60059-6.79883-1.2002-9.15918,1.75977-1.39941,4.47949-2.15918,7.47852-2.15918,4.91992,0,7.83887,2.43945,7.43945,7.3584l-.36035,4.31934c-.08008,1.16016.36035,1.51953,1.24023,1.51953.35938,0,.99902-.11914,1.43945-.39941.28027.71973.51953,1.95996.51953,2.87988,0,4.3584-3.63867,7.87793-9.1582,7.87793-5.19922,0-8.23828-2.95898-7.71875-8.75781Z"/>
      <path class="d" d="M182.5391,30.5328c0-6.71875,5.11914-12.35742,13.91797-12.35742,2.51953,0,6.51855.67969,8.83887.39941.63965,1.32031.83984,3.2002.83984,4.16016,0,2.83887-1.40039,4.67871-4.23926,4.67871-1.91992,0-3.71973-1.04004-5.83984-2.87891-.47949.7998-.47949,1.59961-.47949,2.15918,0,2.2793,1.63965,4.0791,5.11914,4.0791,1.7998,0,3.55957-.63965,4.87891-1.47949.56055,1.23926.83984,2.55957.83984,3.79883,0,4.71973-3.43945,8.63867-10.91797,8.63867-7.0791,0-12.95801-4.11914-12.95801-11.19824Z"/>
      <path class="d" d="M207.17973,35.93221c0-3.91895,2.99902-6.87891,10.59766-6.87891.83984,0,1.63965.04004,2.59961.16016v-2.43945c-1.87988,1.08008-4.0791,1.59961-5.83887,1.59961-3.59961,0-5.43945-1.7998-5.43945-5.11914,0-1.28027.16016-2.75977.95996-4.71875,1.40039.35938,2.59961.51953,4.7998.51953,4.03906,0,7.07812-1,10.59766-1,5.31934,0,7.95898,2.47949,7.95898,7.19922,0,1.63965-.40039,3.59863-.40039,4.79883,0,.83984.44043,1.31934,1.24023,1.31934.35938,0,1-.11914,1.43945-.39941.36035,1,.52051,1.95996.52051,2.87988,0,4.3584-3.63965,7.87793-8.59863,7.87793-4.08008,0-6.2793-2.15918-6.03906-4.95898h-.7998c-.87988,3.39941-3.7998,4.95898-7.0791,4.95898-3.99902,0-6.51855-2.55957-6.51855-5.79883ZM220.37699,34.45272v-3.35938h-.59961c-.91992.67969-1.28027,1.7998-1.28027,2.51953,0,.83984.48047,1.19922,1,1.19922.32031,0,.71973-.15918.87988-.35938Z"/>
      <path class="d" d="M237.49906,32.97323l.40039-5.39941c.43945-5.51953-.48047-10.39844-1.16016-12.75781,1.95996-1.39941,4.35938-2.16016,7.43848-2.16016,5.99902,0,8.15918,3,7.63867,8.99902l-.71973,8.19824c-.12012,1.16016.36035,1.51953,1.24023,1.51953.35938,0,1-.11914,1.43945-.39941.28027.71973.51953,1.95996.51953,2.87988,0,4.3584-3.63867,7.87793-9.1582,7.87793-5.19922,0-8.07812-2.95898-7.63867-8.75781Z"/>
      <path class="d" d="M272.57817,30.5328c0-6.71875,5.11914-12.35742,13.91797-12.35742,2.51953,0,6.51855.67969,8.83887.39941.63965,1.32031.83984,3.2002.83984,4.16016,0,2.83887-1.40039,4.67871-4.23926,4.67871-1.91992,0-3.71973-1.04004-5.83984-2.87891-.47949.7998-.47949,1.59961-.47949,2.15918,0,2.2793,1.63965,4.0791,5.11914,4.0791,1.7998,0,3.55957-.63965,4.87891-1.47949.56055,1.23926.83984,2.55957.83984,3.79883,0,4.71973-3.43945,8.63867-10.91797,8.63867-7.0791,0-12.95801-4.11914-12.95801-11.19824Z"/>
      <path class="d" d="M297.21977,35.93221c0-3.91895,2.99902-6.87891,10.59766-6.87891.83984,0,1.63965.04004,2.59961.16016v-2.43945c-1.87988,1.08008-4.0791,1.59961-5.83887,1.59961-3.59961,0-5.43945-1.7998-5.43945-5.11914,0-1.28027.16016-2.75977.95996-4.71875,1.40039.35938,2.59961.51953,4.7998.51953,4.03906,0,7.07812-1,10.59766-1,5.31934,0,7.95898,2.47949,7.95898,7.19922,0,1.63965-.40039,3.59863-.40039,4.79883,0,.83984.44043,1.31934,1.24023,1.31934.35938,0,1-.11914,1.43945-.39941.36035,1,.52051,1.95996.52051,2.87988,0,4.3584-3.63965,7.87793-8.59863,7.87793-4.08008,0-6.2793-2.15918-6.03906-4.95898h-.7998c-.87988,3.39941-3.7998,4.95898-7.0791,4.95898-3.99902,0-6.51855-2.55957-6.51855-5.79883ZM310.41703,34.45272v-3.35938h-.59961c-.91992.67969-1.28027,1.7998-1.28027,2.51953,0,.83984.48047,1.19922,1,1.19922.32031,0,.71973-.15918.87988-.35938Z"/>
      <path class="d" d="M326.65824,36.89217c.32031-1.08008.95996-1.83984,1.67969-2.59961l.16016-7.11914c.16016-6.75879-.51953-9.99805-1.2002-12.35742,1.95996-1.39941,4.35938-2.16016,7.43945-2.16016,4.71875,0,7.11816,2.04004,7.11816,6.71973,0,1.71973-.23926,2.95898-.67969,4.83887h.7998c1.24023-4.55957,3.71973-6.03906,6.87891-6.03906,4.47949,0,7.83887,4.0791,7.83887,11.59766,0,7.47949-3.99902,11.95801-9.47852,11.95801-3.0791,0-5.31934-1.19922-6.59863-3.03906h-.7998l-.67969,2.47949c-1.28027.40039-2.83984.55957-4.83984.55957-4.71875,0-6.83887-1.7998-7.63867-4.83887ZM341.01567,35.3326c1.71973-.2002,2.59961-2.24023,2.59961-4.2793,0-1.95996-.75977-3.23926-2.11914-3.23926h-.28027l-.2002,7.51855Z"/>
      <path class="d" d="M357.25785,35.93221c0-3.91895,2.99902-6.87891,10.59766-6.87891.83984,0,1.63965.04004,2.59961.16016v-2.43945c-1.87988,1.08008-4.0791,1.59961-5.83887,1.59961-3.59961,0-5.43945-1.7998-5.43945-5.11914,0-1.28027.16016-2.75977.95996-4.71875,1.40039.35938,2.59961.51953,4.7998.51953,4.03906,0,7.07812-1,10.59766-1,5.31934,0,7.95898,2.47949,7.95898,7.19922,0,1.63965-.40039,3.59863-.40039,4.79883,0,.83984.44043,1.31934,1.24023,1.31934.35938,0,1-.11914,1.43945-.39941.36035,1,.52051,1.95996.52051,2.87988,0,4.3584-3.63965,7.87793-8.59863,7.87793-4.08008,0-6.2793-2.15918-6.03906-4.95898h-.7998c-.87988,3.39941-3.7998,4.95898-7.0791,4.95898-3.99902,0-6.51855-2.55957-6.51855-5.79883ZM370.45512,34.45272v-3.35938h-.59961c-.91992.67969-1.28027,1.7998-1.28027,2.51953,0,.83984.48047,1.19922,1,1.19922.32031,0,.71973-.15918.87988-.35938Z"/>
      <path class="d" d="M387.65629,41.17147l.47949-9.63867c.2002-4.35938-.19922-7.71875-1.43945-11.59766,2.08008-1.16016,4.23926-1.75977,6.91895-1.75977,5.23926,0,6.35938,2.63965,5.87891,7.63867h1c0-5.39941,2.08008-7.75879,4.95898-7.75879,1.59961,0,2.91992.55957,4.39941.44043.87988,1.47949,1.59961,3.71875,1.59961,6.11816,0,3.59961-1.75977,7.19922-5.2793,7.19922-2.03906,0-3.55957-.63965-4.55859-2.15918h-.40039l.28027,11.51758h-13.83789Z"/>
      <path class="d" d="M411.73637,30.5328c0-9.03809,7.71875-12.39746,14.11816-12.39746,7.19824,0,11.35742,3.31934,11.35742,9.3584,0,.83984-.11914,1.75977-.2793,2.75977l-11.87793.39941c.59961,1.52051,1.99902,2.28027,4.55859,2.28027,1.7998,0,3.59961-.28027,5.99902-1.67969.64062.23926,1.28027,1.59961,1.28027,3.23926,0,3.19922-2.32031,7.55859-11.27832,7.55859-9.51855,0-13.87793-4.91895-13.87793-11.51855ZM424.65434,28.2535l3.0791-.43945c.36035-1.52051.04004-3.59961-1.19922-3.59961-.95996,0-1.87988,1.51953-1.87988,3.87891v.16016Z"/>
      <path class="d" d="M439.65629,31.13339c0-1.24023.16016-2.59961.47949-4.35938l-2.47949-.32031c1.12012-7.39844,7.11914-12.03809,15.55762-12.2373l-.24023,4.39844h.75977c1.40039,0,2.91992-.0791,4.39941-.35938.56055.47949,1.08008,1.91992,1.08008,3.63965,0,2.35938-1.28027,5.15918-4.31934,5.15918h-1.91992c-.08008.55957-.12012,1.03906-.12012,1.47949,0,1.87988.76074,2.47949,2.40039,2.47949.95898,0,2.0791-.36035,2.75879-1,.83984,1.28027,1.24023,2.63965,1.24023,3.95898,0,3.91992-3.47949,7.39941-9.59863,7.39941-5.91895,0-9.99805-3.19922-9.99805-10.23828Z"/>
      <path class="d" d="M480.45512,45.1705c1.32031-3.03906,1.48047-6.43848,1.67969-10.95801l.04004-.91992c-1.19922.04004-2.15918.2002-3.55859.60059-.56055-.7207-1.08008-2.24023-1.08008-4,0-2.39941,1.23926-5.0791,4.99902-5.11914l.16016-4.11914c.23926-5.39941,3.15918-7.99902,9.07812-7.99902,2.23926,0,6.83887.68066,8.91895.40039.7998,1.31934.95996,3.19922.95996,4.15918,0,2.83984-.83984,5.0791-3.75977,5.0791-1.87988,0-4.19922-.91992-7.03906-4.59863.91992,1.99902,1.87988,4.39844,2.71973,6.91797h1.59961c1.87988,0,3-.0791,4.87891-.47949.56055.59961,1.08008,2.04004,1.08008,3.75977,0,2.35938-1.2793,5.19824-4.2793,5.11914l-1.04004-.04004c.24023,1.55957.40039,2.99902.40039,4.31934,0,7.63867-3.67969,10.67773-8.95898,10.67773-2.83887,0-5.27832-.87988-6.79883-2.7998Z"/>
      <path class="d" d="M500.45512,35.93221c0-3.91895,2.99902-6.87891,10.59766-6.87891.83984,0,1.63965.04004,2.59961.16016v-2.43945c-1.87988,1.08008-4.0791,1.59961-5.83887,1.59961-3.59961,0-5.43945-1.7998-5.43945-5.11914,0-1.28027.16016-2.75977.95996-4.71875,1.40039.35938,2.59961.51953,4.7998.51953,4.03906,0,7.07812-1,10.59766-1,5.31934,0,7.95898,2.47949,7.95898,7.19922,0,1.63965-.40039,3.59863-.40039,4.79883,0,.83984.44043,1.31934,1.24023,1.31934.35938,0,1-.11914,1.43945-.39941.36035,1,.52051,1.95996.52051,2.87988,0,4.3584-3.63965,7.87793-8.59863,7.87793-4.08008,0-6.2793-2.15918-6.03906-4.95898h-.7998c-.87988,3.39941-3.7998,4.95898-7.0791,4.95898-3.99902,0-6.51855-2.55957-6.51855-5.79883ZM513.65238,34.45272v-3.35938h-.59961c-.91992.67969-1.28027,1.7998-1.28027,2.51953,0,.83984.48047,1.19922,1,1.19922.32031,0,.71973-.15918.87988-.35938Z"/>
      <path class="d" d="M546.21195,32.77303c0-1.43945.16016-3.08008.51953-4.75977-.19922-.11914-.43945-.19922-.63965-.19922-1.04004,0-1.71973.91992-1.71973,4.0791v9.27832h-13.67773l.40039-10.03809c.19922-5.19922-.52051-8.43848-1.2002-10.79883,1.95996-1.39941,4.43945-2.15918,7.03906-2.15918,4.43945,0,7.03906,2.08008,6.87891,6.2793h.7998c1.16016-3.7998,4.23926-6.2793,8.59863-6.2793,4.75879,0,7.27832,3.11914,6.79883,8.19824l-.32031,3.43945c-.12012,1.16016.48047,1.55957,1.36035,1.55957.35938,0,.99902-.11914,1.43945-.39941.36035,1,.51953,1.95996.51953,2.87988,0,4.3584-3.63867,7.87793-8.99805,7.87793-5.19922,0-7.79883-2.95898-7.79883-8.95801Z"/>
      <path class="d" d="M564.65336,31.13339c0-1.24023.16016-2.59961.47949-4.35938l-2.47949-.32031c1.12012-7.39844,7.11914-12.03809,15.55762-12.2373l-.24023,4.39844h.75977c1.40039,0,2.91992-.0791,4.39941-.35938.56055.47949,1.08008,1.91992,1.08008,3.63965,0,2.35938-1.28027,5.15918-4.31934,5.15918h-1.91992c-.08008.55957-.12012,1.03906-.12012,1.47949,0,1.87988.76074,2.47949,2.40039,2.47949.95898,0,2.0791-.36035,2.75879-1,.83984,1.28027,1.24023,2.63965,1.24023,3.95898,0,3.91992-3.47949,7.39941-9.59863,7.39941-5.91895,0-9.99805-3.19922-9.99805-10.23828Z"/>
      <path class="d" d="M585.13481,35.93221c0-3.91895,2.99902-6.87891,10.59766-6.87891.83984,0,1.63965.04004,2.59961.16016v-2.43945c-1.87988,1.08008-4.0791,1.59961-5.83887,1.59961-3.59961,0-5.43945-1.7998-5.43945-5.11914,0-1.28027.16016-2.75977.95996-4.71875,1.40039.35938,2.59961.51953,4.7998.51953,4.03906,0,7.07812-1,10.59766-1,5.31934,0,7.95898,2.47949,7.95898,7.19922,0,1.63965-.40039,3.59863-.40039,4.79883,0,.83984.44043,1.31934,1.24023,1.31934.35938,0,1-.11914,1.43945-.39941.36035,1,.52051,1.95996.52051,2.87988,0,4.3584-3.63965,7.87793-8.59863,7.87793-4.08008,0-6.2793-2.15918-6.03906-4.95898h-.7998c-.87988,3.39941-3.7998,4.95898-7.0791,4.95898-3.99902,0-6.51855-2.55957-6.51855-5.79883ZM598.33207,34.45272v-3.35938h-.59961c-.91992.67969-1.28027,1.7998-1.28027,2.51953,0,.83984.48047,1.19922,1,1.19922.32031,0,.71973-.15918.87988-.35938Z"/>
      <path class="d" d="M615.05375,35.41268c0-1.63965.52051-2.91992,1.44043-3.7998,2.55957,2.39941,6.87891,3.39941,8.75781,3.39941.64062,0,1.2002-.12012,1.2002-.55957,0-.32031-.47949-.40039-1.43945-.63965l-3.67969-1c-4.2793-1.16016-5.75879-3.67969-5.75879-6.71875,0-4.59961,3.79883-7.91895,12.39746-7.91895,3.7998,0,7.43848.59961,9.75879.36035.63965,1.19922.83984,2.91895.83984,3.79883,0,2.39941-1.12012,4.43945-4.03906,4.43945-2.04004,0-3.95996-.95996-6.31934-2.43945-.32031.2793-.40039.59961-.40039,1,0,.55957.56055.99902,1.7998,1.31934l3.67969.95996c3.63965.95996,5.71875,2.87988,5.71875,6.31836,0,4.75977-3.91895,7.79883-12.35742,7.79883-7.67871,0-11.59863-2.43945-11.59863-6.31836Z"/>
      <path class="d" d="M642.85356,41.61092c0-1.19922.28027-2.35938.87988-3.31934,1.7998.7998,4.23926,1.24023,6.11914,1.24023,5.31934,0,7.43848-2.2002,6.99902-6.63867h-.7998c-.71973,2.95898-3.24023,5.0791-6.99902,5.0791-5.95898,0-8.63867-3.12012-8.39844-8.19922l.12012-2.39941c.15918-2.7998-.16016-4.67871-1.04004-7.0791,1.91992-1.35938,4.23926-2.11914,6.99902-2.11914,4.71875,0,7.71875,2.39941,7.71875,7.19922,0,1.79883-.16016,2.67871-.52051,4.3584.2002.12012.44043.2002.63965.2002,1.04004,0,1.91992-.91992,1.7998-5.2793l-.15918-5.11914c2.03906-.91992,4.3584-1.35938,6.95801-1.35938,4.59961,0,6.71875,1.7998,7.59863,4.83887-.39941,1.08008-1.11914,1.83984-1.63965,2.36035l.32031,7.67871c.36035,9.03809-4.79883,14.91699-16.03711,14.91699-7.67871,0-10.55859-3.0791-10.55859-6.35938Z"/>
    </g>
    <g>
      <path class="d" d="M12.51176,78.34628c0-3.91895,2.99902-6.87891,10.59766-6.87891.83984,0,1.63965.04004,2.59961.16016v-2.43945c-1.87988,1.08008-4.0791,1.59961-5.83887,1.59961-3.59961,0-5.43945-1.7998-5.43945-5.11914,0-1.2793.16016-2.75977.95996-4.71875,1.40039.35938,2.59961.51953,4.7998.51953,4.03906,0,7.07812-1,10.59766-1,5.31934,0,7.95898,2.47949,7.95898,7.19922,0,1.63965-.40039,3.59863-.40039,4.79883,0,.83984.44043,1.31934,1.24023,1.31934.35938,0,1-.11914,1.43945-.39941.36035,1,.52051,1.95996.52051,2.87988,0,4.3584-3.63965,7.87793-8.59863,7.87793-4.08008,0-6.2793-2.15918-6.03906-4.95898h-.7998c-.87988,3.39941-3.7998,4.95898-7.0791,4.95898-3.99902,0-6.51855-2.55957-6.51855-5.79883ZM25.70903,76.86678v-3.35938h-.59961c-.91992.67969-1.28027,1.7998-1.28027,2.51953,0,.83984.48047,1.19922,1,1.19922.32031,0,.71973-.15918.87988-.35938Z"/>
      <path class="d" d="M41.95121,79.30624c.32031-1.08008.95996-1.83984,1.67969-2.59961l.16016-7.11914c.16016-6.75879-.51953-9.99805-1.2002-12.35742,1.95996-1.39941,4.35938-2.16016,7.43945-2.16016,4.71875,0,7.11816,2.04004,7.11816,6.71973,0,1.71973-.23926,2.95898-.67969,4.83887h.7998c1.24023-4.55957,3.71973-6.03906,6.87891-6.03906,4.47949,0,7.83887,4.0791,7.83887,11.59766,0,7.47949-3.99902,11.95801-9.47852,11.95801-3.0791,0-5.31934-1.19922-6.59863-3.03906h-.7998l-.67969,2.47949c-1.28027.40039-2.83984.55957-4.83984.55957-4.71875,0-6.83887-1.7998-7.63867-4.83887ZM56.30863,77.74667c1.71973-.2002,2.59961-2.24023,2.59961-4.2793,0-1.95996-.75977-3.23926-2.11914-3.23926h-.28027l-.2002,7.51855Z"/>
      <path class="d" d="M73.4307,72.82772c0-7.43945,5.67969-12.43848,14.59766-12.43848,8.31836,0,13.79785,4.55957,13.79785,11.87793,0,7.15918-5.75879,12.07812-14.59766,12.07812-8.19824,0-13.79785-4.47949-13.79785-11.51758ZM89.22856,72.10702c0-2.79883-.60059-4.2793-1.59961-4.2793-.95996,0-1.60059,1.56055-1.60059,4.63965,0,2.7998.60059,4.2793,1.60059,4.2793.95898,0,1.59961-1.55957,1.59961-4.63965Z"/>
      <path class="d" d="M103.31059,75.94686l.32031-3.59961c.31934-3.59961-.36035-7.23828-1.24023-9.63867,1.91992-1.35938,4.23926-2.11914,6.99902-2.11914,5.11914,0,7.71875,2.95898,7.71875,8.95801,0,2.2002-.16016,3.08008-.52051,4.75977.2002.12012.44043.2002.64062.2002,1.03906,0,1.87988-1.32031,1.7998-4.87988l-.16016-7.67871c2.03906-.91992,4.35938-1.35938,6.95898-1.35938,4.59863,0,6.71875,1.7998,7.59863,4.83887-.40039,1.08008-1.12012,1.83984-1.40039,2.08008l-.19922,4.71875c-.04004,1.16016.47949,1.55957,1.35938,1.55957.36035,0,1-.11914,1.43945-.39941.36035,1,.52051,1.95996.52051,2.87988,0,4.3584-3.63965,7.87793-8.99902,7.87793-4.19922,0-6.79883-2.0791-6.23828-6.27832h-.7998c-1.56055,3.79883-4.63965,6.27832-8.59863,6.27832-5.15918,0-7.63867-3.11914-7.19922-8.19824Z"/>
      <path class="d" d="M136.87016,73.54745c0-1.24023.16016-2.59961.47949-4.35938l-2.47949-.32031c1.12012-7.39844,7.11914-12.03809,15.55762-12.2373l-.24023,4.39844h.75977c1.40039,0,2.91992-.0791,4.39941-.35938.56055.47949,1.08008,1.91992,1.08008,3.63965,0,2.35938-1.28027,5.15918-4.31934,5.15918h-1.91992c-.08008.55957-.12012,1.03906-.12012,1.47949,0,1.87988.76074,2.47949,2.40039,2.47949.95898,0,2.0791-.36035,2.75879-1,.83984,1.28027,1.24023,2.63965,1.24023,3.95898,0,3.91992-3.47949,7.39941-9.59863,7.39941-5.91895,0-9.99805-3.19922-9.99805-10.23828Z"/>
      <path class="d" d="M175.14945,77.82675c0-1.63965.52051-2.91992,1.44043-3.7998,2.55957,2.39941,6.87891,3.39941,8.75781,3.39941.64062,0,1.2002-.12012,1.2002-.55957,0-.32031-.47949-.40039-1.43945-.63965l-3.67969-1c-4.2793-1.16016-5.75879-3.67969-5.75879-6.71875,0-4.59961,3.79883-7.91895,12.39746-7.91895,3.7998,0,7.43848.59961,9.75879.36035.63965,1.19922.83984,2.91895.83984,3.79883,0,2.39941-1.12012,4.43945-4.03906,4.43945-2.04004,0-3.95996-.95996-6.31934-2.43945-.32031.2793-.40039.59961-.40039,1,0,.55957.56055.99902,1.7998,1.31934l3.67969.95996c3.63965.95996,5.71875,2.87988,5.71875,6.31836,0,4.75977-3.91895,7.79883-12.35742,7.79883-7.67871,0-11.59863-2.43945-11.59863-6.31836Z"/>
      <path class="d" d="M200.10942,72.94686c0-9.03809,7.71875-12.39746,14.11816-12.39746,7.19824,0,11.35742,3.31934,11.35742,9.3584,0,.83984-.11914,1.75977-.2793,2.75977l-11.87793.39941c.59961,1.52051,1.99902,2.28027,4.55859,2.28027,1.7998,0,3.59961-.28027,5.99902-1.67969.64062.23926,1.28027,1.59961,1.28027,3.23926,0,3.19922-2.32031,7.55859-11.27832,7.55859-9.51855,0-13.87793-4.91895-13.87793-11.51855ZM213.02738,70.66757l3.0791-.43945c.36035-1.52051.04004-3.59961-1.19922-3.59961-.95996,0-1.87988,1.51953-1.87988,3.87891v.16016Z"/>
      <path class="d" d="M226.54985,79.42635c0-2.91992,2.08008-5.03906,5.83984-6.03906l1.19922-.32031c-.04004-1.2793-1.16016-1.7998-2.55957-1.7998-1,0-2.59961.56055-3.39941,1.32031-.71973-1.36035-1.04004-2.95996-1.04004-4.47949,0-4.03906,2.55957-7.51855,7.91895-7.51855,4.31934,0,7.47852,2.47949,7.47852,7.03906,0,.83984-.12012,1.63965-.35938,2.43945,1.39941-1.16016,1.99902-3,1.99902-4.99902,0-1-.15918-2-.43945-3,1.71973-1,3.55957-1.47949,6.11914-1.47949,3.23926,0,6.19824,1.59961,6.19824,4.71875,0,2.91992-2.03906,5.15918-5.43848,6.03906l-.95996.24023v.04004c0,1.31934,1.16016,1.83984,2.55957,1.83984s2.99902-.55957,3.7998-1.32031c.71973,1.36035,1.03906,2.95996,1.03906,4.47949,0,4.03906-2.55957,7.51855-8.31836,7.51855-4.31934,0-7.47852-2.47949-7.47852-7.03809,0-.91992.12012-1.7998.43945-2.67969-1.63965,1-2.31934,3.0791-2.31934,5.23926,0,.99902.16016,1.99902.43945,2.99902-1.71973,1-3.55859,1.47949-6.11816,1.47949-3.63965,0-6.59961-1.59961-6.59961-4.71875Z"/>
      <path class="d" d="M257.67094,75.94686l.32031-3.59961c.31934-3.59961-.36035-7.23828-1.24023-9.63867,1.91992-1.35938,4.23926-2.11914,6.99902-2.11914,5.11914,0,7.71875,2.95898,7.71875,8.95801,0,2.2002-.16016,3.08008-.52051,4.75977.2002.12012.44043.2002.64062.2002,1.03906,0,1.87891-1.32031,1.7998-4.87988l-.16016-7.67871c2.03906-.91992,4.35938-1.35938,6.95898-1.35938,4.59863,0,6.71875,1.7998,7.59863,4.83887-.40039,1.08008-1.12012,1.83984-1.40039,2.08008l-.19922,4.71875c-.04004,1.16016.47949,1.55957,1.35938,1.55957.36035,0,1-.11914,1.43945-.39941.36035,1,.52051,1.95996.52051,2.87988,0,4.3584-3.63965,7.87793-8.99902,7.87793-4.19922,0-6.79883-2.0791-6.23828-6.27832h-.80078c-1.55957,3.79883-4.63867,6.27832-8.59766,6.27832-5.15918,0-7.63867-3.11914-7.19922-8.19824Z"/>
      <path class="d" d="M290.39067,78.34628c0-3.91895,2.99902-6.87891,10.59766-6.87891.83984,0,1.63965.04004,2.59961.16016v-2.43945c-1.87988,1.08008-4.0791,1.59961-5.83887,1.59961-3.59961,0-5.43945-1.7998-5.43945-5.11914,0-1.2793.16016-2.75977.95996-4.71875,1.40039.35938,2.59961.51953,4.7998.51953,4.03906,0,7.07812-1,10.59766-1,5.31934,0,7.95898,2.47949,7.95898,7.19922,0,1.63965-.40039,3.59863-.40039,4.79883,0,.83984.44043,1.31934,1.24023,1.31934.35938,0,1-.11914,1.43945-.39941.36035,1,.52051,1.95996.52051,2.87988,0,4.3584-3.63965,7.87793-8.59863,7.87793-4.08008,0-6.2793-2.15918-6.03906-4.95898h-.7998c-.87988,3.39941-3.7998,4.95898-7.0791,4.95898-3.99902,0-6.51855-2.55957-6.51855-5.79883ZM303.58793,76.86678v-3.35938h-.59961c-.91992.67969-1.28027,1.7998-1.28027,2.51953,0,.83984.48047,1.19922,1,1.19922.32031,0,.71973-.15918.87988-.35938Z"/>
      <path class="d" d="M320.70805,75.38729l.40039-5.39941c.43945-5.51953-.48047-10.39844-1.16016-12.75781,1.95996-1.39941,4.35938-2.16016,7.43848-2.16016,5.99902,0,8.15918,3,7.63867,8.99902l-.71973,8.19824c-.12012,1.16016.36035,1.51953,1.24023,1.51953.35938,0,1-.11914,1.43945-.39941.28027.71973.51953,1.95996.51953,2.87988,0,4.3584-3.63867,7.87793-9.1582,7.87793-5.19922,0-8.07812-2.95898-7.63867-8.75781Z"/>
      <path class="d" d="M337.0684,57.43026c0-3.75977,2.12012-5.35938,5.95898-5.35938,1.83984,0,4.47949.59961,6.91895.59961.7998,0,1.83984-.2002,2.75977-.47949.39941.95996.55957,1.91992.55957,3.03906,0,2.95996-1.12012,3.95996-3.83887,3.95996-.68066,0-2.2002-.12012-4.47949-.12012-3.08008,0-6.0791.67969-7.47852,1.55957-.24023-1.04004-.40039-2.12012-.40039-3.19922ZM338.74809,75.38729l.32031-3.47949c.31934-3.55957-.60059-6.79883-1.2002-9.15918,1.75977-1.39941,4.47949-2.15918,7.47852-2.15918,4.91992,0,7.83887,2.43945,7.43945,7.3584l-.36035,4.31934c-.08008,1.16016.36035,1.51953,1.24023,1.51953.35938,0,.99902-.11914,1.43945-.39941.28027.71973.51953,1.95996.51953,2.87988,0,4.3584-3.63867,7.87793-9.1582,7.87793-5.19922,0-8.23828-2.95898-7.71875-8.75781Z"/>
      <path class="d" d="M357.26762,73.54745c0-1.24023.16016-2.59961.47949-4.35938l-2.47949-.32031c1.12012-7.39844,7.11914-12.03809,15.55762-12.2373l-.24023,4.39844h.75977c1.40039,0,2.91992-.0791,4.39941-.35938.56055.47949,1.08008,1.91992,1.08008,3.63965,0,2.35938-1.28027,5.15918-4.31934,5.15918h-1.91992c-.08008.55957-.12012,1.03906-.12012,1.47949,0,1.87988.76074,2.47949,2.40039,2.47949.95898,0,2.0791-.36035,2.75879-1,.83984,1.28027,1.24023,2.63965,1.24023,3.95898,0,3.91992-3.47949,7.39941-9.59863,7.39941-5.91895,0-9.99805-3.19922-9.99805-10.23828Z"/>
      <path class="d" d="M381.06742,84.02499c0-1.19922.28027-2.35938.87988-3.31934,1.7998.7998,4.23926,1.24023,6.11914,1.24023,5.31934,0,7.43848-2.19922,6.99902-6.63867h-.7998c-.71973,2.95898-3.24023,5.0791-6.99902,5.0791-5.95898,0-8.63867-3.12012-8.39844-8.19922l.12012-2.39941c.15918-2.7998-.16016-4.67871-1.04004-7.0791,1.91992-1.35938,4.23926-2.11914,6.99902-2.11914,4.71875,0,7.71875,2.39941,7.71875,7.19922,0,1.79883-.16016,2.67871-.52051,4.3584.2002.12012.44043.2002.63965.2002,1.04004,0,1.91992-.91992,1.7998-5.2793l-.16016-5.11914c2.04004-.91992,4.35938-1.35938,6.95898-1.35938,4.59961,0,6.71875,1.7998,7.59863,4.83887-.39941,1.08008-1.11914,1.83984-1.63965,2.36035l.32031,7.67871c.36035,9.03809-4.79883,14.91699-16.03711,14.91699-7.67871,0-10.55859-3.0791-10.55859-6.35938Z"/>
      <path class="d" d="M437.74418,84.30526c2.12012-1.7998,1.47949-5.0791-.08008-6.63867-1.63965,4.19922-5.19922,6.47852-9.67773,6.47852-5.99902,0-8.87891-3.59863-8.99902-7.59863-.12012-4.11914,2.59961-7.75879,8.55859-8.51855-2-1.63965-2.87988-3.63867-2.87988-5.47852,0-2.71973,2-5.03906,5.19922-5.03906.40039,0,.7998.04004,1.2002.11914,0-3.59863,2.51953-4.47852,5.2793-4.47852,3.03906,0,5.75879.7998,7.83887.7998.55957,0,1.0791-.04004,1.51953-.2002.83984,2.39941.16016,8.47852-5.03906,8.47852-1.59961,0-3.63965-.55957-6.23926-1.91992-.28027,1.51953,3.7998,5.11914,7.15918,7.71875,1.2793-4.71875,4.3584-7.51855,7.75781-7.51855,2.91992,0,4.67969,1.75977,4.67969,4.51953,0,1.23926-.36035,2.71973-1.16016,4.43945-.67969-.95996-2.31934-1.44043-3.91895-1.44043-1.7998,0-3.67969.56055-4.87891,1.71973,3.83887,3.12012,5.3584,5.95898,5.3584,9.0791,0,3.95898-2.79883,6.83887-7.23828,6.83887-1.83984,0-3.2793-.36035-4.43945-1.36035ZM428.7061,69.42831c-2.08008,4.51855,2.83887,6.95801,6.51855,5.87891-3.39941-2.7998-4.11914-3.51953-6.51855-5.87891Z"/>
      <path class="d" d="M464.14653,77.82675c0-1.63965.52051-2.91992,1.44043-3.7998,2.55957,2.39941,6.87891,3.39941,8.75781,3.39941.64062,0,1.2002-.12012,1.2002-.55957,0-.32031-.47949-.40039-1.43945-.63965l-3.67969-1c-4.2793-1.16016-5.75879-3.67969-5.75879-6.71875,0-4.59961,3.79883-7.91895,12.39746-7.91895,3.7998,0,7.43848.59961,9.75879.36035.63965,1.19922.83984,2.91895.83984,3.79883,0,2.39941-1.12012,4.43945-4.03906,4.43945-2.04004,0-3.95996-.95996-6.31934-2.43945-.32031.2793-.40039.59961-.40039,1,0,.55957.56055.99902,1.7998,1.31934l3.67969.95996c3.63965.95996,5.71875,2.87988,5.71875,6.31836,0,4.75977-3.91895,7.79883-12.35742,7.79883-7.67871,0-11.59863-2.43945-11.59863-6.31836Z"/>
      <path class="d" d="M489.10746,72.94686c0-9.03809,7.71875-12.39746,14.11816-12.39746,7.19824,0,11.35742,3.31934,11.35742,9.3584,0,.83984-.11914,1.75977-.2793,2.75977l-11.87793.39941c.59961,1.52051,1.99902,2.28027,4.55859,2.28027,1.7998,0,3.59961-.28027,5.99902-1.67969.64062.23926,1.28027,1.59961,1.28027,3.23926,0,3.19922-2.32031,7.55859-11.27832,7.55859-9.51855,0-13.87793-4.91895-13.87793-11.51855ZM502.02543,70.66757l3.0791-.43945c.36035-1.52051.04004-3.59961-1.19922-3.59961-.95996,0-1.87988,1.51953-1.87988,3.87891v.16016Z"/>
      <path class="d" d="M515.54692,79.42635c0-2.91992,2.08008-5.03906,5.83984-6.03906l1.19922-.32031c-.04004-1.2793-1.15918-1.7998-2.55957-1.7998-1,0-2.59961.56055-3.39941,1.32031-.71973-1.36035-1.04004-2.95996-1.04004-4.47949,0-4.03906,2.55957-7.51855,7.91895-7.51855,4.31934,0,7.47852,2.47949,7.47852,7.03906,0,.83984-.12012,1.63965-.35938,2.43945,1.39941-1.16016,1.99902-3,1.99902-4.99902,0-1-.15918-2-.43945-3,1.71973-1,3.55957-1.47949,6.11914-1.47949,3.23926,0,6.19824,1.59961,6.19824,4.71875,0,2.91992-2.03906,5.15918-5.43848,6.03906l-.95996.24023v.04004c0,1.31934,1.16016,1.83984,2.55957,1.83984s2.99902-.55957,3.79883-1.32031c.7207,1.36035,1.04004,2.95996,1.04004,4.47949,0,4.03906-2.55957,7.51855-8.31836,7.51855-4.31934,0-7.47852-2.47949-7.47852-7.03809,0-.91992.12012-1.7998.43945-2.67969-1.63965,1-2.31934,3.0791-2.31934,5.23926,0,.99902.16016,1.99902.43945,2.99902-1.71875,1-3.55859,1.47949-6.11816,1.47949-3.63965,0-6.59961-1.59961-6.59961-4.71875Z"/>
      <path class="d" d="M555.50688,73.90682c0-1.7998.32031-4.51855.32031-5.87891,0-1.83984-.32031-3.75879-1.32031-5.31934,1.87988-1.35938,4.19922-2.11914,6.95898-2.11914,4.51953,0,7.39844,2.08008,7.39844,8.27832,0,3.75977-.63965,5.67969-.63965,6.95898,0,.48047.2002.71973.47949.71973.80078,0,2.12012-2.03906,2.12012-6.95898,0-2.43945-.2002-4.51855-1.35938-6.87891,1.87891-1.35938,4.11914-2.11914,6.95801-2.11914,4.55957,0,7.0791,2.11914,7.11914,8.27832,0,3.75977-.63965,5.67969-.63965,6.95898,0,.48047.16016.71973.47949.71973.75977,0,2.12012-2.03906,2.12012-6.95898,0-2.43945-.24023-4.51855-1.36035-6.87891,1.83984-1.35938,4.08008-2.11914,6.91895-2.11914,4.55957,0,7.0791,2.11914,7.0791,7.19922,0,9.39746-6.55859,16.35645-15.19727,16.35645-3.12012,0-5.55957-1.11914-7.19922-3.43945-2.0791,2.2002-5.63867,3.43945-9.43848,3.43945-6.19824,0-10.79785-3.39941-10.79785-10.23828Z"/>
      <path class="d" d="M599.06742,72.82772c0-7.43945,5.67969-12.43848,14.59766-12.43848,8.31836,0,13.79785,4.55957,13.79785,11.87793,0,7.15918-5.75879,12.07812-14.59766,12.07812-8.19824,0-13.79785-4.47949-13.79785-11.51758ZM614.86528,72.10702c0-2.79883-.60059-4.2793-1.59961-4.2793-.95996,0-1.60059,1.56055-1.60059,4.63965,0,2.7998.60059,4.2793,1.60059,4.2793.95898,0,1.59961-1.55957,1.59961-4.63965Z"/>
      <path class="d" d="M628.94731,83.58553l.47949-9.63867c.2002-4.35938-.19922-7.71875-1.43945-11.59766,2.08008-1.16016,4.23926-1.75977,6.91895-1.75977,5.23926,0,6.35938,2.63965,5.87891,7.63867h1c0-5.39941,2.08008-7.75879,4.95898-7.75879,1.59961,0,2.91992.55957,4.39941.44043.87988,1.47949,1.59961,3.71875,1.59961,6.11816,0,3.59961-1.75977,7.19922-5.2793,7.19922-2.03906,0-3.55957-.63965-4.55859-2.16016h-.40039l.28027,11.51855h-13.83789Z"/>
      <path class="d" d="M669.06449,76.74667c0-1.12012.11914-2.23926.51953-3.31934l-2.12012.55957.16016,9.59863h-13.55762l.40039-12.79785c.23926-7.95898-.44043-11.19824-1.12012-13.55762,1.95996-1.39941,4.35938-2.16016,7.43848-2.16016,6.79883,0,8.15918,3.71973,6.63965,15.27832h1.11914c2.43945-2.04004,2.71973-5.19922,1.67969-8.2793,1.67969-1,3.51953-1.47949,6.0791-1.47949,3.71973,0,6.75879,1.67969,6.75879,4.91895,0,2.51953-1.63965,4.47949-4.63867,5.51953-.32031,1.71973.7998,2.43945,2.11914,2.43945,1.16016,0,2.47949-.55957,3.12012-1.32031.7998,1.44043,1.19922,3.16016,1.19922,4.71973,0,3.95898-2.43945,7.27832-8.07812,7.27832-4.43945,0-7.71875-2.59961-7.71875-7.39844Z"/>
    </g>
  </g>
  <g>
    <g>
      <path class="f" d="M10.18363,35.93221c0-3.91895,2.99902-6.87891,10.59766-6.87891.83984,0,1.63965.04004,2.59961.16016v-2.43945c-1.87988,1.08008-4.0791,1.59961-5.83887,1.59961-3.59961,0-5.43945-1.7998-5.43945-5.11914,0-1.28027.16016-2.75977.95996-4.71875,1.40039.35938,2.59961.51953,4.7998.51953,4.03906,0,7.07812-1,10.59766-1,5.31934,0,7.95898,2.47949,7.95898,7.19922,0,1.63965-.40039,3.59863-.40039,4.79883,0,.83984.44043,1.31934,1.24023,1.31934.35938,0,1-.11914,1.43945-.39941.36035,1,.52051,1.95996.52051,2.87988,0,4.3584-3.63965,7.87793-8.59863,7.87793-4.08008,0-6.2793-2.15918-6.03906-4.95898h-.7998c-.87988,3.39941-3.7998,4.95898-7.0791,4.95898-3.99902,0-6.51855-2.55957-6.51855-5.79883ZM23.3809,34.45272v-3.35938h-.59961c-.91992.67969-1.28027,1.7998-1.28027,2.51953,0,.83984.48047,1.19922,1,1.19922.32031,0,.71973-.15918.87988-.35938Z"/>
      <path class="f" d="M88.77738,32.77303c0-1.43945.15918-3.08008.51953-4.75977-.2002-.11914-.43945-.19922-.63965-.19922-1.04004,0-1.71973.91992-1.71973,4.0791v9.27832h-13.3584l.16016-13.11816c-.23926-.15918-.63965-.23926-.83984-.23926-1.03906,0-1.71973.91992-1.71973,4.0791v9.27832h-13.55762l.40039-10.03809c.19922-5.19922-.52051-8.43848-1.2002-10.79883,1.95996-1.39941,4.43945-2.15918,7.03906-2.15918,4.31934,0,6.91895,2.08008,6.75879,6.2793h.7998c1.16016-3.7998,4.23926-6.2793,8.75879-6.2793,4.43945,0,6.31836,2.75977,6.51855,6.2793h.7998c.83984-3.7998,3.91992-6.2793,8.27832-6.2793,4.63965,0,7.15918,3.11914,6.67969,8.19824l-.32031,3.43945c-.12012,1.16016.47949,1.55957,1.35938,1.55957.36035,0,1-.11914,1.44043-.39941.35938,1,.51953,1.95996.51953,2.87988,0,4.3584-3.63965,7.87793-8.87793,7.87793-5.19922,0-7.79883-2.95898-7.79883-8.95801Z"/>
      <path class="f" d="M106.74223,33.5328l.32031-3.59961c.31934-3.59961-.36035-7.23828-1.24023-9.63867,1.91992-1.35938,4.23926-2.11914,6.99902-2.11914,5.11914,0,7.71875,2.95898,7.71875,8.95801,0,2.2002-.16016,3.08008-.52051,4.75977.2002.12012.44043.2002.64062.2002,1.03906,0,1.87988-1.32031,1.7998-4.87988l-.16016-7.67871c2.03906-.91992,4.35938-1.35938,6.95898-1.35938,4.59863,0,6.71875,1.7998,7.59863,4.83887-.40039,1.08008-1.12012,1.83984-1.40039,2.08008l-.19922,4.71875c-.04004,1.16016.47949,1.55957,1.35938,1.55957.36035,0,1-.11914,1.43945-.39941.36035,1,.52051,1.95996.52051,2.87988,0,4.3584-3.63965,7.87793-8.99902,7.87793-4.19922,0-6.79883-2.0791-6.23828-6.27832h-.7998c-1.56055,3.79883-4.63965,6.27832-8.59863,6.27832-5.15918,0-7.63867-3.11914-7.19922-8.19824Z"/>
      <path class="f" d="M139.46195,35.41268c0-1.63965.52051-2.91992,1.44043-3.7998,2.55957,2.39941,6.87891,3.39941,8.75781,3.39941.64062,0,1.2002-.12012,1.2002-.55957,0-.32031-.47949-.40039-1.43945-.63965l-3.67969-1c-4.2793-1.16016-5.75879-3.67969-5.75879-6.71875,0-4.59961,3.79883-7.91895,12.39746-7.91895,3.7998,0,7.43848.59961,9.75879.36035.63965,1.19922.83984,2.91895.83984,3.79883,0,2.39941-1.12012,4.43945-4.03906,4.43945-2.04004,0-3.95996-.95996-6.31934-2.43945-.32031.2793-.40039.59961-.40039,1,0,.55957.56055.99902,1.7998,1.31934l3.67969.95996c3.63965.95996,5.71875,2.87988,5.71875,6.31836,0,4.75977-3.91895,7.79883-12.35742,7.79883-7.67871,0-11.59863-2.43945-11.59863-6.31836Z"/>
      <path class="f" d="M163.10258,15.0162c0-3.75977,2.12012-5.35938,5.95898-5.35938,1.83984,0,4.47949.59961,6.91895.59961.7998,0,1.83984-.2002,2.75977-.47949.39941.95996.55957,1.91992.55957,3.03906,0,2.95996-1.12012,3.95996-3.83887,3.95996-.68066,0-2.2002-.12012-4.47949-.12012-3.08008,0-6.0791.67969-7.47852,1.55957-.24023-1.04004-.40039-2.12012-.40039-3.19922ZM164.78227,32.97323l.32031-3.47949c.31934-3.55957-.60059-6.79883-1.2002-9.15918,1.75977-1.39941,4.47949-2.15918,7.47852-2.15918,4.91992,0,7.83887,2.43945,7.43945,7.3584l-.36035,4.31934c-.08008,1.16016.36035,1.51953,1.24023,1.51953.35938,0,.99902-.11914,1.43945-.39941.28027.71973.51953,1.95996.51953,2.87988,0,4.3584-3.63867,7.87793-9.1582,7.87793-5.19922,0-8.23828-2.95898-7.71875-8.75781Z"/>
      <path class="f" d="M182.54106,30.5328c0-6.71875,5.11914-12.35742,13.91797-12.35742,2.51953,0,6.51855.67969,8.83887.39941.63965,1.32031.83984,3.2002.83984,4.16016,0,2.83887-1.40039,4.67871-4.23926,4.67871-1.91992,0-3.71973-1.04004-5.83984-2.87891-.47949.7998-.47949,1.59961-.47949,2.15918,0,2.2793,1.63965,4.0791,5.11914,4.0791,1.7998,0,3.55957-.63965,4.87891-1.47949.56055,1.23926.83984,2.55957.83984,3.79883,0,4.71973-3.43945,8.63867-10.91797,8.63867-7.0791,0-12.95801-4.11914-12.95801-11.19824Z"/>
      <path class="f" d="M207.18168,35.93221c0-3.91895,2.99902-6.87891,10.59766-6.87891.83984,0,1.63965.04004,2.59961.16016v-2.43945c-1.87988,1.08008-4.0791,1.59961-5.83887,1.59961-3.59961,0-5.43945-1.7998-5.43945-5.11914,0-1.28027.16016-2.75977.95996-4.71875,1.40039.35938,2.59961.51953,4.7998.51953,4.03906,0,7.07812-1,10.59766-1,5.31934,0,7.95898,2.47949,7.95898,7.19922,0,1.63965-.40039,3.59863-.40039,4.79883,0,.83984.44043,1.31934,1.24023,1.31934.35938,0,1-.11914,1.43945-.39941.36035,1,.52051,1.95996.52051,2.87988,0,4.3584-3.63965,7.87793-8.59863,7.87793-4.08008,0-6.2793-2.15918-6.03906-4.95898h-.7998c-.87988,3.39941-3.7998,4.95898-7.0791,4.95898-3.99902,0-6.51855-2.55957-6.51855-5.79883ZM220.37895,34.45272v-3.35938h-.59961c-.91992.67969-1.28027,1.7998-1.28027,2.51953,0,.83984.48047,1.19922,1,1.19922.32031,0,.71973-.15918.87988-.35938Z"/>
      <path class="f" d="M237.50102,32.97323l.40039-5.39941c.43945-5.51953-.48047-10.39844-1.16016-12.75781,1.95996-1.39941,4.35938-2.16016,7.43848-2.16016,5.99902,0,8.15918,3,7.63867,8.99902l-.71973,8.19824c-.12012,1.16016.36035,1.51953,1.24023,1.51953.35938,0,1-.11914,1.43945-.39941.28027.71973.51953,1.95996.51953,2.87988,0,4.3584-3.63867,7.87793-9.1582,7.87793-5.19922,0-8.07812-2.95898-7.63867-8.75781Z"/>
      <path class="f" d="M272.58012,30.5328c0-6.71875,5.11914-12.35742,13.91797-12.35742,2.51953,0,6.51855.67969,8.83887.39941.63965,1.32031.83984,3.2002.83984,4.16016,0,2.83887-1.40039,4.67871-4.23926,4.67871-1.91992,0-3.71973-1.04004-5.83984-2.87891-.47949.7998-.47949,1.59961-.47949,2.15918,0,2.2793,1.63965,4.0791,5.11914,4.0791,1.7998,0,3.55957-.63965,4.87891-1.47949.56055,1.23926.83984,2.55957.83984,3.79883,0,4.71973-3.43945,8.63867-10.91797,8.63867-7.0791,0-12.95801-4.11914-12.95801-11.19824Z"/>
      <path class="f" d="M297.22172,35.93221c0-3.91895,2.99902-6.87891,10.59766-6.87891.83984,0,1.63965.04004,2.59961.16016v-2.43945c-1.87988,1.08008-4.0791,1.59961-5.83887,1.59961-3.59961,0-5.43945-1.7998-5.43945-5.11914,0-1.28027.16016-2.75977.95996-4.71875,1.40039.35938,2.59961.51953,4.7998.51953,4.03906,0,7.07812-1,10.59766-1,5.31934,0,7.95898,2.47949,7.95898,7.19922,0,1.63965-.40039,3.59863-.40039,4.79883,0,.83984.44043,1.31934,1.24023,1.31934.35938,0,1-.11914,1.43945-.39941.36035,1,.52051,1.95996.52051,2.87988,0,4.3584-3.63965,7.87793-8.59863,7.87793-4.08008,0-6.2793-2.15918-6.03906-4.95898h-.7998c-.87988,3.39941-3.7998,4.95898-7.0791,4.95898-3.99902,0-6.51855-2.55957-6.51855-5.79883ZM310.41899,34.45272v-3.35938h-.59961c-.91992.67969-1.28027,1.7998-1.28027,2.51953,0,.83984.48047,1.19922,1,1.19922.32031,0,.71973-.15918.87988-.35938Z"/>
      <path class="f" d="M326.6602,36.89217c.32031-1.08008.95996-1.83984,1.67969-2.59961l.16016-7.11914c.16016-6.75879-.51953-9.99805-1.2002-12.35742,1.95996-1.39941,4.35938-2.16016,7.43945-2.16016,4.71875,0,7.11816,2.04004,7.11816,6.71973,0,1.71973-.23926,2.95898-.67969,4.83887h.7998c1.24023-4.55957,3.71973-6.03906,6.87891-6.03906,4.47949,0,7.83887,4.0791,7.83887,11.59766,0,7.47949-3.99902,11.95801-9.47852,11.95801-3.0791,0-5.31934-1.19922-6.59863-3.03906h-.7998l-.67969,2.47949c-1.28027.40039-2.83984.55957-4.83984.55957-4.71875,0-6.83887-1.7998-7.63867-4.83887ZM341.01762,35.3326c1.71973-.2002,2.59961-2.24023,2.59961-4.2793,0-1.95996-.75977-3.23926-2.11914-3.23926h-.28027l-.2002,7.51855Z"/>
      <path class="f" d="M357.25981,35.93221c0-3.91895,2.99902-6.87891,10.59766-6.87891.83984,0,1.63965.04004,2.59961.16016v-2.43945c-1.87988,1.08008-4.0791,1.59961-5.83887,1.59961-3.59961,0-5.43945-1.7998-5.43945-5.11914,0-1.28027.16016-2.75977.95996-4.71875,1.40039.35938,2.59961.51953,4.7998.51953,4.03906,0,7.07812-1,10.59766-1,5.31934,0,7.95898,2.47949,7.95898,7.19922,0,1.63965-.40039,3.59863-.40039,4.79883,0,.83984.44043,1.31934,1.24023,1.31934.35938,0,1-.11914,1.43945-.39941.36035,1,.52051,1.95996.52051,2.87988,0,4.3584-3.63965,7.87793-8.59863,7.87793-4.08008,0-6.2793-2.15918-6.03906-4.95898h-.7998c-.87988,3.39941-3.7998,4.95898-7.0791,4.95898-3.99902,0-6.51855-2.55957-6.51855-5.79883ZM370.45707,34.45272v-3.35938h-.59961c-.91992.67969-1.28027,1.7998-1.28027,2.51953,0,.83984.48047,1.19922,1,1.19922.32031,0,.71973-.15918.87988-.35938Z"/>
      <path class="f" d="M387.65824,41.17147l.47949-9.63867c.2002-4.35938-.19922-7.71875-1.43945-11.59766,2.08008-1.16016,4.23926-1.75977,6.91895-1.75977,5.23926,0,6.35938,2.63965,5.87891,7.63867h1c0-5.39941,2.08008-7.75879,4.95898-7.75879,1.59961,0,2.91992.55957,4.39941.44043.87988,1.47949,1.59961,3.71875,1.59961,6.11816,0,3.59961-1.75977,7.19922-5.2793,7.19922-2.03906,0-3.55957-.63965-4.55859-2.15918h-.40039l.28027,11.51758h-13.83789Z"/>
      <path class="f" d="M411.73832,30.5328c0-9.03809,7.71875-12.39746,14.11816-12.39746,7.19824,0,11.35742,3.31934,11.35742,9.3584,0,.83984-.11914,1.75977-.2793,2.75977l-11.87793.39941c.59961,1.52051,1.99902,2.28027,4.55859,2.28027,1.7998,0,3.59961-.28027,5.99902-1.67969.64062.23926,1.28027,1.59961,1.28027,3.23926,0,3.19922-2.32031,7.55859-11.27832,7.55859-9.51855,0-13.87793-4.91895-13.87793-11.51855ZM424.65629,28.2535l3.0791-.43945c.36035-1.52051.04004-3.59961-1.19922-3.59961-.95996,0-1.87988,1.51953-1.87988,3.87891v.16016Z"/>
      <path class="f" d="M439.65824,31.13339c0-1.24023.16016-2.59961.47949-4.35938l-2.47949-.32031c1.12012-7.39844,7.11914-12.03809,15.55762-12.2373l-.24023,4.39844h.75977c1.40039,0,2.91992-.0791,4.39941-.35938.56055.47949,1.08008,1.91992,1.08008,3.63965,0,2.35938-1.28027,5.15918-4.31934,5.15918h-1.91992c-.08008.55957-.12012,1.03906-.12012,1.47949,0,1.87988.76074,2.47949,2.40039,2.47949.95898,0,2.0791-.36035,2.75879-1,.83984,1.28027,1.24023,2.63965,1.24023,3.95898,0,3.91992-3.47949,7.39941-9.59863,7.39941-5.91895,0-9.99805-3.19922-9.99805-10.23828Z"/>
      <path class="f" d="M480.45707,45.1705c1.32031-3.03906,1.48047-6.43848,1.67969-10.95801l.04004-.91992c-1.19922.04004-2.15918.2002-3.55859.60059-.56055-.7207-1.08008-2.24023-1.08008-4,0-2.39941,1.23926-5.0791,4.99902-5.11914l.16016-4.11914c.23926-5.39941,3.15918-7.99902,9.07812-7.99902,2.23926,0,6.83887.68066,8.91895.40039.7998,1.31934.95996,3.19922.95996,4.15918,0,2.83984-.83984,5.0791-3.75977,5.0791-1.87988,0-4.19922-.91992-7.03906-4.59863.91992,1.99902,1.87988,4.39844,2.71973,6.91797h1.59961c1.87988,0,3-.0791,4.87891-.47949.56055.59961,1.08008,2.04004,1.08008,3.75977,0,2.35938-1.2793,5.19824-4.2793,5.11914l-1.04004-.04004c.24023,1.55957.40039,2.99902.40039,4.31934,0,7.63867-3.67969,10.67773-8.95898,10.67773-2.83887,0-5.27832-.87988-6.79883-2.7998Z"/>
      <path class="f" d="M500.45707,35.93221c0-3.91895,2.99902-6.87891,10.59766-6.87891.83984,0,1.63965.04004,2.59961.16016v-2.43945c-1.87988,1.08008-4.0791,1.59961-5.83887,1.59961-3.59961,0-5.43945-1.7998-5.43945-5.11914,0-1.28027.16016-2.75977.95996-4.71875,1.40039.35938,2.59961.51953,4.7998.51953,4.03906,0,7.07812-1,10.59766-1,5.31934,0,7.95898,2.47949,7.95898,7.19922,0,1.63965-.40039,3.59863-.40039,4.79883,0,.83984.44043,1.31934,1.24023,1.31934.35938,0,1-.11914,1.43945-.39941.36035,1,.52051,1.95996.52051,2.87988,0,4.3584-3.63965,7.87793-8.59863,7.87793-4.08008,0-6.2793-2.15918-6.03906-4.95898h-.7998c-.87988,3.39941-3.7998,4.95898-7.0791,4.95898-3.99902,0-6.51855-2.55957-6.51855-5.79883ZM513.65434,34.45272v-3.35938h-.59961c-.91992.67969-1.28027,1.7998-1.28027,2.51953,0,.83984.48047,1.19922,1,1.19922.32031,0,.71973-.15918.87988-.35938Z"/>
      <path class="f" d="M546.21391,32.77303c0-1.43945.16016-3.08008.51953-4.75977-.19922-.11914-.43945-.19922-.63965-.19922-1.04004,0-1.71973.91992-1.71973,4.0791v9.27832h-13.67773l.40039-10.03809c.19922-5.19922-.52051-8.43848-1.2002-10.79883,1.95996-1.39941,4.43945-2.15918,7.03906-2.15918,4.43945,0,7.03906,2.08008,6.87891,6.2793h.7998c1.16016-3.7998,4.23926-6.2793,8.59863-6.2793,4.75879,0,7.27832,3.11914,6.79883,8.19824l-.32031,3.43945c-.12012,1.16016.48047,1.55957,1.36035,1.55957.35938,0,.99902-.11914,1.43945-.39941.36035,1,.51953,1.95996.51953,2.87988,0,4.3584-3.63867,7.87793-8.99805,7.87793-5.19922,0-7.79883-2.95898-7.79883-8.95801Z"/>
      <path class="f" d="M564.65531,31.13339c0-1.24023.16016-2.59961.47949-4.35938l-2.47949-.32031c1.12012-7.39844,7.11914-12.03809,15.55762-12.2373l-.24023,4.39844h.75977c1.40039,0,2.91992-.0791,4.39941-.35938.56055.47949,1.08008,1.91992,1.08008,3.63965,0,2.35938-1.28027,5.15918-4.31934,5.15918h-1.91992c-.08008.55957-.12012,1.03906-.12012,1.47949,0,1.87988.76074,2.47949,2.40039,2.47949.95898,0,2.0791-.36035,2.75879-1,.83984,1.28027,1.24023,2.63965,1.24023,3.95898,0,3.91992-3.47949,7.39941-9.59863,7.39941-5.91895,0-9.99805-3.19922-9.99805-10.23828Z"/>
      <path class="f" d="M585.13676,35.93221c0-3.91895,2.99902-6.87891,10.59766-6.87891.83984,0,1.63965.04004,2.59961.16016v-2.43945c-1.87988,1.08008-4.0791,1.59961-5.83887,1.59961-3.59961,0-5.43945-1.7998-5.43945-5.11914,0-1.28027.16016-2.75977.95996-4.71875,1.40039.35938,2.59961.51953,4.7998.51953,4.03906,0,7.07812-1,10.59766-1,5.31934,0,7.95898,2.47949,7.95898,7.19922,0,1.63965-.40039,3.59863-.40039,4.79883,0,.83984.44043,1.31934,1.24023,1.31934.35938,0,1-.11914,1.43945-.39941.36035,1,.52051,1.95996.52051,2.87988,0,4.3584-3.63965,7.87793-8.59863,7.87793-4.08008,0-6.2793-2.15918-6.03906-4.95898h-.7998c-.87988,3.39941-3.7998,4.95898-7.0791,4.95898-3.99902,0-6.51855-2.55957-6.51855-5.79883ZM598.33403,34.45272v-3.35938h-.59961c-.91992.67969-1.28027,1.7998-1.28027,2.51953,0,.83984.48047,1.19922,1,1.19922.32031,0,.71973-.15918.87988-.35938Z"/>
      <path class="f" d="M615.0557,35.41268c0-1.63965.52051-2.91992,1.44043-3.7998,2.55957,2.39941,6.87891,3.39941,8.75781,3.39941.64062,0,1.2002-.12012,1.2002-.55957,0-.32031-.47949-.40039-1.43945-.63965l-3.67969-1c-4.2793-1.16016-5.75879-3.67969-5.75879-6.71875,0-4.59961,3.79883-7.91895,12.39746-7.91895,3.7998,0,7.43848.59961,9.75879.36035.63965,1.19922.83984,2.91895.83984,3.79883,0,2.39941-1.12012,4.43945-4.03906,4.43945-2.04004,0-3.95996-.95996-6.31934-2.43945-.32031.2793-.40039.59961-.40039,1,0,.55957.56055.99902,1.7998,1.31934l3.67969.95996c3.63965.95996,5.71875,2.87988,5.71875,6.31836,0,4.75977-3.91895,7.79883-12.35742,7.79883-7.67871,0-11.59863-2.43945-11.59863-6.31836Z"/>
      <path class="f" d="M642.85551,41.61092c0-1.19922.28027-2.35938.87988-3.31934,1.7998.7998,4.23926,1.24023,6.11914,1.24023,5.31934,0,7.43848-2.2002,6.99902-6.63867h-.7998c-.71973,2.95898-3.24023,5.0791-6.99902,5.0791-5.95898,0-8.63867-3.12012-8.39844-8.19922l.12012-2.39941c.15918-2.7998-.16016-4.67871-1.04004-7.0791,1.91992-1.35938,4.23926-2.11914,6.99902-2.11914,4.71875,0,7.71875,2.39941,7.71875,7.19922,0,1.79883-.16016,2.67871-.52051,4.3584.2002.12012.44043.2002.63965.2002,1.04004,0,1.91992-.91992,1.7998-5.2793l-.15918-5.11914c2.03906-.91992,4.3584-1.35938,6.95801-1.35938,4.59961,0,6.71875,1.7998,7.59863,4.83887-.39941,1.08008-1.11914,1.83984-1.63965,2.36035l.32031,7.67871c.36035,9.03809-4.79883,14.91699-16.03711,14.91699-7.67871,0-10.55859-3.0791-10.55859-6.35938Z"/>
    </g>
    <g>
      <path class="f" d="M12.51176,78.34628c0-3.91895,2.99902-6.87891,10.59766-6.87891.83984,0,1.63965.04004,2.59961.16016v-2.43945c-1.87988,1.08008-4.0791,1.59961-5.83887,1.59961-3.59961,0-5.43945-1.7998-5.43945-5.11914,0-1.2793.16016-2.75977.95996-4.71875,1.40039.35938,2.59961.51953,4.7998.51953,4.03906,0,7.07812-1,10.59766-1,5.31934,0,7.95898,2.47949,7.95898,7.19922,0,1.63965-.40039,3.59863-.40039,4.79883,0,.83984.44043,1.31934,1.24023,1.31934.35938,0,1-.11914,1.43945-.39941.36035,1,.52051,1.95996.52051,2.87988,0,4.3584-3.63965,7.87793-8.59863,7.87793-4.08008,0-6.2793-2.15918-6.03906-4.95898h-.7998c-.87988,3.39941-3.7998,4.95898-7.0791,4.95898-3.99902,0-6.51855-2.55957-6.51855-5.79883ZM25.70903,76.86678v-3.35938h-.59961c-.91992.67969-1.28027,1.7998-1.28027,2.51953,0,.83984.48047,1.19922,1,1.19922.32031,0,.71973-.15918.87988-.35938Z"/>
      <path class="f" d="M41.95121,79.30624c.32031-1.08008.95996-1.83984,1.67969-2.59961l.16016-7.11914c.16016-6.75879-.51953-9.99805-1.2002-12.35742,1.95996-1.39941,4.35938-2.16016,7.43945-2.16016,4.71875,0,7.11816,2.04004,7.11816,6.71973,0,1.71973-.23926,2.95898-.67969,4.83887h.7998c1.24023-4.55957,3.71973-6.03906,6.87891-6.03906,4.47949,0,7.83887,4.0791,7.83887,11.59766,0,7.47949-3.99902,11.95801-9.47852,11.95801-3.0791,0-5.31934-1.19922-6.59863-3.03906h-.7998l-.67969,2.47949c-1.28027.40039-2.83984.55957-4.83984.55957-4.71875,0-6.83887-1.7998-7.63867-4.83887ZM56.30863,77.74667c1.71973-.2002,2.59961-2.24023,2.59961-4.2793,0-1.95996-.75977-3.23926-2.11914-3.23926h-.28027l-.2002,7.51855Z"/>
      <path class="f" d="M73.4307,72.82772c0-7.43945,5.67969-12.43848,14.59766-12.43848,8.31836,0,13.79785,4.55957,13.79785,11.87793,0,7.15918-5.75879,12.07812-14.59766,12.07812-8.19824,0-13.79785-4.47949-13.79785-11.51758ZM89.22856,72.10702c0-2.79883-.60059-4.2793-1.59961-4.2793-.95996,0-1.60059,1.56055-1.60059,4.63965,0,2.7998.60059,4.2793,1.60059,4.2793.95898,0,1.59961-1.55957,1.59961-4.63965Z"/>
      <path class="f" d="M103.31059,75.94686l.32031-3.59961c.31934-3.59961-.36035-7.23828-1.24023-9.63867,1.91992-1.35938,4.23926-2.11914,6.99902-2.11914,5.11914,0,7.71875,2.95898,7.71875,8.95801,0,2.2002-.16016,3.08008-.52051,4.75977.2002.12012.44043.2002.64062.2002,1.03906,0,1.87988-1.32031,1.7998-4.87988l-.16016-7.67871c2.03906-.91992,4.35938-1.35938,6.95898-1.35938,4.59863,0,6.71875,1.7998,7.59863,4.83887-.40039,1.08008-1.12012,1.83984-1.40039,2.08008l-.19922,4.71875c-.04004,1.16016.47949,1.55957,1.35938,1.55957.36035,0,1-.11914,1.43945-.39941.36035,1,.52051,1.95996.52051,2.87988,0,4.3584-3.63965,7.87793-8.99902,7.87793-4.19922,0-6.79883-2.0791-6.23828-6.27832h-.7998c-1.56055,3.79883-4.63965,6.27832-8.59863,6.27832-5.15918,0-7.63867-3.11914-7.19922-8.19824Z"/>
      <path class="f" d="M136.87016,73.54745c0-1.24023.16016-2.59961.47949-4.35938l-2.47949-.32031c1.12012-7.39844,7.11914-12.03809,15.55762-12.2373l-.24023,4.39844h.75977c1.40039,0,2.91992-.0791,4.39941-.35938.56055.47949,1.08008,1.91992,1.08008,3.63965,0,2.35938-1.28027,5.15918-4.31934,5.15918h-1.91992c-.08008.55957-.12012,1.03906-.12012,1.47949,0,1.87988.76074,2.47949,2.40039,2.47949.95898,0,2.0791-.36035,2.75879-1,.83984,1.28027,1.24023,2.63965,1.24023,3.95898,0,3.91992-3.47949,7.39941-9.59863,7.39941-5.91895,0-9.99805-3.19922-9.99805-10.23828Z"/>
      <path class="g" d="M175.14945,77.82675c0-1.63965.52051-2.91992,1.44043-3.7998,2.55957,2.39941,6.87891,3.39941,8.75781,3.39941.64062,0,1.2002-.12012,1.2002-.55957,0-.32031-.47949-.40039-1.43945-.63965l-3.67969-1c-4.2793-1.16016-5.75879-3.67969-5.75879-6.71875,0-4.59961,3.79883-7.91895,12.39746-7.91895,3.7998,0,7.43848.59961,9.75879.36035.63965,1.19922.83984,2.91895.83984,3.79883,0,2.39941-1.12012,4.43945-4.03906,4.43945-2.04004,0-3.95996-.95996-6.31934-2.43945-.32031.2793-.40039.59961-.40039,1,0,.55957.56055.99902,1.7998,1.31934l3.67969.95996c3.63965.95996,5.71875,2.87988,5.71875,6.31836,0,4.75977-3.91895,7.79883-12.35742,7.79883-7.67871,0-11.59863-2.43945-11.59863-6.31836Z"/>
      <path class="g" d="M200.10942,72.94686c0-9.03809,7.71875-12.39746,14.11816-12.39746,7.19824,0,11.35742,3.31934,11.35742,9.3584,0,.83984-.11914,1.75977-.2793,2.75977l-11.87793.39941c.59961,1.52051,1.99902,2.28027,4.55859,2.28027,1.7998,0,3.59961-.28027,5.99902-1.67969.64062.23926,1.28027,1.59961,1.28027,3.23926,0,3.19922-2.32031,7.55859-11.27832,7.55859-9.51855,0-13.87793-4.91895-13.87793-11.51855ZM213.02738,70.66757l3.0791-.43945c.36035-1.52051.04004-3.59961-1.19922-3.59961-.95996,0-1.87988,1.51953-1.87988,3.87891v.16016Z"/>
      <path class="g" d="M226.54985,79.42635c0-2.91992,2.08008-5.03906,5.83984-6.03906l1.19922-.32031c-.04004-1.2793-1.16016-1.7998-2.55957-1.7998-1,0-2.59961.56055-3.39941,1.32031-.71973-1.36035-1.04004-2.95996-1.04004-4.47949,0-4.03906,2.55957-7.51855,7.91895-7.51855,4.31934,0,7.47852,2.47949,7.47852,7.03906,0,.83984-.12012,1.63965-.35938,2.43945,1.39941-1.16016,1.99902-3,1.99902-4.99902,0-1-.15918-2-.43945-3,1.71973-1,3.55957-1.47949,6.11914-1.47949,3.23926,0,6.19824,1.59961,6.19824,4.71875,0,2.91992-2.03906,5.15918-5.43848,6.03906l-.95996.24023v.04004c0,1.31934,1.16016,1.83984,2.55957,1.83984s2.99902-.55957,3.7998-1.32031c.71973,1.36035,1.03906,2.95996,1.03906,4.47949,0,4.03906-2.55957,7.51855-8.31836,7.51855-4.31934,0-7.47852-2.47949-7.47852-7.03809,0-.91992.12012-1.7998.43945-2.67969-1.63965,1-2.31934,3.0791-2.31934,5.23926,0,.99902.16016,1.99902.43945,2.99902-1.71973,1-3.55859,1.47949-6.11816,1.47949-3.63965,0-6.59961-1.59961-6.59961-4.71875Z"/>
      <path class="g" d="M257.67094,75.94686l.32031-3.59961c.31934-3.59961-.36035-7.23828-1.24023-9.63867,1.91992-1.35938,4.23926-2.11914,6.99902-2.11914,5.11914,0,7.71875,2.95898,7.71875,8.95801,0,2.2002-.16016,3.08008-.52051,4.75977.2002.12012.44043.2002.64062.2002,1.03906,0,1.87891-1.32031,1.7998-4.87988l-.16016-7.67871c2.03906-.91992,4.35938-1.35938,6.95898-1.35938,4.59863,0,6.71875,1.7998,7.59863,4.83887-.40039,1.08008-1.12012,1.83984-1.40039,2.08008l-.19922,4.71875c-.04004,1.16016.47949,1.55957,1.35938,1.55957.36035,0,1-.11914,1.43945-.39941.36035,1,.52051,1.95996.52051,2.87988,0,4.3584-3.63965,7.87793-8.99902,7.87793-4.19922,0-6.79883-2.0791-6.23828-6.27832h-.80078c-1.55957,3.79883-4.63867,6.27832-8.59766,6.27832-5.15918,0-7.63867-3.11914-7.19922-8.19824Z"/>
      <path class="g" d="M290.39067,78.34628c0-3.91895,2.99902-6.87891,10.59766-6.87891.83984,0,1.63965.04004,2.59961.16016v-2.43945c-1.87988,1.08008-4.0791,1.59961-5.83887,1.59961-3.59961,0-5.43945-1.7998-5.43945-5.11914,0-1.2793.16016-2.75977.95996-4.71875,1.40039.35938,2.59961.51953,4.7998.51953,4.03906,0,7.07812-1,10.59766-1,5.31934,0,7.95898,2.47949,7.95898,7.19922,0,1.63965-.40039,3.59863-.40039,4.79883,0,.83984.44043,1.31934,1.24023,1.31934.35938,0,1-.11914,1.43945-.39941.36035,1,.52051,1.95996.52051,2.87988,0,4.3584-3.63965,7.87793-8.59863,7.87793-4.08008,0-6.2793-2.15918-6.03906-4.95898h-.7998c-.87988,3.39941-3.7998,4.95898-7.0791,4.95898-3.99902,0-6.51855-2.55957-6.51855-5.79883ZM303.58793,76.86678v-3.35938h-.59961c-.91992.67969-1.28027,1.7998-1.28027,2.51953,0,.83984.48047,1.19922,1,1.19922.32031,0,.71973-.15918.87988-.35938Z"/>
      <path class="g" d="M320.70805,75.38729l.40039-5.39941c.43945-5.51953-.48047-10.39844-1.16016-12.75781,1.95996-1.39941,4.35938-2.16016,7.43848-2.16016,5.99902,0,8.15918,3,7.63867,8.99902l-.71973,8.19824c-.12012,1.16016.36035,1.51953,1.24023,1.51953.35938,0,1-.11914,1.43945-.39941.28027.71973.51953,1.95996.51953,2.87988,0,4.3584-3.63867,7.87793-9.1582,7.87793-5.19922,0-8.07812-2.95898-7.63867-8.75781Z"/>
      <path class="g" d="M337.0684,57.43026c0-3.75977,2.12012-5.35938,5.95898-5.35938,1.83984,0,4.47949.59961,6.91895.59961.7998,0,1.83984-.2002,2.75977-.47949.39941.95996.55957,1.91992.55957,3.03906,0,2.95996-1.12012,3.95996-3.83887,3.95996-.68066,0-2.2002-.12012-4.47949-.12012-3.08008,0-6.0791.67969-7.47852,1.55957-.24023-1.04004-.40039-2.12012-.40039-3.19922ZM338.74809,75.38729l.32031-3.47949c.31934-3.55957-.60059-6.79883-1.2002-9.15918,1.75977-1.39941,4.47949-2.15918,7.47852-2.15918,4.91992,0,7.83887,2.43945,7.43945,7.3584l-.36035,4.31934c-.08008,1.16016.36035,1.51953,1.24023,1.51953.35938,0,.99902-.11914,1.43945-.39941.28027.71973.51953,1.95996.51953,2.87988,0,4.3584-3.63867,7.87793-9.1582,7.87793-5.19922,0-8.23828-2.95898-7.71875-8.75781Z"/>
      <path class="g" d="M357.26762,73.54745c0-1.24023.16016-2.59961.47949-4.35938l-2.47949-.32031c1.12012-7.39844,7.11914-12.03809,15.55762-12.2373l-.24023,4.39844h.75977c1.40039,0,2.91992-.0791,4.39941-.35938.56055.47949,1.08008,1.91992,1.08008,3.63965,0,2.35938-1.28027,5.15918-4.31934,5.15918h-1.91992c-.08008.55957-.12012,1.03906-.12012,1.47949,0,1.87988.76074,2.47949,2.40039,2.47949.95898,0,2.0791-.36035,2.75879-1,.83984,1.28027,1.24023,2.63965,1.24023,3.95898,0,3.91992-3.47949,7.39941-9.59863,7.39941-5.91895,0-9.99805-3.19922-9.99805-10.23828Z"/>
      <path class="g" d="M381.06742,84.02499c0-1.19922.28027-2.35938.87988-3.31934,1.7998.7998,4.23926,1.24023,6.11914,1.24023,5.31934,0,7.43848-2.19922,6.99902-6.63867h-.7998c-.71973,2.95898-3.24023,5.0791-6.99902,5.0791-5.95898,0-8.63867-3.12012-8.39844-8.19922l.12012-2.39941c.15918-2.7998-.16016-4.67871-1.04004-7.0791,1.91992-1.35938,4.23926-2.11914,6.99902-2.11914,4.71875,0,7.71875,2.39941,7.71875,7.19922,0,1.79883-.16016,2.67871-.52051,4.3584.2002.12012.44043.2002.63965.2002,1.04004,0,1.91992-.91992,1.7998-5.2793l-.16016-5.11914c2.04004-.91992,4.35938-1.35938,6.95898-1.35938,4.59961,0,6.71875,1.7998,7.59863,4.83887-.39941,1.08008-1.11914,1.83984-1.63965,2.36035l.32031,7.67871c.36035,9.03809-4.79883,14.91699-16.03711,14.91699-7.67871,0-10.55859-3.0791-10.55859-6.35938Z"/>
      <path class="f" d="M437.74418,84.30526c2.12012-1.7998,1.47949-5.0791-.08008-6.63867-1.63965,4.19922-5.19922,6.47852-9.67773,6.47852-5.99902,0-8.87891-3.59863-8.99902-7.59863-.12012-4.11914,2.59961-7.75879,8.55859-8.51855-2-1.63965-2.87988-3.63867-2.87988-5.47852,0-2.71973,2-5.03906,5.19922-5.03906.40039,0,.7998.04004,1.2002.11914,0-3.59863,2.51953-4.47852,5.2793-4.47852,3.03906,0,5.75879.7998,7.83887.7998.55957,0,1.0791-.04004,1.51953-.2002.83984,2.39941.16016,8.47852-5.03906,8.47852-1.59961,0-3.63965-.55957-6.23926-1.91992-.28027,1.51953,3.7998,5.11914,7.15918,7.71875,1.2793-4.71875,4.3584-7.51855,7.75781-7.51855,2.91992,0,4.67969,1.75977,4.67969,4.51953,0,1.23926-.36035,2.71973-1.16016,4.43945-.67969-.95996-2.31934-1.44043-3.91895-1.44043-1.7998,0-3.67969.56055-4.87891,1.71973,3.83887,3.12012,5.3584,5.95898,5.3584,9.0791,0,3.95898-2.79883,6.83887-7.23828,6.83887-1.83984,0-3.2793-.36035-4.43945-1.36035ZM428.7061,69.42831c-2.08008,4.51855,2.83887,6.95801,6.51855,5.87891-3.39941-2.7998-4.11914-3.51953-6.51855-5.87891Z"/>
      <path class="g" d="M464.14653,77.82675c0-1.63965.52051-2.91992,1.44043-3.7998,2.55957,2.39941,6.87891,3.39941,8.75781,3.39941.64062,0,1.2002-.12012,1.2002-.55957,0-.32031-.47949-.40039-1.43945-.63965l-3.67969-1c-4.2793-1.16016-5.75879-3.67969-5.75879-6.71875,0-4.59961,3.79883-7.91895,12.39746-7.91895,3.7998,0,7.43848.59961,9.75879.36035.63965,1.19922.83984,2.91895.83984,3.79883,0,2.39941-1.12012,4.43945-4.03906,4.43945-2.04004,0-3.95996-.95996-6.31934-2.43945-.32031.2793-.40039.59961-.40039,1,0,.55957.56055.99902,1.7998,1.31934l3.67969.95996c3.63965.95996,5.71875,2.87988,5.71875,6.31836,0,4.75977-3.91895,7.79883-12.35742,7.79883-7.67871,0-11.59863-2.43945-11.59863-6.31836Z"/>
      <path class="g" d="M489.10746,72.94686c0-9.03809,7.71875-12.39746,14.11816-12.39746,7.19824,0,11.35742,3.31934,11.35742,9.3584,0,.83984-.11914,1.75977-.2793,2.75977l-11.87793.39941c.59961,1.52051,1.99902,2.28027,4.55859,2.28027,1.7998,0,3.59961-.28027,5.99902-1.67969.64062.23926,1.28027,1.59961,1.28027,3.23926,0,3.19922-2.32031,7.55859-11.27832,7.55859-9.51855,0-13.87793-4.91895-13.87793-11.51855ZM502.02543,70.66757l3.0791-.43945c.36035-1.52051.04004-3.59961-1.19922-3.59961-.95996,0-1.87988,1.51953-1.87988,3.87891v.16016Z"/>
      <path class="g" d="M515.54692,79.42635c0-2.91992,2.08008-5.03906,5.83984-6.03906l1.19922-.32031c-.04004-1.2793-1.15918-1.7998-2.55957-1.7998-1,0-2.59961.56055-3.39941,1.32031-.71973-1.36035-1.04004-2.95996-1.04004-4.47949,0-4.03906,2.55957-7.51855,7.91895-7.51855,4.31934,0,7.47852,2.47949,7.47852,7.03906,0,.83984-.12012,1.63965-.35938,2.43945,1.39941-1.16016,1.99902-3,1.99902-4.99902,0-1-.15918-2-.43945-3,1.71973-1,3.55957-1.47949,6.11914-1.47949,3.23926,0,6.19824,1.59961,6.19824,4.71875,0,2.91992-2.03906,5.15918-5.43848,6.03906l-.95996.24023v.04004c0,1.31934,1.16016,1.83984,2.55957,1.83984s2.99902-.55957,3.79883-1.32031c.7207,1.36035,1.04004,2.95996,1.04004,4.47949,0,4.03906-2.55957,7.51855-8.31836,7.51855-4.31934,0-7.47852-2.47949-7.47852-7.03809,0-.91992.12012-1.7998.43945-2.67969-1.63965,1-2.31934,3.0791-2.31934,5.23926,0,.99902.16016,1.99902.43945,2.99902-1.71875,1-3.55859,1.47949-6.11816,1.47949-3.63965,0-6.59961-1.59961-6.59961-4.71875Z"/>
      <path class="g" d="M555.50688,73.90682c0-1.7998.32031-4.51855.32031-5.87891,0-1.83984-.32031-3.75879-1.32031-5.31934,1.87988-1.35938,4.19922-2.11914,6.95898-2.11914,4.51953,0,7.39844,2.08008,7.39844,8.27832,0,3.75977-.63965,5.67969-.63965,6.95898,0,.48047.2002.71973.47949.71973.80078,0,2.12012-2.03906,2.12012-6.95898,0-2.43945-.2002-4.51855-1.35938-6.87891,1.87891-1.35938,4.11914-2.11914,6.95801-2.11914,4.55957,0,7.0791,2.11914,7.11914,8.27832,0,3.75977-.63965,5.67969-.63965,6.95898,0,.48047.16016.71973.47949.71973.75977,0,2.12012-2.03906,2.12012-6.95898,0-2.43945-.24023-4.51855-1.36035-6.87891,1.83984-1.35938,4.08008-2.11914,6.91895-2.11914,4.55957,0,7.0791,2.11914,7.0791,7.19922,0,9.39746-6.55859,16.35645-15.19727,16.35645-3.12012,0-5.55957-1.11914-7.19922-3.43945-2.0791,2.2002-5.63867,3.43945-9.43848,3.43945-6.19824,0-10.79785-3.39941-10.79785-10.23828Z"/>
      <path class="g" d="M599.06742,72.82772c0-7.43945,5.67969-12.43848,14.59766-12.43848,8.31836,0,13.79785,4.55957,13.79785,11.87793,0,7.15918-5.75879,12.07812-14.59766,12.07812-8.19824,0-13.79785-4.47949-13.79785-11.51758ZM614.86528,72.10702c0-2.79883-.60059-4.2793-1.59961-4.2793-.95996,0-1.60059,1.56055-1.60059,4.63965,0,2.7998.60059,4.2793,1.60059,4.2793.95898,0,1.59961-1.55957,1.59961-4.63965Z"/>
      <path class="g" d="M628.94731,83.58553l.47949-9.63867c.2002-4.35938-.19922-7.71875-1.43945-11.59766,2.08008-1.16016,4.23926-1.75977,6.91895-1.75977,5.23926,0,6.35938,2.63965,5.87891,7.63867h1c0-5.39941,2.08008-7.75879,4.95898-7.75879,1.59961,0,2.91992.55957,4.39941.44043.87988,1.47949,1.59961,3.71875,1.59961,6.11816,0,3.59961-1.75977,7.19922-5.2793,7.19922-2.03906,0-3.55957-.63965-4.55859-2.16016h-.40039l.28027,11.51855h-13.83789Z"/>
      <path class="g" d="M669.06449,76.74667c0-1.12012.11914-2.23926.51953-3.31934l-2.12012.55957.16016,9.59863h-13.55762l.40039-12.79785c.23926-7.95898-.44043-11.19824-1.12012-13.55762,1.95996-1.39941,4.35938-2.16016,7.43848-2.16016,6.79883,0,8.15918,3.71973,6.63965,15.27832h1.11914c2.43945-2.04004,2.71973-5.19922,1.67969-8.2793,1.67969-1,3.51953-1.47949,6.0791-1.47949,3.71973,0,6.75879,1.67969,6.75879,4.91895,0,2.51953-1.63965,4.47949-4.63867,5.51953-.32031,1.71973.7998,2.43945,2.11914,2.43945,1.16016,0,2.47949-.55957,3.12012-1.32031.7998,1.44043,1.19922,3.16016,1.19922,4.71973,0,3.95898-2.43945,7.27832-8.07812,7.27832-4.43945,0-7.71875-2.59961-7.71875-7.39844Z"/>
    </g>
  </g>
</svg>